<?xml version="1.0" encoding="UTF-8"?>
<svg width="19px" height="20px" viewBox="0 0 19 20" version="1.1" xmlns="http://www.w3.org/2000/svg" xmlns:xlink="http://www.w3.org/1999/xlink">
    <title>auto</title>
    <g id="控件" stroke="none" stroke-width="1" fill="none" fill-rule="evenodd">
        <path d="M12.6554607,2.37363327 C12.3639619,2.2487052 12.072463,2.45691865 12.072463,2.74841747 L12.072463,4.33083965 C12.072463,4.62233847 12.2390338,4.9138373 12.4888899,5.03876536 C14.6959524,6.28804603 16.1118039,8.78660737 15.7786623,11.5766675 C15.4455208,14.6165838 12.9886022,17.1151452 9.90704321,17.4482867 C5.90934506,17.9063563 2.49464457,14.7415119 2.49464457,10.8270991 C2.49464457,8.37018048 3.82721062,6.20476066 5.82605969,5.03876536 C6.07591582,4.9138373 6.24248658,4.62233847 6.24248658,4.33083965 L6.24248658,2.74841747 C6.24248658,2.45691865 5.95098775,2.2487052 5.65948893,2.37363327 C2.11986037,3.83112738 -0.337058279,7.49568401 0.0377259215,11.6599529 C0.412510122,15.9491499 3.82721062,19.4471357 8.11640758,19.946848 C13.6132425,20.5298457 18.3188664,16.2406487 18.3188664,10.8270991 C18.3188664,6.99597175 15.9868758,3.74784201 12.6554607,2.37363327 L12.6554607,2.37363327 Z M10.4067555,0.624640334 C10.4067555,0.291498823 10.1152566,0 9.78211514,0 L8.53283447,0 C8.19969296,0 7.90819413,0.291498823 7.90819413,0.624640334 L7.90819413,10.4106722 C7.90819413,10.7438138 8.19969296,11.0353126 8.53283447,11.0353126 L9.78211514,11.0353126 C10.1152566,11.0353126 10.4067555,10.7438138 10.4067555,10.4106722 L10.4067555,0.624640334 Z" id="auto" fill="#C0DBF8"></path>
    </g>
</svg>