<?xml version="1.0" encoding="UTF-8"?>
<svg width="12px" height="14px" viewBox="0 0 12 14" version="1.1" xmlns="http://www.w3.org/2000/svg" xmlns:xlink="http://www.w3.org/1999/xlink">
    <title>weizhi</title>
    <g id="控件" stroke="none" stroke-width="1" fill="none" fill-rule="evenodd">
        <path d="M5.56972973,0 C8.6572973,0 11.1394595,2.48216216 11.1394595,5.56972973 C11.1394595,9.38378378 7.14378378,12.8951351 5.93297297,13.8637838 C5.69081081,14.0454054 5.38810811,14.0454054 5.20648649,13.8637838 C3.99567568,12.9556757 0,9.38378378 0,5.56972973 C0,2.48216216 2.48216216,2.15083207e-15 5.56972973,2.15083207e-15 Z M5.56972973,3.26918919 C4.23783784,3.26918919 3.20864865,4.29837838 3.20864865,5.56972973 C3.20864865,6.84108108 4.29837838,7.87027027 5.56972973,7.87027027 C6.84108108,7.87027027 7.93081081,6.84108108 7.93081081,5.56972973 C7.93081081,4.29837838 6.84108108,3.26918919 5.56972973,3.26918919 Z" id="weizhi" fill="#C0DBF8"></path>
    </g>
</svg>