<svg xmlns="http://www.w3.org/2000/svg" width="53" height="44.886" viewBox="0 0 53 44.886">
  <g id="_060002" data-name="060002" transform="translate(-583.745 -259.068)">
    <rect id="矩形_73" data-name="矩形 73" width="2" height="36.351" transform="translate(609.402 267.603)" fill="red"/>
    <path id="路径_117" data-name="路径 117" d="M2537.734,1455.588l-1.321-1.5,14-12.315,13.544,12.326-1.346,1.479-12.221-11.122Z" transform="translate(-1940 -1163)" fill="red"/>
    <path id="路径_118" data-name="路径 118" d="M2571.563,1444.008c-.063-.8-1.753-19.691-21.173-19.937-19.4-.276-20.751,19.095-20.8,19.919l-2-.115c.013-.22,1.5-21.807,22.43-21.807.131,0,.259,0,.392,0,21.268.27,23.126,21.57,23.142,21.785Z" transform="translate(-1940 -1163)" fill="red"/>
    <rect id="矩形_74" data-name="矩形 74" width="9.124" height="2" transform="translate(583.745 281.143)" fill="red"/>
    <rect id="矩形_75" data-name="矩形 75" width="9.379" height="2" transform="translate(627.366 281.143)" fill="red"/>
  </g>
</svg>
