<svg xmlns="http://www.w3.org/2000/svg" width="56.389" height="22.94" viewBox="0 0 56.389 22.94">
  <g id="_060018" data-name="060018" transform="translate(-804.356 -881.286)">
    <path id="路径_154" data-name="路径 154" d="M2791.035,2067.226h-36.658v-22.94h36.658Zm-34.658-2h32.658v-18.94h-32.658Z" transform="translate(-1940 -1163)" fill="red"/>
    <rect id="矩形_108" data-name="矩形 108" width="56.389" height="2" transform="translate(804.356 902.226)" fill="red"/>
    <path id="路径_155" data-name="路径 155" d="M2778.4,2063.615h-11.386V2058H2778.4Zm-9.386-2h7.386V2060h-7.386Z" transform="translate(-1940 -1163)" fill="red"/>
    <rect id="矩形_109" data-name="矩形 109" width="2" height="4.332" transform="translate(831.706 891.673)" fill="red"/>
    <path id="路径_156" data-name="路径 156" d="M2772.706,2055.673a3.889,3.889,0,1,1,3.888-3.888A3.892,3.892,0,0,1,2772.706,2055.673Zm0-5.777a1.889,1.889,0,1,0,1.888,1.889A1.891,1.891,0,0,0,2772.706,2049.9Z" transform="translate(-1940 -1163)" fill="red"/>
  </g>
</svg>
