<svg xmlns="http://www.w3.org/2000/svg" width="44" height="44" viewBox="0 0 44 44">
  <g id="_060014" data-name="060014" transform="translate(-810.745 -523.287)">
    <path id="路径_139" data-name="路径 139" d="M2784.745,1713.287h-24v-11h24Zm-22-2h20v-7h-20Z" transform="translate(-1940 -1163)" fill="red"/>
    <path id="路径_140" data-name="路径 140" d="M2755.3,1721.695a21.793,21.793,0,0,1-4.557-13.408,22.05,22.05,0,0,1,4.866-13.8l1.556,1.256a20.049,20.049,0,0,0-4.422,12.545,19.81,19.81,0,0,0,4.142,12.189Z" transform="translate(-1940 -1163)" fill="red"/>
    <path id="路径_141" data-name="路径 141" d="M2772.745,1730.287a21.821,21.821,0,0,1-13.17-4.376l1.2-1.6a20,20,0,0,0,23.943,0l1.2,1.6A21.818,21.818,0,0,1,2772.745,1730.287Z" transform="translate(-1940 -1163)" fill="red"/>
    <path id="路径_142" data-name="路径 142" d="M2790.405,1721.408l-1.6-1.194a20.005,20.005,0,0,0,0-23.855l1.6-1.194a22.005,22.005,0,0,1,0,26.243Z" transform="translate(-1940 -1163)" fill="red"/>
    <path id="路径_143" data-name="路径 143" d="M2785,1692.475a20.008,20.008,0,0,0-24.221-.211l-1.2-1.6a22.007,22.007,0,0,1,26.644.233Z" transform="translate(-1940 -1163)" fill="red"/>
  </g>
</svg>
