<svg xmlns="http://www.w3.org/2000/svg" width="54.098" height="24.341" viewBox="0 0 54.098 24.341">
  <path id="_060010" data-name="060010" d="M2794.154,1368.994l-1.414-1.414,3.286-3.286a7.033,7.033,0,0,0,1.171-4.639,11.906,11.906,0,0,0-4.408-8.687c-5.885-5.149-14.277.817-14.361.878l-11.437,9.807c-6.349,5.443-13.431,5.125-19.429-.874-5.055-5.054-1.18-12.758,1.576-16.126l1.548,1.266c-.068.083-6.748,8.408-1.71,13.446,5.242,5.242,11.179,5.514,16.713.769l11.5-9.857c.161-.119,9.825-7.018,16.917-.814a13.861,13.861,0,0,1,5.09,10.126c.1,2.917-.812,5.175-1.756,6.119Z" transform="translate(-2745.105 -1344.653)" fill="red"/>
</svg>
