<svg xmlns="http://www.w3.org/2000/svg" width="53.2" height="17.751" viewBox="0 0 53.2 17.751">
  <g id="_060016" data-name="060016" transform="translate(-805.745 -708.536)">
    <rect id="矩形_104" data-name="矩形 104" width="15.2" height="2" transform="translate(823.545 712.287)" fill="red"/>
    <path id="路径_138" data-name="路径 138" d="M2773.383,1880.2l-5.612-3.812,5.514-4.853,1.321,1.5-3.576,3.147,3.478,2.362Z" transform="translate(-1940 -1163)" fill="red"/>
    <path id="路径_151" data-name="路径 151" d="M2780.345,1878.887a2.6,2.6,0,1,1,2.6-2.6A2.6,2.6,0,0,1,2780.345,1878.887Zm0-3.2a.6.6,0,1,0,.6.6A.6.6,0,0,0,2780.345,1875.687Z" transform="translate(-1940 -1163)" fill="red"/>
    <path id="路径_152" data-name="路径 152" d="M2791.945,1889.287h-39.2a7,7,0,0,1,0-14h8.806v2h-8.806a5,5,0,0,0,0,10h39.2a5,5,0,0,0,0-10h-6.886v-2h6.886a7,7,0,0,1,0,14Z" transform="translate(-1940 -1163)" fill="red"/>
  </g>
</svg>
