<svg xmlns="http://www.w3.org/2000/svg" width="51.927" height="27.365" viewBox="0 0 51.927 27.365">
  <g id="_060009" data-name="060009" transform="translate(-584.48 -971.162)">
    <path id="路径_132" data-name="路径 132" d="M2524.765,2161.527c-.087-.348-2.039-8.637,5.624-16.258l1.41,1.418c-6.829,6.792-5.167,14.055-5.092,14.361Z" transform="translate(-1940 -1163)" fill="red"/>
    <path id="路径_133" data-name="路径 133" d="M2561.839,2138.484c-12.568-5.074-20.16-.149-20.235-.1l-1.121-1.657c.341-.23,8.489-5.594,22.1-.1Z" transform="translate(-1940 -1163)" fill="red"/>
    <path id="路径_134" data-name="路径 134" d="M2576.319,2161.356l-2-.14c.555-7.848-1.857-11.153-1.882-11.187l1.583-1.221C2574.145,2148.961,2576.935,2152.654,2576.319,2161.356Z" transform="translate(-1940 -1163)" fill="red"/>
    <rect id="矩形_87" data-name="矩形 87" width="2" height="7.339" transform="matrix(0.73, -0.683, 0.683, 0.73, 624.81, 978.302)" fill="red"/>
    <rect id="矩形_88" data-name="矩形 88" width="4.994" height="2" transform="translate(627.357 979.573) rotate(-43.576)" fill="red"/>
    <rect id="矩形_89" data-name="矩形 89" width="2" height="4.33" transform="matrix(0.707, -0.707, 0.707, 0.707, 591.918, 976.029)" fill="red"/>
    <rect id="矩形_90" data-name="矩形 90" width="5.909" height="2.001" transform="matrix(0.702, -0.712, 0.712, 0.702, 593.124, 979.595)" fill="red"/>
  </g>
</svg>
