<svg xmlns="http://www.w3.org/2000/svg" width="59.168" height="23" viewBox="0 0 59.168 23">
  <g id="_060003" data-name="060003" transform="translate(-580.577 -353.287)">
    <path id="路径_119" data-name="路径 119" d="M2570.748,1538.361c-.061-.809-1.714-19.824-20.686-20.072l-.358,0c-18.63,0-19.914,19.232-19.96,20.055l-2-.111c.012-.221,1.464-21.944,21.958-21.944l.383,0c20.821.273,22.639,21.708,22.654,21.924Z" transform="translate(-1940 -1163)" fill="red"/>
    <rect id="矩形_76" data-name="矩形 76" width="59.168" height="2" transform="translate(580.577 374.287)" fill="red"/>
    <rect id="矩形_77" data-name="矩形 77" width="18.849" height="2" transform="translate(600.745 364.287)" fill="red"/>
    <path id="路径_120" data-name="路径 120" d="M2553.055,1535.085l-7.125-6.8,7.129-6.723,1.372,1.455-5.6,5.277,5.6,5.348Z" transform="translate(-1940 -1163)" fill="red"/>
  </g>
</svg>
