<svg xmlns="http://www.w3.org/2000/svg" width="57.34" height="23" viewBox="0 0 57.34 23">
  <g id="_060012" data-name="060012" transform="translate(-803.745 -362.287)">
    <rect id="矩形_92" data-name="矩形 92" width="55.459" height="2" transform="translate(804.685 362.287)" fill="red"/>
    <rect id="矩形_93" data-name="矩形 93" width="55.459" height="2" transform="translate(804.685 383.287)" fill="red"/>
    <rect id="矩形_94" data-name="矩形 94" width="9.537" height="2" transform="translate(813.145 373.566)" fill="red"/>
    <rect id="矩形_95" data-name="矩形 95" width="14.146" height="2" transform="translate(826.462 373.566)" fill="red"/>
    <rect id="矩形_96" data-name="矩形 96" width="9.39" height="2" transform="translate(843.778 373.566)" fill="red"/>
    <path id="路径_144" data-name="路径 144" d="M2743.745,1537.541l4.7-1.649,4.7-1.649v6.595l-4.7-1.649Z" transform="translate(-1940 -1163)" fill="red"/>
    <path id="路径_145" data-name="路径 145" d="M2801.085,1537.541l-4.7,1.649-4.7,1.649v-6.595l4.7,1.649Z" transform="translate(-1940 -1163)" fill="red"/>
    <path id="路径_146" data-name="路径 146" d="M2774.19,1541.657l-5.629-3.953,5.494-5.541,1.42,1.408-3.825,3.858,3.689,2.591Z" transform="translate(-1940 -1163)" fill="red"/>
  </g>
</svg>
