<svg xmlns="http://www.w3.org/2000/svg" width="55.568" height="26.02" viewBox="0 0 55.568 26.02">
  <g id="_060019" data-name="060019" transform="translate(-805.745 -973.135)">
    <path id="路径_158" data-name="路径 158" d="M2745.745,2148.27l4.163-1.335,4.164-1.336v5.342l-4.164-1.335Z" transform="translate(-1940 -1163)" fill="red"/>
    <rect id="矩形_110" data-name="矩形 110" width="9.52" height="2" transform="translate(812.353 984.268)" fill="red"/>
    <path id="路径_159" data-name="路径 159" d="M2786.913,2145.356l2.867-3.3,2.867-3.3,1.385,2.284,1.385,2.283-4.252,1.018Z" transform="translate(-1940 -1163)" fill="red"/>
    <rect id="矩形_111" data-name="矩形 111" width="9.52" height="2.001" transform="matrix(0.855, -0.518, 0.518, 0.855, 852.042, 978.07)" fill="red"/>
    <path id="路径_160" data-name="路径 160" d="M2786.8,2153.315l4.279.9,4.279.9-1.321,2.322-1.321,2.322-2.959-3.219Z" transform="translate(-1940 -1163)" fill="red"/>
    <rect id="矩形_112" data-name="矩形 112" width="2" height="9.52" transform="translate(852.049 994.449) rotate(-60.374)" fill="red"/>
    <rect id="矩形_113" data-name="矩形 113" width="2" height="5.967" transform="translate(821.519 982.567)" fill="red"/>
    <path id="路径_161" data-name="路径 161" d="M2774.776,2158.825a10.031,10.031,0,1,1,10.032-10.032A10.043,10.043,0,0,1,2774.776,2158.825Zm0-18.063a8.031,8.031,0,1,0,8.032,8.031A8.04,8.04,0,0,0,2774.776,2140.762Z" transform="translate(-1940 -1163)" fill="red"/>
  </g>
</svg>
