<svg xmlns="http://www.w3.org/2000/svg" width="45.067" height="44.922" viewBox="0 0 45.067 44.922">
  <g id="_060015" data-name="060015" transform="translate(-808.678 -611.767)">
    <rect id="矩形_105" data-name="矩形 105" width="37.369" height="2" transform="translate(817.308 647.419) rotate(-45)" fill="red"/>
    <rect id="矩形_106" data-name="矩形 106" width="2" height="35.763" transform="translate(818.579 622.409) rotate(-45)" fill="red"/>
    <path id="路径_147" data-name="路径 147" d="M2750.553,1776.167l6.171,3.307,6.171,3.306-3.418,3.13-3.418,3.13-2.753-6.437Z" transform="translate(-1940 -1163)" fill="red"/>
    <path id="路径_148" data-name="路径 148" d="M2792.419,1774.767l-2.637,6.485-2.637,6.485-3.473-3.069-3.473-3.069,6.111-3.416Z" transform="translate(-1940 -1163)" fill="red"/>
    <path id="路径_149" data-name="路径 149" d="M2793.745,1819.015l-6.114-3.411-6.114-3.411,3.47-3.072,3.47-3.072,2.643,6.483Z" transform="translate(-1940 -1163)" fill="red"/>
    <path id="路径_150" data-name="路径 150" d="M2748.678,1819.688l3.508-6.058,3.508-6.058,3.016,3.519,3.016,3.519-6.524,2.539Z" transform="translate(-1940 -1163)" fill="red"/>
  </g>
</svg>
