<svg xmlns="http://www.w3.org/2000/svg" width="52.143" height="28.229" viewBox="0 0 52.143 28.229">
  <g id="_050021" data-name="050021" transform="translate(-412.288 -268.029)">
    <path id="路径_113" data-name="路径 113" d="M2404.431,1459.258h-52.143v-28.229h52.143Zm-50.143-2h48.143v-24.229h-48.143Z" transform="translate(-1940 -1163)" fill="red"/>
    <path id="路径_114" data-name="路径 114" d="M2391.737,1446.265c-.173-.239-4.352-5.861-13.6-5.861-9.27,0-13.008,5.642-13.163,5.882l.021.015-.021.015c.155.24,3.893,5.882,13.163,5.882,9.253,0,13.432-5.623,13.6-5.862l-.046-.035Zm-13.6,5.026c-7.2,0-10.932-3.651-12.058-4.992,1.123-1.342,4.836-4.988,12.058-4.988a16.759,16.759,0,0,1,12.469,4.99A16.764,16.764,0,0,1,2378.132,1451.291Z" transform="translate(-1940 -1163)" fill="red"/>
    <path id="路径_115" data-name="路径 115" d="M2378.131,1452.858c-9.228,0-13.213-5.468-13.656-6.121l-.366-.256.1-.163-.117-.182.387-.272c.444-.655,4.42-6.12,13.656-6.12,9.574,0,13.935,5.876,14.116,6.126l.06.083.278.213-.056.094.1.14-.384.332C2392.066,1446.982,2387.705,1452.858,2378.131,1452.858Zm-11.19-6.56c1.486,1.577,4.975,4.332,11.19,4.332a16.284,16.284,0,0,0,11.563-4.329,16.279,16.279,0,0,0-11.563-4.33C2371.9,1441.971,2368.42,1444.723,2366.941,1446.3Z" transform="translate(-1940 -1163)" fill="red"/>
    <path id="路径_116" data-name="路径 116" d="M2384.374,1449.229h-12.029V1442.6h12.029Zm-10.029-2h8.029V1444.6h-8.029Z" transform="translate(-1940 -1163)" fill="red"/>
    <rect id="矩形_65" data-name="矩形 65" width="2" height="4.479" transform="translate(437.359 280.751)" fill="red"/>
  </g>
</svg>
