<svg xmlns="http://www.w3.org/2000/svg" width="55.696" height="15.474" viewBox="0 0 55.696 15.474">
  <g id="_050015" data-name="050015" transform="translate(-326.154 -623.52)">
    <rect id="矩形_49" data-name="矩形 49" width="21.613" height="2" transform="translate(329.304 629.827)" fill="red"/>
    <rect id="矩形_50" data-name="矩形 50" width="3.763" height="2" transform="translate(357.501 629.827)" fill="red"/>
    <rect id="矩形_51" data-name="矩形 51" width="4.501" height="2" transform="translate(363.478 629.827)" fill="red"/>
    <rect id="矩形_52" data-name="矩形 52" width="4.107" height="2" transform="translate(370.414 629.827)" fill="red"/>
    <rect id="矩形_53" data-name="矩形 53" width="4.427" height="2" transform="translate(377.423 629.827)" fill="red"/>
    <rect id="矩形_54" data-name="矩形 54" width="2" height="6.256" transform="translate(347.927 627.699)" fill="red"/>
    <path id="路径_103" data-name="路径 103" d="M2283.889,1801.994l-8.232-8.232,8.646-7.242,1.284,1.533-6.972,5.839,6.687,6.687Z" transform="translate(-1940 -1163)" fill="red"/>
    <path id="路径_104" data-name="路径 104" d="M2268.079,1797.03l-1.531-1.286,1.462-1.741-1.855-1.359,1.182-1.613,3.58,2.622Z" transform="translate(-1940 -1163)" fill="red"/>
    <path id="路径_105" data-name="路径 105" d="M2294.045,1797.956a3.844,3.844,0,1,1,3.844-3.844A3.848,3.848,0,0,1,2294.045,1797.956Zm0-5.688a1.844,1.844,0,1,0,1.844,1.844A1.846,1.846,0,0,0,2294.045,1792.268Z" transform="translate(-1940 -1163)" fill="red"/>
  </g>
</svg>
