<svg xmlns="http://www.w3.org/2000/svg" width="48.152" height="47.8" viewBox="0 0 48.152 47.8">
  <g id="_050004" data-name="050004" transform="translate(-81.827 -432.787)">
    <path id="路径_73" data-name="路径 73" d="M2045.6,1643.587a23.847,23.847,0,0,1-22.073-14.718l1.847-.769a21.909,21.909,0,0,0,39.663,1.688l1.774.924A23.846,23.846,0,0,1,2045.6,1643.587Z" transform="translate(-1940 -1163)" fill="red"/>
    <path id="路径_74" data-name="路径 74" d="M2065.779,1611.163a21.907,21.907,0,0,0-37.079-5.406l-1.543-1.274a23.908,23.908,0,0,1,40.464,5.9Z" transform="translate(-1940 -1163)" fill="red"/>
    <path id="路径_79" data-name="路径 79" d="M2058.661,1630.013l-35.648-8.824,35.648-8.823Zm-27.324-8.824,25.324,6.269v-12.537Z" transform="translate(-1940 -1163)" fill="red"/>
    <rect id="矩形_31" data-name="矩形 31" width="9" height="2" transform="translate(108.661 457.644)" fill="red"/>
    <path id="路径_80" data-name="路径 80" d="M2041.336,1621.79l4.163-1.335,4.163-1.335v5.341l-4.163-1.335Z" transform="translate(-1940 -1163)" fill="red"/>
    <path id="路径_81" data-name="路径 81" d="M2021.827,1613.386l1.769-5.678,1.769-5.678,2.973,2.088,2.973,2.088-4.741,3.59Z" transform="translate(-1940 -1163)" fill="red"/>
    <path id="路径_82" data-name="路径 82" d="M2069.979,1622.886l-1.336,5.795-1.336,5.795-3.121-1.858-3.122-1.858,4.458-3.936Z" transform="translate(-1940 -1163)" fill="red"/>
  </g>
</svg>
