<svg xmlns="http://www.w3.org/2000/svg" width="46.312" height="46.546" viewBox="0 0 46.312 46.546">
  <g id="_050017" data-name="050017" transform="translate(-327.92 -785.786)">
    <path id="路径_107" data-name="路径 107" d="M2291.042,1999.456a23.248,23.248,0,0,1-23.12-20.594l1.712-.2a21.552,21.552,0,0,0,42.752.5l1.708.236A23.353,23.353,0,0,1,2291.042,1999.456Z" transform="translate(-1940 -1167.125)" fill="red"/>
    <path id="路径_108" data-name="路径 108" d="M2312.514,1970.226a21.551,21.551,0,0,0-42.882-.635l-1.713-.2a23.275,23.275,0,0,1,46.312.686Z" transform="translate(-1940 -1163)" fill="red"/>
    <rect id="矩形_59" data-name="矩形 59" width="27.201" height="1.724" transform="translate(338.113 808.628)" fill="red"/>
    <rect id="矩形_60" data-name="矩形 60" width="1.724" height="8.62" transform="translate(345.87 800.87)" fill="red"/>
  </g>
</svg>
