<svg xmlns="http://www.w3.org/2000/svg" width="47.801" height="47.8" viewBox="0 0 47.801 47.8">
  <g id="_050001" data-name="050001" transform="translate(-81.422 -169.787)">
    <path id="路径_70" data-name="路径 70" d="M2045.323,1380.587a23.9,23.9,0,1,1,23.9-23.9A23.928,23.928,0,0,1,2045.323,1380.587Zm0-45.8a21.9,21.9,0,1,0,21.9,21.9A21.925,21.925,0,0,0,2045.323,1334.787Z" transform="translate(-1940 -1163)" fill="red"/>
    <path id="路径_76" data-name="路径 76" d="M2057.286,1358.771a11.03,11.03,0,0,1-11.015,10.883h-1.9a11.031,11.031,0,0,1-11.015-10.883h-1.636a12.667,12.667,0,0,0,12.651,12.516h1.9a12.668,12.668,0,0,0,12.651-12.516Z" transform="translate(-1940 -1163)" fill="red"/>
    <rect id="矩形_24" data-name="矩形 24" width="2" height="28.839" transform="translate(104.323 178.359)" fill="red"/>
    <rect id="矩形_25" data-name="矩形 25" width="15.25" height="2" transform="translate(97.698 183.072)" fill="red"/>
  </g>
</svg>
