<svg xmlns="http://www.w3.org/2000/svg" width="48.046" height="48.3" viewBox="0 0 48.046 48.3">
  <g id="_050002" data-name="050002" transform="translate(-81.699 -260.287)">
    <path id="路径_71" data-name="路径 71" d="M2045.6,1471.587a23.9,23.9,0,1,1,23.9-23.9A23.927,23.927,0,0,1,2045.6,1471.587Zm0-45.8a21.9,21.9,0,1,0,21.9,21.9A21.924,21.924,0,0,0,2045.6,1425.787Z" transform="translate(-1940 -1163)" fill="red"/>
    <rect id="矩形_26" data-name="矩形 26" width="48" height="2" transform="translate(81.745 260.287)" fill="red"/>
    <path id="路径_77" data-name="路径 77" d="M2061.745,1454.656l-35.649-8.823,35.649-8.824Zm-27.325-8.823,25.325,6.268v-12.537Z" transform="translate(-1940 -1163)" fill="red"/>
    <rect id="矩形_27" data-name="矩形 27" width="9" height="2" transform="translate(111.745 282.287)" fill="red"/>
    <path id="路径_78" data-name="路径 78" d="M2044.42,1446.433l4.162-1.335,4.163-1.335v5.341l-4.163-1.335Z" transform="translate(-1940 -1163)" fill="red"/>
  </g>
</svg>
