<svg xmlns="http://www.w3.org/2000/svg" width="46.888" height="46.889" viewBox="0 0 46.888 46.889">
  <g id="_050007" data-name="050007" transform="translate(-82.857 -699.921)">
    <path id="路径_87" data-name="路径 87" d="M2065.477,1890.771H2031.6v-12.155h21.722Zm-31.877-2h27.048l-8.154-8.155H2033.6Z" transform="translate(-1940 -1163)" fill="red"/>
    <path id="路径_88" data-name="路径 88" d="M2052.908,1880.885v8.885h8.885Z" transform="translate(-1940 -1163)" fill="red"/>
    <rect id="矩形_32" data-name="矩形 32" width="6.545" height="1" transform="translate(102.987 721.828)" fill="red"/>
    <rect id="矩形_33" data-name="矩形 33" width="1" height="4.94" transform="translate(109.033 719.498)" fill="red"/>
    <path id="路径_89" data-name="路径 89" d="M2043.389,1882.789l-6.346,2.539,6.346,1.863Z" transform="translate(-1940 -1163)" fill="red"/>
    <path id="路径_90" data-name="路径 90" d="M2046.3,1909.81a23.445,23.445,0,1,1,23.444-23.444A23.471,23.471,0,0,1,2046.3,1909.81Zm0-44.889a21.445,21.445,0,1,0,21.444,21.445A21.469,21.469,0,0,0,2046.3,1864.921Z" transform="translate(-1940 -1163)" fill="red"/>
  </g>
</svg>
