<svg xmlns="http://www.w3.org/2000/svg" width="56" height="20.514" viewBox="0 0 56 20.514">
  <path id="_050020" data-name="050020" d="M2396.831,1362.8h-36.172a9.925,9.925,0,0,1-9.914-9.914v-.686a9.925,9.925,0,0,1,9.914-9.914h36.172a9.925,9.925,0,0,1,9.914,9.914v.686A9.925,9.925,0,0,1,2396.831,1362.8Zm-36.172-18.514a7.923,7.923,0,0,0-7.914,7.914v.686a7.923,7.923,0,0,0,7.914,7.914h36.172a7.923,7.923,0,0,0,7.914-7.914v-.686a7.923,7.923,0,0,0-7.914-7.914Z" transform="translate(-2350.745 -1342.287)" fill="red"/>
</svg>
