<?xml version="1.0" standalone="no"?><!DOCTYPE svg PUBLIC "-//W3C//DTD SVG 1.1//EN" "http://www.w3.org/Graphics/SVG/1.1/DTD/svg11.dtd"><svg t="1692173112052" class="icon" viewBox="0 0 1024 1024" version="1.1" xmlns="http://www.w3.org/2000/svg" p-id="6393" xmlns:xlink="http://www.w3.org/1999/xlink" width="200" height="200"><path d="M46.331748 1023.999186a37.898914 37.898914 0 0 1-9.474729-1.139572 40.454811 40.454811 0 0 1-31.370793-35.977921c-23.214713-277.892809 28.391626-488.062473 153.353852-624.648335 115.080508-125.678529 267.718058-160.028489 368.586473-167.842698V40.548419A40.699005 40.699005 0 0 1 552.220385 3.26813a41.512986 41.512986 0 0 1 44.361916 7.814209L1011.940071 399.839239a40.259456 40.259456 0 0 1 12.828326 29.46608 40.796683 40.796683 0 0 1-12.828326 29.46608L596.582301 847.365503a41.512986 41.512986 0 0 1-44.361916 7.814209 40.601328 40.601328 0 0 1-24.793834-37.280289v-136.585863c-292.739806 80.095643-444.530817 320.708163-446.061099 323.312899a41.089716 41.089716 0 0 1-35.033704 19.372727zM609.410628 134.64452v98.328797a40.699005 40.699005 0 0 1-40.292016 40.536209c-82.879455 1.465164-238.512451 21.977463-349.490499 143.260499-92.90769 101.421922-139.011523 253.961794-137.562638 454.038105 84.116704-94.421693 243.217256-233.775087 478.262152-280.497546a41.35019 41.35019 0 0 1 34.056928 8.465393 40.194338 40.194338 0 0 1 15.026073 31.256837v93.770508l314.717269-294.498003z" fill="#ff1a1a" p-id="6394"></path></svg>