<?xml version="1.0" standalone="no"?><!DOCTYPE svg PUBLIC "-//W3C//DTD SVG 1.1//EN" "http://www.w3.org/Graphics/SVG/1.1/DTD/svg11.dtd"><svg t="1692173147647" class="icon" viewBox="0 0 1024 1024" version="1.1" xmlns="http://www.w3.org/2000/svg" p-id="6592" xmlns:xlink="http://www.w3.org/1999/xlink" width="200" height="200"><path d="M255.17 691.836L0 399.053l283.439 3.238-4.986 51.797c105.051 62.652 261.6 109.477 263.203 109.951L569 572.154l-23.779 15.75c-1.746 1.156-43.703 28.508-123.395 43.094-2.105 0.393-8.635 1.607-33.219 1.607-7.814 0-16.57-0.119-26.027-0.354l-0.727-0.018c-46.258-0.006-80.719-3.922-98.814-6.588l-7.869 66.191zM59.117 426.357L235.813 629.1l4.145-34.861 14.195 2.922c0.402 0.082 41.758 8.385 107.066 8.447h0.746c0.082 0 0.525 0.006 1.277 0.025 9.236 0.23 17.77 0.346 25.365 0.346 19.971 0 26.504-0.814 28.387-1.164 37.881-6.936 66.664-16.979 85.775-25.152-53.623-17.666-164.605-57.338-245.363-107.201l-7.053-4.354 3.805-39.521-195.041-2.23z" fill="#ff1a1a" p-id="6593"></path><path d="M437.326 660.076l-2.568-26.469c51.975-7.711 116.537-41.229 178.57-76.314 69.641-40.953 113.064-75.404 160.131-115.068l-15.045-29.463L1024 332.164 845.262 591.859l-15.92-28.932c-22.738 11.871-73.604 37.783-108.748 50.834-70.381 26.157-208.016 42.831-283.268 46.315z m359.278-231.078l10.172 19.922-8.051 6.818c-49.525 41.941-96.65 80.264-171.994 124.564l-0.193 0.113c-26.877 15.201-54.266 30.127-81.16 42.967 61.027-7.854 125.951-19.721 165.943-34.584 43.816-16.27 116.357-55.094 117.084-55.484l11.607-6.227 7.777 14.135 111.143-161.486-162.328 49.262z" fill="#ff1a1a" p-id="6594"></path></svg>