<svg xmlns="http://www.w3.org/2000/svg" width="44.911" height="44.911" viewBox="0 0 44.911 44.911">
  <g id="_080005" data-name="080005" transform="translate(-1586.834 -513.836)">
    <path id="路径_198" data-name="路径 198" d="M3564.656,1733.2h-44.911v-44.911h44.911Zm-43.184-1.727h41.457v-41.456h-41.457Z" transform="translate(-1932.911 -1174.451)" fill="red"/>
    <path id="路径_200" data-name="路径 200" d="M3534.572,1721.76a8.7,8.7,0,1,1,0-17.4l.25,0a8.7,8.7,0,0,1-.25,17.4Zm0-15.675a6.962,6.962,0,1,0,.2,0Z" transform="translate(-1933.746 -1176.642)" fill="red"/>
    <rect id="矩形_149" data-name="矩形 149" width="16.494" height="1.727" transform="translate(1601.051 527.716)" fill="red"/>
    <rect id="矩形_150" data-name="矩形 150" width="16.72" height="1.727" transform="translate(1608.663 535.553)" fill="red"/>
    <rect id="矩形_151" data-name="矩形 151" width="16.571" height="1.727" transform="translate(1600.975 543.391)" fill="red"/>
    <path id="路径_201" data-name="路径 201" d="M3535.345,1717.188a3.574,3.574,0,1,1,3.574-3.574A3.578,3.578,0,0,1,3535.345,1717.188Zm0-5.42a1.846,1.846,0,1,0,1.847,1.846A1.848,1.848,0,0,0,3535.345,1711.767Z" transform="translate(-1934.551 -1177.417)" fill="red"/>
  </g>
</svg>
