<svg xmlns="http://www.w3.org/2000/svg" width="44.911" height="44.911" viewBox="0 0 44.911 44.911">
  <g id="_080002" data-name="080002" transform="translate(-1586.834 -261.2)">
    <rect id="矩形_141" data-name="矩形 141" width="6.929" height="1.79" transform="translate(1605.81 275.689)" fill="red"/>
    <path id="路径_189" data-name="路径 189" d="M3550.49,1462.182h-8.719V1439.85l4.36-7.494,4.359,7.494Zm-6.929-1.79h5.139v-20.059l-2.569-4.417-2.57,4.417Z" transform="translate(-1936.857 -1163.855)" fill="red"/>
    <path id="路径_190" data-name="路径 190" d="M3541.814,1455.271l-6.122,9.184h6.337Z" transform="translate(-1936.219 -1166.259)" fill="red"/>
    <path id="路径_191" data-name="路径 191" d="M3551.081,1464.455l.215-9.184,6.122,9.184" transform="translate(-1937.833 -1166.259)" fill="red"/>
    <path id="路径_195" data-name="路径 195" d="M3544.028,1469.111a22.456,22.456,0,1,1,22.455-22.455A22.481,22.481,0,0,1,3544.028,1469.111Zm0-43.121a20.665,20.665,0,1,0,20.665,20.666A20.689,20.689,0,0,0,3544.028,1425.99Z" transform="translate(-1934.738 -1163)" fill="red"/>
  </g>
</svg>
