<svg xmlns="http://www.w3.org/2000/svg" width="56" height="12" viewBox="0 0 56 12">
  <g id="_080010" data-name="080010" transform="translate(-1753.245 -986.786)">
    <path id="路径_213" data-name="路径 213" d="M3721.534,2161.786a6,6,0,1,1,6-6A6.007,6.007,0,0,1,3721.534,2161.786Zm0-11a5,5,0,1,0,5,5A5.006,5.006,0,0,0,3721.534,2150.786Z" transform="translate(-1940 -1163)" fill="red"/>
    <rect id="矩形_162" data-name="矩形 162" width="10.649" height="1" transform="translate(1781.885 986.786)" fill="red"/>
    <rect id="矩形_163" data-name="矩形 163" width="10.74" height="1" transform="translate(1782.26 997.786)" fill="red"/>
    <rect id="矩形_164" data-name="矩形 164" width="1" height="8.269" transform="translate(1753.245 988.444)" fill="red"/>
    <rect id="矩形_165" data-name="矩形 165" width="17.425" height="1" transform="translate(1754.17 992.078)" fill="red"/>
    <rect id="矩形_166" data-name="矩形 166" width="7.623" height="1" transform="translate(1800.774 992.286)" fill="red"/>
    <rect id="矩形_167" data-name="矩形 167" width="1" height="7.689" transform="translate(1808.245 989.023)" fill="red"/>
    <rect id="矩形_168" data-name="矩形 168" width="9.539" height="1" transform="translate(1787.63 992.368)" fill="red"/>
    <rect id="矩形_169" data-name="矩形 169" width="5.79" height="1" transform="translate(1755.482 994.892)" fill="red"/>
    <rect id="矩形_170" data-name="矩形 170" width="5.79" height="1" transform="translate(1762.429 994.892)" fill="red"/>
    <rect id="矩形_171" data-name="矩形 171" width="5.79" height="1" transform="translate(1769.376 994.892)" fill="red"/>
    <rect id="矩形_172" data-name="矩形 172" width="5.79" height="1" transform="translate(1790.797 994.892)" fill="red"/>
    <rect id="矩形_173" data-name="矩形 173" width="5.789" height="1" transform="translate(1797.745 994.892)" fill="red"/>
    <rect id="矩形_174" data-name="矩形 174" width="4.053" height="1" transform="translate(1804.692 994.892)" fill="red"/>
    <rect id="矩形_175" data-name="矩形 175" width="2.895" height="1" transform="translate(1786.166 994.892)" fill="red"/>
  </g>
</svg>
