<svg xmlns="http://www.w3.org/2000/svg" width="21.856" height="52.258" viewBox="0 0 21.856 52.258">
  <g id="_080007" data-name="080007" transform="translate(-1768.769 -702.206)">
    <path id="路径_203" data-name="路径 203" d="M3711.49,1917.464l-1.968-.354,5.766-31.975h-6.519l11.571-19.928,10.285,19.928h-5.9l5.244,31.991-1.974.323-5.625-34.314h4.97l-7.105-13.767-7.994,13.767h5.438Z" transform="translate(-1940 -1163)" fill="red"/>
    <rect id="矩形_153" data-name="矩形 153" width="3.238" height="1" transform="translate(1778.442 739.34)" fill="red"/>
    <path id="路径_204" data-name="路径 204" d="M3722.18,1913.081h-4.238v-10.539l2.119-3.641,2.119,3.641Zm-3.238-1h2.238v-9.269l-1.119-1.923-1.119,1.923Z" transform="translate(-1940 -1163)" fill="red"/>
    <path id="路径_205" data-name="路径 205" d="M3718.342,1908.648l-2.861,4.433h2.961Z" transform="translate(-1940 -1163)" fill="red"/>
    <path id="路径_206" data-name="路径 206" d="M3721.917,1913.081l.1-4.433,2.861,4.433" transform="translate(-1940 -1163)" fill="red"/>
  </g>
</svg>
