<svg xmlns="http://www.w3.org/2000/svg" width="41.457" height="41.456" viewBox="0 0 41.457 41.456">
  <g id="_080004" data-name="080004" transform="translate(-1587.698 -441.287)">
    <path id="路径_197" data-name="路径 197" d="M3562.2,1645.743h-41.457v-41.456H3562.2Zm-39.729-1.727h38v-38h-38Z" transform="translate(-1933.047 -1163)" fill="red"/>
    <path id="路径_202" data-name="路径 202" d="M3542.634,1639.1a10.6,10.6,0,0,1-8.063-3.4,15,15,0,0,1-3.975-13.083c.583-3.076,2.114-5.546,4-6.447l.559-.267,18.916,19.358-.883.574C3553.109,1635.885,3548.069,1639.1,3542.634,1639.1Zm-7.8-21.056a8.143,8.143,0,0,0-2.538,4.891,13.263,13.263,0,0,0,3.541,11.585c4.979,5.344,12.819,1.838,15.486.4Z" transform="translate(-1934.356 -1164.584)" fill="red"/>
    <rect id="矩形_152" data-name="矩形 152" width="14.898" height="1.727" transform="translate(1608.555 460.502) rotate(-44.565)" fill="red"/>
  </g>
</svg>
