<svg xmlns="http://www.w3.org/2000/svg" width="57" height="22.373" viewBox="0 0 57 22.373">
  <g id="_080008" data-name="080008" transform="translate(-1750.745 -800.286)">
    <rect id="矩形_154" data-name="矩形 154" width="1" height="3.678" transform="translate(1773.426 808.843)" fill="red"/>
    <path id="路径_207" data-name="路径 207" d="M3725.491,1976.021h-11.885l-4.02-2.339,4.02-2.339h11.885Zm-11.616-1h10.616v-2.678h-10.616l-2.3,1.339Z" transform="translate(-1940 -1163)" fill="red"/>
    <path id="路径_208" data-name="路径 208" d="M3720.523,1975.635l4.969,3.25v-3.364Z" transform="translate(-1940 -1163)" fill="red"/>
    <path id="路径_209" data-name="路径 209" d="M3725.491,1971.573l-4.969-.114,4.969-3.25" transform="translate(-1940 -1163)" fill="red"/>
    <rect id="矩形_155" data-name="矩形 155" width="56.796" height="2" transform="translate(1750.949 800.286)" fill="red"/>
    <rect id="矩形_156" data-name="矩形 156" width="56.796" height="2" transform="translate(1750.949 820.659)" fill="red"/>
    <rect id="矩形_157" data-name="矩形 157" width="13.762" height="2" transform="translate(1793.983 809.682)" fill="red"/>
    <rect id="矩形_158" data-name="矩形 158" width="6.173" height="2" transform="translate(1758.357 809.682)" fill="red"/>
    <path id="路径_210" data-name="路径 210" d="M3698.974,1971.077v4.645l-8.229-2.041Z" transform="translate(-1940 -1163)" fill="red"/>
  </g>
</svg>
