<svg xmlns="http://www.w3.org/2000/svg" width="27" height="27" viewBox="0 0 27 27">
  <g id="_8005" data-name="8005" transform="translate(-685 -485)">
    <path id="路径_231" data-name="路径 231" d="M698.5,485A13.5,13.5,0,1,0,712,498.5,13.515,13.515,0,0,0,698.5,485Zm0,25A11.5,11.5,0,1,1,710,498.5,11.513,11.513,0,0,1,698.5,510Z" fill="red"/>
    <path id="路径_232" data-name="路径 232" d="M696.28,493.912l1.55.173-2.156,6.163-2.285-6.179,1.438-.142v-.52h-4.313v.5l.974.126,3.387,8.259-.032.1a5.885,5.885,0,0,1-1.709,2.6l-.176-.174a1.727,1.727,0,0,0-1.311-.725,1.132,1.132,0,0,0-1.166.788c.016.662.767,1.119,1.6,1.119,1.2,0,2.412-1.04,3.467-3.861l3.1-8.071.99-.157v-.5H696.28Z" fill="red"/>
    <path id="路径_233" data-name="路径 233" d="M707.036,499.7a2.842,2.842,0,0,1-2.4,1.23c-1.694,0-2.892-1.277-2.892-3.531,0-2.286,1.07-3.609,2.62-3.609a2.619,2.619,0,0,1,.847.126l.288,1.213c.111.646.447.978,1.006.978a.8.8,0,0,0,.846-.678,2.994,2.994,0,0,0-3.115-2.254,4.17,4.17,0,0,0-4.281,4.4c0,2.712,1.678,4.367,4.058,4.367a3.374,3.374,0,0,0,3.355-2.081Z" fill="red"/>
  </g>
</svg>
