<svg xmlns="http://www.w3.org/2000/svg" width="38.224" height="40.727" viewBox="0 0 38.224 40.727">
  <path id="_8006" data-name="8006" d="M701.367,572.584h5.32l-2.224,2.1,1.373,1.454,3.765-3.554h3.086l-2.224,2.1,1.373,1.454,7.851-7.411-1.374-1.454-3.507,3.311h-3.087l1.968-1.857-1.374-1.454-3.507,3.311H694.719l1.968-1.857-1.374-1.454-3.507,3.311h-3.087l1.968-1.857-1.374-1.454-7.85,7.411,1.373,1.454,3.765-3.554h3.086l-2.224,2.1,1.373,1.454,3.765-3.554h6.766V590.66L686.017,608h28.7l-13.352-17.34ZM690.081,606l10.286-13.361L710.654,606Z" transform="translate(-681.463 -567.273)" fill="red"/>
</svg>
