<svg xmlns="http://www.w3.org/2000/svg" width="51.224" height="40.727" viewBox="0 0 51.224 40.727">
  <g id="_8007" data-name="8007" transform="translate(-673.463 -649.273)">
    <path id="路径_258" data-name="路径 258" d="M700.609,685.343Z" fill="red"/>
    <path id="路径_259" data-name="路径 259" d="M709.367,654.584h2.32l-2.224,2.1,1.373,1.454,3.765-3.554h3.086l-2.224,2.1,1.373,1.454,7.851-7.411-1.374-1.454-3.507,3.311h-3.087l1.968-1.857-1.374-1.454-3.507,3.311H686.719l1.968-1.857-1.374-1.454-3.507,3.311h-3.087l1.968-1.857-1.374-1.454-7.85,7.411,1.373,1.454,3.765-3.554h3.086l-2.224,2.1,1.373,1.454,3.765-3.554h6.766V672.66L678.017,690h44.7l-13.352-17.34Zm-16,0h14V672.66l-7,9.091-7-9.091ZM700,688H682.081l10.286-13.361,6.738,8.752,1.5,1.952L702.654,688Zm18.654,0H705.179l-3.549-4.609,6.737-8.752Z" fill="red"/>
  </g>
</svg>
