<svg xmlns="http://www.w3.org/2000/svg" width="48.721" height="51.178" viewBox="0 0 48.721 51.178">
  <g id="_8008" data-name="8008" transform="translate(-675.984 -726.811)">
    <rect id="矩形_160" data-name="矩形 160" width="14" height="2" transform="translate(696 746)" fill="red"/>
    <rect id="矩形_161" data-name="矩形 161" width="14" height="2" transform="translate(696 757)" fill="red"/>
    <path id="路径_235" data-name="路径 235" d="M724.705,758.648l-6.605-6.572,6.53-5.3-1.26-1.553L716.25,751H688v2h28.192l7.1,7.066Z" fill="red"/>
    <path id="路径_236" data-name="路径 236" d="M702.013,770.227c-.73-.01-17.878-.45-17.878-17.549,0-17.156,17.206-18.626,17.938-18.68l.927-.069v-7.118h-2v5.307a27.883,27.883,0,0,0-5.931,1.612l-3.216-5.252-1.706,1.044,3.076,5.022a21.211,21.211,0,0,0-5.555,3.872l-3.844-3.654-1.379,1.449,3.873,3.682a17.706,17.706,0,0,0-2.842,4.948l-5.949-3.691-1.054,1.7,6.379,3.958a22.771,22.771,0,0,0-.7,5.094l-6.173.1.032,2,6.153-.1a22.1,22.1,0,0,0,.668,4.561l-5.284,2.642.894,1.79,5.008-2.5a16.405,16.405,0,0,0,2.83,4.8l-3.9,3.013,1.222,1.582,4.067-3.145a19.573,19.573,0,0,0,5.606,3.568l-3.089,4.193,1.61,1.186,3.424-4.648A26.9,26.9,0,0,0,701,772.162v5.827h2v-7.748Z" fill="red"/>
  </g>
</svg>
