<svg xmlns="http://www.w3.org/2000/svg" width="28.09" height="51.179" viewBox="0 0 28.09 51.179">
  <g id="_8014" data-name="8014" transform="translate(-1155.91 -313.805)">
    <path id="路径_243" data-name="路径 243" d="M1181.938,357.222c-.729-.011-17.877-.45-17.877-17.549,0-17.156,17.206-18.627,17.938-18.681l.927-.069V313.8h-2v5.307a27.837,27.837,0,0,0-5.931,1.613l-3.217-5.253-1.7,1.045,3.075,5.022a21.179,21.179,0,0,0-5.554,3.871l-3.844-3.654-1.379,1.45,3.873,3.681a17.731,17.731,0,0,0-2.843,4.949l-5.948-3.691-1.055,1.7,6.38,3.959a22.753,22.753,0,0,0-.695,5.093l-6.173.1.031,2,6.154-.1a22.023,22.023,0,0,0,.668,4.561l-5.284,2.643.894,1.789,5.007-2.5a16.47,16.47,0,0,0,2.83,4.806l-3.9,3.013,1.223,1.582,4.067-3.145a19.6,19.6,0,0,0,5.606,3.568l-3.089,4.192,1.609,1.187,3.425-4.648a26.954,26.954,0,0,0,5.771,1.217v5.827h2v-7.748Z" fill="red"/>
    <path id="路径_244" data-name="路径 244" d="M1168.022,339.1v.877a2.414,2.414,0,1,0,4.827,0V339.1a2.414,2.414,0,1,0-4.827,0Zm3.858,0v.877a1.445,1.445,0,0,1-2.89,0V339.1a1.445,1.445,0,1,1,2.89,0Z" fill="red"/>
    <path id="路径_245" data-name="路径 245" d="M1184,336.011l-.111-.134a2.24,2.24,0,0,0-1.584-.871,3.326,3.326,0,0,0-2.19.818l.643.723a2.389,2.389,0,0,1,1.473-.575,1.223,1.223,0,0,1,.8.4v1.736a2.15,2.15,0,0,0-2.943.482l-.087.118a2.151,2.151,0,0,0,3.454,2.563l.086-.116a2.133,2.133,0,0,0,.411-1.372H1184Zm-1.237,4.567-.085.115a1.182,1.182,0,0,1-1.9-1.409l.087-.117a1.182,1.182,0,1,1,1.9,1.411Z" fill="red"/>
    <path id="路径_246" data-name="路径 246" d="M1178.211,342.12a.714.714,0,0,0,.485.17,1.812,1.812,0,0,0,.673-.166l-.376-.893-.03.012v-3.6l-.068-.116a1.666,1.666,0,0,0-1.2-.858,2.489,2.489,0,0,0-1.711.526,1.8,1.8,0,0,0-1.143-.46h-.008a1.572,1.572,0,0,0-.968.373,1.6,1.6,0,0,0-.781-.477l-.229.94c.063.017.373.114.373.407l.006,3.353a1.263,1.263,0,0,1-.261.022v.968a1.3,1.3,0,0,0,1.048-.365.666.666,0,0,0,.175-.488v-3.334a.935.935,0,0,1,.639-.43c.245-.021.553.237.7.4v3.864h.969v-3.958a1.609,1.609,0,0,1,1.049-.384.637.637,0,0,1,.438.3v3.58A.684.684,0,0,0,1178.211,342.12Z" fill="red"/>
  </g>
</svg>
