<svg xmlns="http://www.w3.org/2000/svg" width="36.533" height="63.585" viewBox="0 0 36.533 63.585">
  <path id="_8015" data-name="8015" d="M1197.219,416.247c-3.063,2.672-4.807,4.21-5.777,5.158-.806-.958-2.24-2.493-4.717-5.094l-.707-.743-6,6L1175.632,417h-6.2V398.412l9.21-7.873-.636-.745.207-.167-3.435-4.255-1.556,1.256,2.824,3.5-3.078,2.631-3.219-3.642-1.5,1.324,3.2,3.617-2.992,2.558-3.471-3.194-1.353,1.472,3.8,3.5V401H1162v12h5.432v4H1162v2h5.432v5H1162v2h5.432v5H1162v2h5.432v3.254l-4.13,4.03,1.4,1.432,3.715-3.625,2.445,2.515-3.577,3.7,1.438,1.39,3.534-3.654,2.347,2.413-3.06,3.1,1.422,1.406,4.438-4.492-7.968-8.2V419h5.346l5.207,5.429,6-6c1.953,2.067,3.9,4.195,4.4,4.845l.024.067.256.655,1.367-.008.252-.588c.652-.692,3.584-3.323,6.251-5.651Z" transform="translate(-1162 -385.372)" fill="red"/>
</svg>
