<svg xmlns="http://www.w3.org/2000/svg" width="63.512" height="20.399" viewBox="0 0 63.512 20.399">
  <path id="_8018" data-name="8018" d="M1220.725,671h-5.39l-7.548-9.617-1.574,1.234,6.58,8.383h-7.458l-7.548-9.617-1.574,1.234,6.58,8.383h-7.458l-7.548-9.617-1.574,1.234,6.58,8.383h-6.458l-7.548-9.617-1.574,1.234,6.58,8.383h-7.458l-7.548-9.617-1.574,1.234,6.58,8.383h-7.458l-7.548-9.617-1.574,1.234,6.58,8.383H1160v2h3.67l-6.429,7.478,1.518,1.3,7.549-8.782h7.363l-6.429,7.478,1.518,1.3,7.549-8.782h7.363l-6.429,7.478,1.518,1.3,7.549-8.782h6.363l-6.429,7.478,1.518,1.3,7.549-8.782h7.363l-6.429,7.478,1.518,1.3,7.549-8.782h7.363l-6.429,7.478,1.518,1.3,7.549-8.782h5.417Z" transform="translate(-1157.213 -661.383)" fill="red"/>
</svg>
