<svg xmlns="http://www.w3.org/2000/svg" width="72.374" height="21.546" viewBox="0 0 72.374 21.546">
  <path id="_8019" data-name="8019" d="M1218.124,754h-1.709l-9.708-9.707-.98.98c-.077-.005-.149-.023-.227-.023a3.5,3.5,0,1,0,3.439,4.1l4.647,4.647h-9.171l-9.708-9.707-1.263,1.263a3.245,3.245,0,1,0,3.694,4l4.448,4.448h-7.171l-9.708-9.707-.98.98c-.077-.005-.149-.023-.227-.023a3.5,3.5,0,1,0,3.439,4.1l4.647,4.647h-9.171l-9.708-9.707-1.263,1.263a3.245,3.245,0,1,0,3.694,4l4.448,4.448h-7.171l-9.708-9.707-1.141,1.141a3.426,3.426,0,0,0-1.066-.184,3.5,3.5,0,1,0,3.5,3.5,3.31,3.31,0,0,0-.038-.374l5.624,5.624h-9.171l-9.708-9.707-1.253,1.253a3.217,3.217,0,0,0-.454-.046,3.25,3.25,0,1,0,3.25,3.25c0-.033-.009-.063-.01-.1l5.346,5.346H1148v2h9.851l-5.141,5.141a3.359,3.359,0,0,0,.04-.391,3.5,3.5,0,1,0-3.5,3.5,3.371,3.371,0,0,0,.391-.04l-.215.215,1.414,1.414,9.839-9.839h9.172l-6.215,6.215a3.215,3.215,0,0,0,.364-1.465,3.25,3.25,0,1,0-3.25,3.25,3.214,3.214,0,0,0,1.465-.364l-.789.789,1.414,1.414,4.927-4.926a3.5,3.5,0,0,0,3.483,3.337,3.371,3.371,0,0,0,.391-.04l-.215.215,1.414,1.414,9.839-9.839h9.172l-6.215,6.215a3.215,3.215,0,0,0,.364-1.465,3.25,3.25,0,1,0-3.25,3.25,3.214,3.214,0,0,0,1.465-.364l-.789.789,1.414,1.414,6.066-6.066a3.435,3.435,0,0,0-.156.977,3.5,3.5,0,0,0,2.911,3.44l-.235.235,1.414,1.414,9.839-9.839h9.172l-4.862,4.862c0-.038.011-.073.011-.112a3.25,3.25,0,1,0-3.25,3.25c.039,0,.074-.01.112-.011l-.436.436,1.414,1.414,9.839-9.839h1.445Zm-12.624-3.75a1.5,1.5,0,1,1,1.5-1.5A1.5,1.5,0,0,1,1205.5,750.25Zm-22,0a1.5,1.5,0,1,1,1.5-1.5A1.5,1.5,0,0,1,1183.5,750.25Zm-23,0a1.5,1.5,0,1,1,1.5-1.5A1.5,1.5,0,0,1,1160.5,750.25Zm-12.75,10.5a1.5,1.5,0,1,1,1.5,1.5A1.5,1.5,0,0,1,1147.75,760.75Zm22,0a1.5,1.5,0,1,1,1.5,1.5A1.5,1.5,0,0,1,1169.75,760.75Zm4.96.391a3.359,3.359,0,0,0,.04-.391,3.5,3.5,0,0,0-3.337-3.483l1.266-1.267h7.172Zm18.04-.391a1.5,1.5,0,1,1,1.5,1.5A1.5,1.5,0,0,1,1192.75,760.75Zm4.94-.589a3.5,3.5,0,0,0-3.44-2.911,3.438,3.438,0,0,0-.977.156l1.406-1.406h7.172Z" transform="translate(-1145.75 -744.293)" fill="red"/>
</svg>
