<svg xmlns="http://www.w3.org/2000/svg" width="35.406" height="37.396" viewBox="0 0 35.406 37.396">
  <g id="_8022" data-name="8022" transform="translate(-1167.262 -980)">
    <path id="路径_254" data-name="路径 254" d="M1199.954,989.227c-.253-.287-.495-.563-.709-.838-1.725-2.233-5.9-.952-7.246-.459a12.066,12.066,0,0,1-3.019-2.274,13.381,13.381,0,0,0-5.738-3.626c-1.482-.371-2.533-.739-3.461-1.064A12.763,12.763,0,0,0,1175,980c-3.084,0-5.1,3.165-6.307,5.056-.192.3-.362.569-.508.777-1.289,1.816-1.145,10.484-.08,12.614.44.878,1.215,2.078,2.114,3.469a70.977,70.977,0,0,1,3.886,6.531c2.15,4.3,6.4,6.425,8.448,7.448a10.416,10.416,0,0,0,4.447.6,9.328,9.328,0,0,1,3.553.4,4.954,4.954,0,0,0,2.2.5,5.051,5.051,0,0,0,2.639-.723A3.146,3.146,0,0,0,1197,1014a6.3,6.3,0,0,1,1.118-2.808A4.7,4.7,0,0,0,1199,1009c0-.838,1.11-4.167,2.948-9.684C1203.839,993.646,1201.594,991.092,1199.954,989.227Zm.1,9.457c-2.158,6.474-3.052,9.154-3.051,10.3a5.92,5.92,0,0,1-.609,1.2A7.832,7.832,0,0,0,1195,1014a1.2,1.2,0,0,1-.654.972,3.169,3.169,0,0,1-2.9.133,10.416,10.416,0,0,0-4.447-.6,9.328,9.328,0,0,1-3.553-.4c-1.993-1-5.7-2.85-7.552-6.552a72.526,72.526,0,0,0-4-6.723c-.866-1.341-1.614-2.5-2-3.277-.883-1.766-.791-9.527-.08-10.564.164-.23.352-.524.565-.858.985-1.545,2.633-4.131,4.62-4.131a10.861,10.861,0,0,1,4.12.854c.92.322,2.065.723,3.638,1.116a11.66,11.66,0,0,1,4.87,3.159,11.824,11.824,0,0,0,4.056,2.82l.35.116.343-.139c1.7-.688,4.551-1.264,5.286-.315.237.308.507.616.789.937C1199.989,992.3,1201.578,994.1,1200.052,998.684Z" fill="red"/>
    <circle id="椭圆_10" data-name="椭圆 10" cx="2.5" cy="2.5" r="2.5" transform="translate(1176 991)" fill="red"/>
    <circle id="椭圆_11" data-name="椭圆 11" cx="2.5" cy="2.5" r="2.5" transform="translate(1190 993)" fill="red"/>
    <circle id="椭圆_12" data-name="椭圆 12" cx="2.5" cy="2.5" r="2.5" transform="translate(1184 1004)" fill="red"/>
  </g>
</svg>
