<svg xmlns="http://www.w3.org/2000/svg" width="35.856" height="16.961" viewBox="0 0 35.856 16.961">
  <g id="_8023" data-name="8023" transform="translate(-1630.144 -128.039)">
    <path id="路径_256" data-name="路径 256" d="M1640.014,131.623l1.957-2.254-1.51-1.311-2.588,2.981a6.764,6.764,0,0,0-.729-.039c-.205,0-.405.013-.605.031l-2.73-2.992-1.477,1.349,2.01,2.2a7,7,0,1,0,5.672.034ZM1637.144,143a5,5,0,1,1,5-5A5.006,5.006,0,0,1,1637.144,143Z" fill="red"/>
    <path id="路径_257" data-name="路径 257" d="M1661.871,131.623l1.957-2.254-1.51-1.311-2.589,2.981A6.751,6.751,0,0,0,1659,131c-.2,0-.405.013-.6.031l-2.731-2.992-1.477,1.349,2.01,2.2a7,7,0,1,0,5.673.034ZM1659,143a5,5,0,1,1,5-5A5.006,5.006,0,0,1,1659,143Z" fill="red"/>
  </g>
</svg>
