<svg xmlns="http://www.w3.org/2000/svg" width="48.437" height="47.88" viewBox="0 0 48.437 47.88">
  <g id="_8026" data-name="8026" transform="translate(-2950.662 -835.88)">
    <path id="路径_154" data-name="路径 154" d="M2952.6,854.095l-1.937-.5a24.944,24.944,0,0,1,15.885-17.347l.666,1.884A22.956,22.956,0,0,0,2952.6,854.095Z" fill="red"/>
    <path id="路径_155" data-name="路径 155" d="M2966.613,883.429a25.075,25.075,0,0,1-15.679-16.392l1.916-.576a23.072,23.072,0,0,0,14.425,15.082Z" fill="red"/>
    <path id="路径_156" data-name="路径 156" d="M2982.131,883.76l-.58-1.914A22.938,22.938,0,0,0,2996.9,866.5l1.914.578A24.936,24.936,0,0,1,2982.131,883.76Z" fill="red"/>
    <path id="路径_157" data-name="路径 157" d="M2997.161,854.1a23.1,23.1,0,0,0-15.661-16.3l.574-1.916A25.118,25.118,0,0,1,2999.1,853.6Z" fill="red"/>
    <path id="路径_158" data-name="路径 158" d="M2963.923,855.02v20.6h15.935v-2h-13.935V855.953l15.957,7.446v-17.14l-18,8.4m16-5.259v10.858l-11.635-5.429Z" fill="red"/>
  </g>
</svg>
