<svg xmlns="http://www.w3.org/2000/svg" width="48.599" height="36.564" viewBox="0 0 48.599 36.564">
  <g id="_8034" data-name="8034" transform="translate(-416.551 -57.733)">
    <g id="组_67" data-name="组 67">
      <path id="路径_307" data-name="路径 307" d="M460.258,68.1H421.442l-4.892-9.452,1.775-.919,4.333,8.371h36.382l4.333-8.371,1.775.919Z" fill="red"/>
    </g>
    <path id="路径_308" data-name="路径 308" d="M444.95,78.868l-3.2-3.2,3.2-3.2-.9-.9-3.2,3.2-3.2-3.2-.9.9,3.2,3.2-3.2,3.2.9.9,3.2-3.2,3.2,3.2Z" fill="red"/>
    <path id="路径_309" data-name="路径 309" d="M424.75,78.868l-3.2-3.2,3.2-3.2-.9-.9-3.2,3.2-3.2-3.2-.9.9,3.2,3.2-3.2,3.2.9.9,3.2-3.2,3.2,3.2Z" fill="red"/>
    <path id="路径_310" data-name="路径 310" d="M465.149,78.868l-3.2-3.2,3.2-3.2-.9-.9-3.2,3.2-3.2-3.2-.9.9,3.2,3.2-3.2,3.2.9.9,3.2-3.2,3.2,3.2Z" fill="red"/>
    <g id="组_68" data-name="组 68">
      <path id="路径_311" data-name="路径 311" d="M421.442,83.926h38.815l4.892,9.452-1.775.919-4.333-8.371H422.659L418.326,94.3l-1.775-.919Z" fill="red"/>
    </g>
  </g>
</svg>
