<svg xmlns="http://www.w3.org/2000/svg" width="48.3" height="47.856" viewBox="0 0 48.3 47.856">
  <g id="_8035" data-name="8035" transform="translate(-416.7 -125.003)">
    <path id="路径_312" data-name="路径 312" d="M440.85,141.643a5,5,0,0,0-4.995,4.995v14.2h9.99v-14.2A5,5,0,0,0,440.85,141.643Z" fill="red"/>
    <rect id="矩形_171" data-name="矩形 171" width="20.814" height="1.77" transform="translate(430.443 167.652)" fill="red"/>
    <rect id="矩形_172" data-name="矩形 172" width="16.863" height="1.062" transform="translate(432.418 164.793)" fill="red"/>
    <rect id="矩形_173" data-name="矩形 173" width="13.157" height="0.708" transform="translate(434.271 162.448)" fill="red"/>
    <path id="路径_313" data-name="路径 313" d="M457.85,170.859V142a17,17,0,1,0-34,0v28.856H416.7v2H465v-2Zm-25.563-10.018h1.739V146.424a6.824,6.824,0,1,1,13.648,0v14.417h1.707l5.286,9.706H427ZM425.85,142a15,15,0,1,1,30,0v28.544h-.044l-5.286-9.706h.012V142.877a9.683,9.683,0,0,0-19.365,0V160.8l-5.3,9.743h-.012Z" fill="red"/>
  </g>
</svg>
