<svg xmlns="http://www.w3.org/2000/svg" width="59.644" height="59.643" viewBox="0 0 59.644 59.643">
  <path id="_8036" data-name="8036" d="M440.85,201.1a29.825,29.825,0,0,0-29.414,24.92l-.068.053.048.061A29.821,29.821,0,1,0,440.85,201.1Zm-16.479,17.567c1.29.232,3.025.521,4.993.792-1.973.231-3.749.4-4.965.5Zm-3.285,3c-1.387,1.65-3.719,4.411-4.71,5.5-.681.752-2.162,2.261-3.34,3.451a27.821,27.821,0,0,1,.342-4.1c1.406-1.109,3.9-3.1,5.246-4.272.888-.777,1.955-1.878,2.791-2.773Zm-7.985,11.16c1.133-1.136,3.509-3.53,4.46-4.581.67-.738,1.9-2.182,3.069-3.557l-1.4,9.317-5.934.693Q413.166,233.772,413.1,232.827Zm5.016,7.239-.542,6.067a27.722,27.722,0,0,1-2.93-5.878Zm6.317-18.51c2.426-.2,7.193-.652,11.357-1.423a52.116,52.116,0,0,0,6.291.1,13.729,13.729,0,0,0,8.623-3.3L450,229.373l-25.307,3.92Zm43.333,2.323a26.7,26.7,0,0,1-3.884-2.419,68.576,68.576,0,0,1-9.822-10.367l-.037-.351a52.374,52.374,0,0,0,6.7,5.989,39.082,39.082,0,0,0,5.5,2.8A27.548,27.548,0,0,1,467.767,223.879Zm-16.926-9.334c-1.518,1.84-4.206,3.834-8.847,4.088-.271.015-.547.026-.825.034a48.842,48.842,0,0,0,9.783-6.071Zm3.525-.5a63.237,63.237,0,0,0,8.519,8.667,32.685,32.685,0,0,0,5.325,3.194c.047.256.1.511.138.77l-12.528,1.392ZM440.85,203.1a27.833,27.833,0,0,1,24.228,14.17,28.635,28.635,0,0,1-3.468-1.866,60.55,60.55,0,0,1-7.286-6.655.793.793,0,0,0-.89-.181l-2.248-.1-.113,2c-2.965,2.36-8.426,6.368-12.563,7.443-.858.223-1.807.427-2.8.614a113.158,113.158,0,0,1-11.376-1.492v-.011l-.265-.038c-1.049-.192-1.683-.323-1.709-.329l-.456-.1-.309.35c-.023.028-2.406,2.728-4.026,4.145-.909.8-2.4,2-3.69,3.035A27.87,27.87,0,0,1,440.85,203.1Zm-15.24,51.08L425.167,239l24.356-3.049-1.067,21.726a27.711,27.711,0,0,1-22.846-3.5Zm34.216-2.94-2.343-16.4,11.065-1.341A27.757,27.757,0,0,1,459.826,251.236Z" transform="translate(-411.028 -201.096)" fill="red"/>
</svg>
