<svg xmlns="http://www.w3.org/2000/svg" width="56.417" height="35.655" viewBox="0 0 56.417 35.655">
  <g id="_070001" data-name="070001" transform="translate(-1019.812 -171.957)">
    <path id="路径_162" data-name="路径 162" d="M3008,1370.612a8.066,8.066,0,0,1-4.175-1.179l-11.879-5.787a8.216,8.216,0,0,0-8.714.1l-10.893,5.532a7.85,7.85,0,0,1-9.726-.959,9.586,9.586,0,0,1-2.8-6.812c0-14.64,11.686-26.551,26.05-26.551h4.316c14.365,0,26.051,11.911,26.051,26.551a9.636,9.636,0,0,1-3.292,7.273A7.489,7.489,0,0,1,3008,1370.612Zm-20.33-10.266a10.335,10.335,0,0,1,5.354,1.5l11.88,5.787a5.653,5.653,0,0,0,6.666-.44,7.538,7.538,0,0,0,2.572-5.689c0-13.484-10.749-24.454-23.962-24.454h-4.316c-13.212,0-23.96,10.97-23.96,24.454a7.5,7.5,0,0,0,2.186,5.329,5.754,5.754,0,0,0,7.131.671l10.893-5.533A10.339,10.339,0,0,1,2987.668,1360.346Z" transform="translate(-1940 -1163)" fill="red"/>
    <path id="路径_164" data-name="路径 164" d="M2991.373,1359.117h-7.063v-12.444l3.531-5.865,3.532,5.865Zm-5.063-2h3.063v-9.888l-1.532-2.544-1.531,2.544Z" transform="translate(-1940 -1163)" fill="red"/>
    <rect id="矩形_114" data-name="矩形 114" width="8.891" height="2" transform="translate(1043.285 194.287)" fill="red"/>
    <rect id="矩形_115" data-name="矩形 115" width="5.063" height="2" transform="translate(1045.31 182.951)" fill="red"/>
  </g>
</svg>
