<svg xmlns="http://www.w3.org/2000/svg" width="55.895" height="42.725" viewBox="0 0 55.895 42.725">
  <g id="_070012" data-name="070012" transform="translate(-1276.101 -437.571)">
    <path id="路径_181" data-name="路径 181" d="M3217.39,1613.327l-1.289-1.53c.3-.254,30.5-25.169,55.9.056l-1.41,1.418C3246.476,1589.325,3217.677,1613.084,3217.39,1613.327Z" transform="translate(-1940 -1163)" fill="red"/>
    <path id="路径_182" data-name="路径 182" d="M3221.173,1628.2l-1.4-1.434c.5-.486,12.406-11.91,27.179-11.313,7.986.327,15.229,4.153,21.525,11.373l-1.507,1.314c-5.921-6.789-12.684-10.385-20.1-10.689C3232.959,1616.9,3221.29,1628.087,3221.173,1628.2Z" transform="translate(-1940 -1163)" fill="red"/>
    <path id="路径_183" data-name="路径 183" d="M3247.669,1643.191h-7.054v-12.9l3.472-5.344,3.582,5.319Zm-5.054-2h3.054v-10.31l-1.552-2.3-1.5,2.312Z" transform="translate(-1940 -1163)" fill="red"/>
    <path id="路径_184" data-name="路径 184" d="M3241.837,1643.3c-3.2,0-3.368-.137-3.606-.332l.635-.773.253-.961c.652.108,6.139.041,9.827-.039l.044,2C3245.656,1643.264,3243.39,1643.3,3241.837,1643.3Z" transform="translate(-1940 -1163)" fill="red"/>
    <rect id="矩形_136" data-name="矩形 136" width="5.055" height="2" transform="translate(1301.615 467.121)" fill="red"/>
    <rect id="矩形_137" data-name="矩形 137" width="12.216" height="2" transform="matrix(0.254, -0.967, 0.967, 0.254, 1307.488, 472.313)" fill="red"/>
    <rect id="矩形_138" data-name="矩形 138" width="7.089" height="2" transform="translate(1312.463 453.651) rotate(-74.742)" fill="red"/>
    <path id="路径_185" data-name="路径 185" d="M3256.675,1605.252l.3,3.643.3,3.643-2.419-.667-2.419-.667,2.122-2.976Z" transform="translate(-1940 -1163)" fill="red"/>
    <path id="路径_186" data-name="路径 186" d="M3253.024,1618.33l.257,3.632.258,3.632-2.34-.645-2.34-.645,2.082-2.987Z" transform="translate(-1940 -1163)" fill="red"/>
  </g>
</svg>
