<svg xmlns="http://www.w3.org/2000/svg" width="45.762" height="46.343" viewBox="0 0 45.762 46.343">
  <g id="_070005" data-name="070005" transform="translate(-1028.718 -522.821)">
    <path id="路径_168" data-name="路径 168" d="M2986.111,1732.309a22.569,22.569,0,1,1,22.57-22.569A22.595,22.595,0,0,1,2986.111,1732.309Zm0-43.354a20.784,20.784,0,1,0,20.786,20.784A20.808,20.808,0,0,0,2986.111,1688.955Z" transform="translate(-1934.512 -1163.146)" fill="red"/>
    <rect id="矩形_121" data-name="矩形 121" width="45.762" height="1.785" transform="translate(1028.718 522.821)" fill="red"/>
    <rect id="矩形_122" data-name="矩形 122" width="1.785" height="21.442" transform="translate(1048.298 535.756)" fill="red"/>
    <rect id="矩形_123" data-name="矩形 123" width="1.785" height="15.656" transform="translate(1061.545 539.369)" fill="red"/>
    <path id="路径_169" data-name="路径 169" d="M2997.65,1717.63h-13.118l-11.231-5.966,11.291-4.249H2998v1.785h-13.084l-7.288,2.742,7.347,3.9h12.674Z" transform="translate(-1935.563 -1165.326)" fill="red"/>
  </g>
</svg>
