<svg xmlns="http://www.w3.org/2000/svg" width="34.016" height="53.665" viewBox="0 0 34.016 53.665">
  <g id="_070008" data-name="070008" transform="translate(-1026.324 -783.621)">
    <path id="路径_173" data-name="路径 173" d="M3000.34,2000.286h-34.016l1.037-1.555c9-13.507,22.624-34.19,23.233-35.8a.774.774,0,0,0-.038.254h2c0,.255,0,.8-7.495,12.36Zm-30.279-2h26.693l-12.9-20.891C2980.614,1982.371,2976.166,1989.121,2970.061,1998.286Z" transform="translate(-1940 -1163)" fill="red"/>
    <path id="路径_174" data-name="路径 174" d="M2984.015,1975.13a15.05,15.05,0,0,1-10.423-3.9c-2.8-2.671-4.276-6.557-4.276-11.24,0-11.362,13.781-13.354,13.92-13.373l.269,1.983c-.5.068-12.189,1.78-12.189,11.39,0,4.183,1.23,7.478,3.657,9.794a13.2,13.2,0,0,0,9.767,3.325l.093,2C2984.559,1975.124,2984.286,1975.13,2984.015,1975.13Z" transform="translate(-1940 -1163)" fill="red"/>
  </g>
</svg>
