<svg xmlns="http://www.w3.org/2000/svg" width="56.417" height="35.655" viewBox="0 0 56.417 35.655">
  <g id="_070002" data-name="070002" transform="translate(-1020.812 -262.957)">
    <path id="路径_163" data-name="路径 163" d="M3009,1461.612a8.066,8.066,0,0,1-4.175-1.179l-11.879-5.787a8.216,8.216,0,0,0-8.714.1l-10.893,5.532a7.85,7.85,0,0,1-9.726-.959,9.586,9.586,0,0,1-2.8-6.812c0-14.64,11.686-26.551,26.05-26.551h4.316c14.365,0,26.051,11.911,26.051,26.551a9.636,9.636,0,0,1-3.292,7.273A7.489,7.489,0,0,1,3009,1461.612Zm-20.33-10.266a10.335,10.335,0,0,1,5.354,1.5l11.88,5.787a5.653,5.653,0,0,0,6.666-.44,7.538,7.538,0,0,0,2.572-5.689c0-13.484-10.749-24.454-23.962-24.454h-4.316c-13.212,0-23.96,10.97-23.96,24.454a7.5,7.5,0,0,0,2.186,5.329,5.754,5.754,0,0,0,7.131.671l10.893-5.533A10.339,10.339,0,0,1,2988.668,1451.346Z" transform="translate(-1940 -1163)" fill="red"/>
    <path id="路径_165" data-name="路径 165" d="M2987.745,1450.7l-9.914-9.914,9.914-9.914,9.914,9.914Zm-7.086-9.914,7.086,7.086,7.086-7.086-7.086-7.086Z" transform="translate(-1940 -1163)" fill="red"/>
    <rect id="矩形_116" data-name="矩形 116" width="6.364" height="6.364" transform="translate(1047.745 273.287) rotate(45)" fill="red"/>
  </g>
</svg>
