<svg xmlns="http://www.w3.org/2000/svg" width="37.675" height="37" viewBox="0 0 37.675 37">
  <path id="_5001" data-name="5001" d="M4939.828,389.283l-4.68-4.551a18.389,18.389,0,0,0-.077-24.55l4.744-4.453-1.369-1.458-4.789,4.495a18.392,18.392,0,0,0-24.952.227l-4.192-4.192-1.414,1.414,4.217,4.217a18.4,18.4,0,0,0,.11,24.257l-5.273,4.554,1.307,1.514,5.37-4.637a18.388,18.388,0,0,0,24.913.036l4.69,4.561ZM4921.306,389a16.5,16.5,0,1,1,16.5-16.5A16.519,16.519,0,0,1,4921.306,389Z" transform="translate(-4902.153 -354)" fill="red"/>
</svg>
