<svg xmlns="http://www.w3.org/2000/svg" width="37.675" height="37" viewBox="0 0 37.675 37">
  <g id="_5004" data-name="5004" transform="translate(-4902.153 -607.956)">
    <path id="路径_125" data-name="路径 125" d="M4920.968,619.049a7.408,7.408,0,1,0,7.408,7.408A7.407,7.407,0,0,0,4920.968,619.049Z" fill="red"/>
    <path id="路径_126" data-name="路径 126" d="M4939.828,643.24l-4.86-4.725a18.4,18.4,0,0,0-.08-24.205l4.927-4.625-1.369-1.458-4.955,4.651a18.389,18.389,0,0,0-24.947-.089l-4.031-4.031-1.414,1.414,4.039,4.039a18.391,18.391,0,0,0,.1,24.6l-5.084,4.389,1.306,1.514,5.2-4.487a18.394,18.394,0,0,0,24.923-.272l4.854,4.719Zm-18.859-.284a16.5,16.5,0,1,1,16.5-16.5A16.518,16.518,0,0,1,4920.969,642.956Z" fill="red"/>
  </g>
</svg>
