<svg xmlns="http://www.w3.org/2000/svg" width="37.675" height="37" viewBox="0 0 37.675 37">
  <g id="_5005" data-name="5005" transform="translate(-4902.153 -692.608)">
    <path id="路径_127" data-name="路径 127" d="M4920.968,703.7a7.408,7.408,0,1,0,7.408,7.407A7.407,7.407,0,0,0,4920.968,703.7Z" fill="red"/>
    <path id="路径_128" data-name="路径 128" d="M4920.969,698.108a13,13,0,1,0,13,13A13.014,13.014,0,0,0,4920.969,698.108Zm0,24a11,11,0,1,1,11-11A11.011,11.011,0,0,1,4920.969,722.108Z" fill="red"/>
    <path id="路径_129" data-name="路径 129" d="M4939.828,727.892l-4.859-4.725a18.4,18.4,0,0,0-.081-24.205l4.927-4.625-1.369-1.458-4.955,4.651a18.388,18.388,0,0,0-24.946-.089l-4.032-4.031-1.414,1.414,4.04,4.039a18.389,18.389,0,0,0,.1,24.6l-5.083,4.391,1.307,1.513,5.2-4.487a18.394,18.394,0,0,0,24.923-.272l4.853,4.719Zm-18.859-.284a16.5,16.5,0,1,1,16.5-16.5A16.517,16.517,0,0,1,4920.969,727.608Z" fill="red"/>
  </g>
</svg>
