<svg xmlns="http://www.w3.org/2000/svg" width="37.675" height="46" viewBox="0 0 37.675 46">
  <g id="_5006" data-name="5006" transform="translate(-4902.153 -772.761)">
    <path id="路径_130" data-name="路径 130" d="M4920.968,792.853a7.408,7.408,0,1,0,7.408,7.408A7.407,7.407,0,0,0,4920.968,792.853Z" fill="red"/>
    <path id="路径_131" data-name="路径 131" d="M4939.828,817.044l-4.859-4.725a18.4,18.4,0,0,0-.081-24.2l4.927-4.624-1.369-1.458-4.955,4.65a18.4,18.4,0,0,0-11.522-4.871v-9.05h-2v9.05a18.4,18.4,0,0,0-11.424,4.782l-4.032-4.031-1.414,1.414,4.04,4.039a18.391,18.391,0,0,0,.1,24.6l-5.083,4.39,1.307,1.513,5.2-4.487a18.391,18.391,0,0,0,24.923-.272l4.853,4.719Zm-18.859-.283a16.5,16.5,0,1,1,16.5-16.5A16.518,16.518,0,0,1,4920.969,816.761Z" fill="red"/>
  </g>
</svg>
