<svg xmlns="http://www.w3.org/2000/svg" width="37.675" height="53" viewBox="0 0 37.675 53">
  <g id="_5007" data-name="5007" transform="translate(-4902.153 -853.913)">
    <path id="路径_132" data-name="路径 132" d="M4920.968,888.82a7.408,7.408,0,1,0-7.407-7.407A7.407,7.407,0,0,0,4920.968,888.82Z" fill="red"/>
    <path id="路径_133" data-name="路径 133" d="M4933.58,894.91l4.853,4.719,1.4-1.433-4.859-4.725a18.4,18.4,0,0,0-.081-24.205l4.927-4.624-1.369-1.458-4.955,4.65a18.408,18.408,0,0,0-11.522-4.871v-9.05h-2v9.05a18.4,18.4,0,0,0-11.424,4.782l-4.032-4.031-1.414,1.414,4.04,4.039a18.391,18.391,0,0,0,.1,24.6l-5.083,4.39,1.307,1.514,5.2-4.488a18.394,18.394,0,0,0,11.312,4.68v5.051h-4.763v2h11.525v-2h-4.762v-5.051A18.406,18.406,0,0,0,4933.58,894.91Zm-12.611-30a16.5,16.5,0,1,1-16.5,16.5A16.519,16.519,0,0,1,4920.969,864.913Z" fill="red"/>
  </g>
</svg>
