<svg xmlns="http://www.w3.org/2000/svg" width="37.675" height="60" viewBox="0 0 37.675 60">
  <g id="_5008" data-name="5008" transform="translate(-4902.153 -935.065)">
    <path id="路径_134" data-name="路径 134" d="M4920.968,969.972a7.408,7.408,0,1,0-7.407-7.407A7.407,7.407,0,0,0,4920.968,969.972Z" fill="red"/>
    <path id="路径_135" data-name="路径 135" d="M4933.58,976.062l4.853,4.72,1.4-1.434-4.859-4.725a18.4,18.4,0,0,0-.081-24.2l4.927-4.624-1.369-1.458-4.955,4.65a18.408,18.408,0,0,0-11.522-4.871v-9.05h-2v9.05a18.4,18.4,0,0,0-11.424,4.782l-4.032-4.031-1.414,1.414,4.04,4.039a18.391,18.391,0,0,0,.1,24.6l-5.083,4.39,1.307,1.514,5.2-4.488a18.388,18.388,0,0,0,11.312,4.68v4.152a5,5,0,1,0,2,0v-4.152A18.406,18.406,0,0,0,4933.58,976.062Zm-12.611-30a16.5,16.5,0,1,1-16.5,16.5A16.519,16.519,0,0,1,4920.969,946.065Zm3,44a3,3,0,1,1-3-3A3,3,0,0,1,4923.969,990.065Z" fill="red"/>
  </g>
</svg>
