<svg xmlns="http://www.w3.org/2000/svg" width="37.676" height="59.284" viewBox="0 0 37.676 59.284">
  <g id="_5009" data-name="5009" transform="translate(-5372.395 -163)">
    <path id="路径_136" data-name="路径 136" d="M5391.211,197.908a7.408,7.408,0,1,0-7.407-7.408A7.408,7.408,0,0,0,5391.211,197.908Z" fill="red"/>
    <path id="路径_137" data-name="路径 137" d="M5403.822,204l4.854,4.719,1.4-1.434-4.86-4.725a18.4,18.4,0,0,0-.08-24.205l4.927-4.624-1.369-1.458-4.956,4.651a18.4,18.4,0,0,0-11.522-4.871V163h-2v9.051a18.4,18.4,0,0,0-11.424,4.781l-4.031-4.031-1.414,1.414,4.039,4.04a18.387,18.387,0,0,0,.1,24.6l-5.084,4.39,1.308,1.514,5.2-4.487a18.4,18.4,0,0,0,11.312,4.679v4.165a4.642,4.642,0,1,0,2,0v-4.165A18.406,18.406,0,0,0,5403.822,204Zm-12.611-30a16.5,16.5,0,1,1-16.5,16.5A16.519,16.519,0,0,1,5391.211,174Z" fill="red"/>
  </g>
</svg>
