<svg xmlns="http://www.w3.org/2000/svg" width="49.408" height="49.408" viewBox="0 0 49.408 49.408">
  <g id="_5011" data-name="5011" transform="translate(-5366.529 -340.05)">
    <path id="路径_119" data-name="路径 119" d="M5391.233,340.05a24.7,24.7,0,1,0,24.7,24.7A24.732,24.732,0,0,0,5391.233,340.05Zm0,47.408a22.7,22.7,0,1,1,22.7-22.7A22.729,22.729,0,0,1,5391.233,387.458Z" fill="red"/>
    <path id="路径_120" data-name="路径 120" d="M5405.048,371.733h-12.815V358.5l4.926.588-5.926-14.161-5.926,14.161,4.926-.588v13.234h-12.815v-3.922h-2v9.844h2v-3.922h27.631v3.922h2v-9.844h-2Z" fill="red"/>
  </g>
</svg>
