<svg xmlns="http://www.w3.org/2000/svg" width="49.409" height="49.409" viewBox="0 0 49.409 49.409">
  <g id="_5012" data-name="5012" transform="translate(-5366.528 -426.105)">
    <path id="路径_121" data-name="路径 121" d="M5391.233,426.105a24.7,24.7,0,1,0,24.7,24.7A24.733,24.733,0,0,0,5391.233,426.105Zm0,47.409a22.7,22.7,0,1,1,22.7-22.705A22.731,22.731,0,0,1,5391.233,473.514Z" fill="red"/>
    <path id="路径_122" data-name="路径 122" d="M5408.27,452.068v-2h-3.962v2.963h-12.075v-8.476l4.926.587-5.926-14.16-5.926,14.16,4.926-.587v8.476h-12.075v-2.963h-3.963v2h1.963v10.205h-1.963v2h3.963v-1.834h26.15v1.834h3.962v-2h-1.962V452.068Zm-3.962,8.371h-26.15v-5.408h26.15Z" fill="red"/>
  </g>
</svg>
