<svg xmlns="http://www.w3.org/2000/svg" width="49.409" height="49.408" viewBox="0 0 49.409 49.408">
  <g id="_5013" data-name="5013" transform="translate(-5366.528 -512.161)">
    <path id="路径_123" data-name="路径 123" d="M5391.233,512.161a24.7,24.7,0,1,0,24.7,24.7A24.733,24.733,0,0,0,5391.233,512.161Zm0,47.408a22.7,22.7,0,1,1,22.7-22.7A22.73,22.73,0,0,1,5391.233,559.569Z" fill="red"/>
    <path id="路径_124" data-name="路径 124" d="M5408.27,532.927v-2h-3.962v2.222h-12.075v-3.538l4.926.587-5.926-14.16-5.926,14.16,4.926-.588v3.539h-12.075v-2.222h-3.963v2h1.963v14.3h-1.963v2h3.963V547h26.15v2.223h3.962v-2h-1.962v-14.3ZM5404.308,545h-26.15v-3.926h26.15Zm0-5.926h-26.15v-3.926h26.15Z" fill="red"/>
  </g>
</svg>
