<svg xmlns="http://www.w3.org/2000/svg" width="51.938" height="38.777" viewBox="0 0 51.938 38.777">
  <g id="_5015" data-name="5015" transform="translate(0 0)">
    <g id="组_61" data-name="组 61" transform="translate(0 5.267)">
      <path id="路径_298" data-name="路径 298" d="M118.324,80.86a45.105,45.105,0,0,1-7.84-1.054,59.535,59.535,0,0,0-10.9-1.358,60.525,60.525,0,0,0-11.156,1.376c-5.269,1-9.82,1.856-12.492-.357-1.563-1.295-2.322-3.509-2.322-6.768,0-9.6,9.208-17.65,21.895-19.138l.179,1.516C83.975,56.45,75.142,64.027,75.142,72.7c0,2.777.578,4.606,1.769,5.593,2.119,1.756,6.343.958,11.235.033a61.73,61.73,0,0,1,11.439-1.4,60.661,60.661,0,0,1,11.182,1.385c4.99.945,9.3,1.762,11.476-.043,1.2-.995,1.785-2.815,1.785-5.565,0-8.3-7.718-15.441-18.771-17.364l.262-1.5c11.8,2.052,20.035,9.81,20.035,18.867,0,3.233-.765,5.437-2.338,6.74A7.422,7.422,0,0,1,118.324,80.86Z" transform="translate(-73.616 -53.561)" fill="red"/>
    </g>
    <path id="路径_299" data-name="路径 299" d="M121.99,90.953l-.964.185c-2.353.406-5.548-.2-9.248-.9a60.659,60.659,0,0,0-11.183-1.386,61.748,61.748,0,0,0-11.439,1.4c-3.629.687-6.765,1.276-9.05.887l0,0h0c-.01,0-.021,0-.032,0l-.011.067L77.67,94.691l.755.517,1.73-2.525a12.034,12.034,0,0,0,1.513.092L80.2,94.919l.755.517L82.8,92.745q.908-.054,1.887-.182l-1.453,2.121.755.517,1.93-2.818c.691-.11,1.4-.233,2.139-.369L86.6,94.137l.755.517,1.972-2.878.109-.021c.577-.109,1.171-.22,1.772-.33l-1.446,2.11.755.518L92.475,91.2q.963-.166,1.952-.313l-1.421,2.075.756.517,1.889-2.757c.626-.079,1.257-.15,1.891-.2l-1.478,2.158.755.517,1.887-2.754c.612-.034,1.225-.058,1.84-.059l-1.5,2.192.756.517,1.84-2.686c.645.022,1.289.06,1.933.116l-1.5,2.184.755.517,1.779-2.6q.908.1,1.8.233L104.9,93.068l.756.517,1.765-2.576q.784.125,1.551.262l-1.535,2.241.755.517,1.766-2.577c.52.1,1.034.192,1.536.288l.145.027L110.1,94.006l.755.517,1.762-2.574c.6.111,1.175.216,1.743.314l-1.516,2.212.755.518,1.759-2.567c.674.1,1.327.191,1.956.254L115.8,94.893l.755.518,1.812-2.645c.326.018.646.029.958.029.33,0,.651-.012.964-.035l-1.436,2.1.756.517,2.432-3.551Z" transform="translate(-74.577 -56.659)" fill="red"/>
    <path id="路径_300" data-name="路径 300" d="M111.586,49.382l-.631-2.724-1.58,2.307.75.141-1.1,5.847L107.1,50.941a.381.381,0,0,0-.719.094l-.839,4.445.75.141.623-3.3,1.925,4.012a.381.381,0,0,0,.273.21.393.393,0,0,0,.12,0,.382.382,0,0,0,.326-.307l1.318-6.99Z" transform="translate(-81.183 -46.658)" fill="red"/>
  </g>
</svg>
