<svg xmlns="http://www.w3.org/2000/svg" width="51.938" height="36.941" viewBox="0 0 51.938 36.941">
  <g id="_5016" data-name="5016" transform="translate(0)">
    <g id="组_63" data-name="组 63" transform="translate(0 3.432)">
      <path id="路径_301" data-name="路径 301" d="M118.324,159.959a45.106,45.106,0,0,1-7.84-1.054,59.534,59.534,0,0,0-10.9-1.358,60.591,60.591,0,0,0-11.156,1.376c-5.269,1-9.82,1.856-12.492-.357-1.563-1.295-2.322-3.508-2.322-6.768,0-9.6,9.208-17.65,21.895-19.138l.179,1.515c-11.714,1.373-20.547,8.95-20.547,17.623,0,2.776.578,4.606,1.769,5.593,2.119,1.755,6.343.957,11.235.032a61.73,61.73,0,0,1,11.439-1.4,60.66,60.66,0,0,1,11.182,1.386c4.99.945,9.3,1.762,11.476-.043,1.2-.995,1.785-2.815,1.785-5.564,0-8.3-7.718-15.442-18.771-17.364l.262-1.5c11.8,2.052,20.035,9.81,20.035,18.868,0,3.232-.765,5.437-2.338,6.74A7.421,7.421,0,0,1,118.324,159.959Z" transform="translate(-73.616 -132.661)" fill="red"/>
    </g>
    <path id="路径_302" data-name="路径 302" d="M121.99,170.052l-.964.185c-2.353.406-5.548-.2-9.248-.9a60.662,60.662,0,0,0-11.183-1.385,61.811,61.811,0,0,0-11.439,1.4c-3.629.687-6.765,1.276-9.05.887l0,0v0c-.01,0-.021,0-.032,0l-.011.067-2.388,3.485.755.517,1.73-2.525a11.884,11.884,0,0,0,1.513.092L80.2,174.019l.755.517,1.843-2.691q.908-.053,1.887-.182l-1.453,2.121.755.517,1.93-2.817c.691-.11,1.4-.234,2.139-.37L86.6,173.236l.755.518,1.972-2.878.109-.021c.577-.109,1.171-.221,1.772-.33l-1.446,2.111.755.517,1.955-2.853q.963-.166,1.952-.313l-1.421,2.075.756.517,1.889-2.757c.626-.079,1.257-.15,1.891-.2l-1.478,2.158.755.517,1.887-2.754c.612-.034,1.225-.059,1.84-.06l-1.5,2.192.756.517,1.84-2.686c.645.022,1.289.06,1.933.116l-1.5,2.184.755.517,1.779-2.6c.605.067,1.207.146,1.8.232l-1.516,2.213.756.517,1.765-2.577q.784.126,1.551.262l-1.535,2.241.755.517,1.766-2.578c.52.1,1.034.192,1.536.288l.145.027-1.535,2.241.755.517,1.762-2.573c.6.111,1.175.216,1.743.313l-1.516,2.212.755.518,1.759-2.567c.674.1,1.327.191,1.956.254l-1.515,2.212.755.518,1.812-2.645c.326.018.646.03.958.03.33,0,.651-.013.964-.035l-1.436,2.1.756.517,2.432-3.551Z" transform="translate(-74.577 -137.594)" fill="red"/>
    <path id="路径_303" data-name="路径 303" d="M109.67,131.1l-.907,3.228-1.672-3.787a.381.381,0,0,0-.724.031l-1.222,4.355.734.206.908-3.235,1.673,3.788a.379.379,0,0,0,.254.233.389.389,0,0,0,.119.014.381.381,0,0,0,.351-.278l1.222-4.351Z" transform="translate(-81.089 -128.669)" fill="red"/>
    <rect id="矩形_170" data-name="矩形 170" width="0.77" height="4.084" transform="translate(25.616 0.742) rotate(-74.448)" fill="red"/>
  </g>
</svg>
