<svg id="_5017" data-name="5017" xmlns="http://www.w3.org/2000/svg" width="51.837" height="33.593" viewBox="0 0 51.837 33.593">
  <g id="组_65" data-name="组 65" transform="translate(0 0)">
    <path id="路径_304" data-name="路径 304" d="M119,236.383a41.794,41.794,0,0,1-7.381-1.032,62.158,62.158,0,0,0-12.018-1.5,64.037,64.037,0,0,0-11.957,1.434c-5.212.978-9.327,1.751-11.8-.3-1.456-1.208-2.163-3.3-2.163-6.385,0-11.3,11.143-19.815,25.919-19.815s25.919,8.519,25.919,19.815c0,3.166-.717,5.3-2.193,6.511A6.554,6.554,0,0,1,119,236.383ZM99.6,232.33a63.393,63.393,0,0,1,12.309,1.524c4.768.928,8.533,1.661,10.446.085,1.1-.908,1.637-2.652,1.637-5.333,0-10.426-10.486-18.289-24.393-18.289s-24.393,7.863-24.393,18.289c0,2.606.527,4.311,1.611,5.211,1.919,1.592,5.723.878,10.541-.027A65.354,65.354,0,0,1,99.6,232.33Z" transform="translate(-73.682 -208.79)" fill="red"/>
  </g>
  <path id="路径_305" data-name="路径 305" d="M105.045,216.35l6.235,6.235-6.235,6.234-6.234-6.234,6.234-6.235m0-2.158-8.393,8.393,8.393,8.393,8.393-8.393-8.393-8.393Z" transform="translate(-79.126 -210.07)" fill="red"/>
  <ellipse id="椭圆_16" data-name="椭圆 16" cx="2.478" cy="2.478" rx="2.478" ry="2.478" transform="translate(23.441 10.036)" fill="red"/>
  <path id="路径_306" data-name="路径 306" d="M121.884,246.29l-.965.185c-2.352.406-5.547-.2-9.248-.9a60.661,60.661,0,0,0-11.182-1.386,61.73,61.73,0,0,0-11.439,1.4c-3.63.687-6.765,1.276-9.051.887l0,0h0c-.01,0-.021,0-.031,0l-.012.067-2.388,3.486.756.517,1.73-2.525a12.016,12.016,0,0,0,1.512.092l-1.469,2.143.755.517,1.844-2.691q.906-.054,1.886-.182l-1.453,2.121.756.517,1.93-2.818c.691-.11,1.4-.233,2.139-.369L86.5,249.474l.756.517,1.972-2.878.109-.021c.578-.109,1.171-.22,1.772-.33l-1.447,2.11.756.518,1.955-2.854q.963-.166,1.952-.312L92.9,248.3l.755.517,1.889-2.757c.626-.079,1.257-.15,1.892-.2l-1.479,2.158.755.517,1.887-2.754c.612-.034,1.225-.058,1.84-.059l-1.5,2.192.755.517,1.84-2.686c.644.022,1.289.06,1.932.116l-1.5,2.184.755.517,1.779-2.6q.909.1,1.8.233l-1.515,2.213.755.517,1.765-2.577c.523.084,1.041.172,1.551.262l-1.535,2.241.756.517,1.766-2.577,1.535.287.146.027L110,249.343l.755.517,1.763-2.574c.6.111,1.174.216,1.742.314l-1.515,2.212.755.518,1.759-2.567c.674.1,1.327.191,1.955.254L115.7,250.23l.756.517,1.812-2.645c.326.018.646.029.957.029q.5,0,.964-.035l-1.435,2.1.755.517,2.432-3.551Z" transform="translate(-74.602 -217.18)" fill="red"/>
</svg>
