<svg xmlns="http://www.w3.org/2000/svg" width="49.496" height="28.403" viewBox="0 0 49.496 28.403">
  <g id="_5018" data-name="5018" transform="translate(0 0)">
    <path id="路径_314" data-name="路径 314" d="M91.894,319.774a3.052,3.052,0,1,1-3.052,3.052,3.055,3.055,0,0,1,3.052-3.052m0-1.526a4.578,4.578,0,1,0,4.578,4.578,4.578,4.578,0,0,0-4.578-4.578Z" transform="translate(-78.084 -299.001)" fill="red"/>
    <ellipse id="椭圆_17" data-name="椭圆 17" cx="1.907" cy="1.907" rx="1.907" ry="1.907" transform="translate(11.902 21.917)" fill="red"/>
    <path id="路径_315" data-name="路径 315" d="M124.573,319.774a3.052,3.052,0,1,1-3.052,3.052,3.055,3.055,0,0,1,3.052-3.052m0-1.526a4.578,4.578,0,1,0,4.578,4.578,4.578,4.578,0,0,0-4.578-4.578Z" transform="translate(-85.83 -299.001)" fill="red"/>
    <ellipse id="椭圆_18" data-name="椭圆 18" cx="1.907" cy="1.907" rx="1.907" ry="1.907" transform="translate(36.836 21.917)" fill="red"/>
    <path id="路径_316" data-name="路径 316" d="M85.441,293.022,75.216,303.247v13.1h7.95a5.883,5.883,0,0,1,11.749,0H108a5.882,5.882,0,0,1,11.753,0h4.956V293.022Zm37.745,21.8h-2.132a7.39,7.39,0,0,0-14.349,0h-4.5v-6.881l13.74-10.1-15.266-.151v17.133H96.206a7.391,7.391,0,0,0-14.329,0H76.742V303.879l9.331-9.331h37.113Zm-20.978-8.775v-6.817l9.149.092Z" transform="translate(-75.216 -293.022)" fill="red"/>
  </g>
</svg>
