<svg xmlns="http://www.w3.org/2000/svg" width="49.496" height="28.403" viewBox="0 0 49.496 28.403">
  <g id="_5019" data-name="5019" transform="translate(0 0)">
    <path id="路径_317" data-name="路径 317" d="M91.894,401.895a3.052,3.052,0,1,1-3.052,3.052,3.055,3.055,0,0,1,3.052-3.052m0-1.526a4.578,4.578,0,1,0,4.578,4.578,4.578,4.578,0,0,0-4.578-4.578Z" transform="translate(-78.084 -381.122)" fill="red"/>
    <ellipse id="椭圆_19" data-name="椭圆 19" cx="1.907" cy="1.907" rx="1.907" ry="1.907" transform="translate(11.902 21.917)" fill="red"/>
    <path id="路径_318" data-name="路径 318" d="M124.573,401.895a3.052,3.052,0,1,1-3.052,3.052,3.055,3.055,0,0,1,3.052-3.052m0-1.526a4.578,4.578,0,1,0,4.578,4.578,4.578,4.578,0,0,0-4.578-4.578Z" transform="translate(-85.83 -381.122)" fill="red"/>
    <ellipse id="椭圆_20" data-name="椭圆 20" cx="1.907" cy="1.907" rx="1.907" ry="1.907" transform="translate(36.836 21.917)" fill="red"/>
    <path id="路径_319" data-name="路径 319" d="M85.441,375.143,75.216,385.368v13.1h7.95a5.883,5.883,0,0,1,11.749,0H108a5.882,5.882,0,0,1,11.753,0h4.956V375.143Zm37.745,21.8h-2.132a7.389,7.389,0,0,0-14.349,0h-4.187v-7.627h6.394v-9.176H94.393l-4.541,4.615,4.541,4.561h6.6v7.627H96.206a7.391,7.391,0,0,0-14.329,0H76.742V386l9.331-9.331h37.113ZM94.8,388v-6.538H107.63V388Z" transform="translate(-75.216 -375.143)" fill="red"/>
  </g>
</svg>
