<svg xmlns="http://www.w3.org/2000/svg" width="28.198" height="50.349" viewBox="0 0 28.198 50.349">
  <path id="_020096" data-name="020096" d="M2762.311,279.051l1.378-1.448-13.182-12.55V250.981h-2v14.076l-13.016,12.55,1.389,1.439,11.627-11.211v19.528a6.174,6.174,0,0,0-3.36,10.559l-1.4,2.325,1.712,1.033,1.34-2.22a6.123,6.123,0,0,0,5.742-.242l1.724,2.512,1.649-1.132-1.824-2.658a6.172,6.172,0,0,0-3.58-10.155V267.814Zm-17.062,14.422a4.188,4.188,0,0,1,3.258-4.075v2.957l-2.279,3.776A4.146,4.146,0,0,1,2745.249,293.473Zm4.187,4.187a4.167,4.167,0,0,1-1.6-.321l1.726-2.859,1.833,2.671A4.134,4.134,0,0,1,2749.436,297.66Zm4.187-4.187a4.161,4.161,0,0,1-.719,2.343l-2.4-3.493v-2.881A4.183,4.183,0,0,1,2753.623,293.473Z" transform="translate(-2735.491 -250.981)" fill="red"/>
</svg>
