<svg xmlns="http://www.w3.org/2000/svg" width="48.077" height="20.455" viewBox="0 0 48.077 20.455">
  <g id="_020090" data-name="020090" transform="translate(-2581.999 -259.668)">
    <path id="路径_659" data-name="路径 659" d="M2630.076,269.834c-.311-.415-7.816-10.166-24.436-10.166-16.649,0-23.364,9.786-23.641,10.2l.038.026-.038.026c.277.416,6.992,10.2,23.641,10.2,16.62,0,24.125-9.751,24.436-10.166l-.082-.061Zm-24.436,8.716c-12.937,0-19.634-6.331-21.656-8.657,2.016-2.329,8.686-8.651,21.656-8.651,12.9,0,20.133,6.291,22.4,8.654C2625.773,272.259,2618.536,278.55,2605.64,278.55Z" fill="red"/>
    <path id="路径_660" data-name="路径 660" d="M2596,274.83H2616.1v-9.868H2596Zm18.095-2h-7.087v-5.868h7.087ZM2598,266.962h7.008v5.868H2598Z" fill="red"/>
  </g>
</svg>
