<svg xmlns="http://www.w3.org/2000/svg" width="50.764" height="16.564" viewBox="0 0 50.764 16.564">
  <g id="_020015" data-name="020015" transform="translate(-1243.367 -624)">
    <rect id="矩形_425" data-name="矩形 425" width="24.882" height="2" transform="translate(1252.253 638.564)" fill="red"/>
    <path id="路径_808" data-name="路径 808" d="M1287.8,625.777a6.337,6.337,0,0,0-6.245,5.332h-10.615a6.34,6.34,0,0,0-4.606-5.109h10.8v-2h-24.882v2h10.8a6.34,6.34,0,0,0-4.607,5.109h-15.082v2h15.082a6.323,6.323,0,0,0,12.49,0h10.615a6.329,6.329,0,1,0,6.245-7.332Zm-23.1,2a4.331,4.331,0,0,1,4.2,3.332h-8.408A4.332,4.332,0,0,1,1264.694,627.777Zm0,8.664a4.33,4.33,0,0,1-4.2-3.332h8.407A4.331,4.331,0,0,1,1264.694,636.441Zm23.1,0a4.332,4.332,0,1,1,4.332-4.332A4.336,4.336,0,0,1,1287.8,636.441Z" fill="red"/>
  </g>
</svg>
