<svg xmlns="http://www.w3.org/2000/svg" width="43.862" height="23.609" viewBox="0 0 43.862 23.609">
  <g id="_020075" data-name="020075" transform="translate(-2415.154 -633.666)">
    <path id="路径_638" data-name="路径 638" d="M2458.984,633.666l-43.83,11.863,43.862,11.746Zm-36.137,11.853,34.141-9.241.024,18.39Z" fill="red"/>
    <path id="路径_639" data-name="路径 639" d="M2450.787,641.72a3.208,3.208,0,0,0-3.166,2.752H2438V643.1l-3.153,1.225-3.152,1.225,3.152,1.226L2438,648v-1.528h9.985a3.206,3.206,0,1,0,2.8-4.752Zm0,4.426a1.213,1.213,0,1,1,1.213-1.213A1.214,1.214,0,0,1,2450.787,646.146Z" fill="red"/>
  </g>
</svg>
