<svg xmlns="http://www.w3.org/2000/svg" width="37.793" height="48.759" viewBox="0 0 37.793 48.759">
  <path id="_020032" data-name="020032" d="M1523.558,734.359v-25.24L1515.1,695.08l-8.455,14.039v25.24h-10.442v2.681l.489.291c.245.146.558.368.944.642a29.782,29.782,0,0,0,18.267,5.866c11.522,0,17.572-6.324,17.824-6.594l.269-.288v-2.6ZM1508.649,710.4h12.909v23.4h-12.909Zm12.14-2h-11.37l5.685-9.439Zm-4.882,33.443a27.517,27.517,0,0,1-17.084-5.48h32.935A24.065,24.065,0,0,1,1515.907,741.839Z" transform="translate(-1496.207 -695.08)" fill="red"/>
</svg>
