<svg xmlns="http://www.w3.org/2000/svg" width="51.4" height="27.103" viewBox="0 0 51.4 27.103">
  <g id="_020044" data-name="020044" transform="translate(-2026.267 -168.499)">
    <path id="路径_586" data-name="路径 586" d="M2051.993,168.5l-25.726,13.6,25.674,13.508,25.726-13.6Zm-.054,24.842-21.384-11.251L2052,170.759l21.384,11.252Z" fill="red"/>
    <path id="路径_587" data-name="路径 587" d="M2056.467,180a5.085,5.085,0,0,0-4.438,2.624,5.405,5.405,0,0,0-4.562-2.624c-3.678,0-4.9,3.533-4.948,3.684l1.895.638a3.441,3.441,0,0,1,3.053-2.322,3.779,3.779,0,0,1,3.242,2.364l.249.636h1.509l.714-.006.233-.672a3.168,3.168,0,0,1,6.1-.006l1.9-.632C2061.366,183.533,2060.146,180,2056.467,180Z" fill="red"/>
  </g>
</svg>
