<svg xmlns="http://www.w3.org/2000/svg" width="48.078" height="20.455" viewBox="0 0 48.078 20.455">
  <path id="_020089" data-name="020089" d="M2630.138,178.621c-.312-.415-7.816-10.166-24.437-10.166-16.649,0-23.363,9.785-23.641,10.2l.039.025-.039.026c.278.417,6.992,10.2,23.641,10.2,16.621,0,24.125-9.751,24.437-10.166l-.082-.062Zm-46.093.059c2.017-2.329,8.686-8.652,21.656-8.652,11.356,0,18.32,4.876,21.367,7.655h-7.762v-2.147h-2v5.506h2v-1.359h7.762c-3.048,2.778-10.011,7.654-21.367,7.654C2592.765,187.337,2586.068,181.005,2584.045,178.68Z" transform="translate(-2582.06 -168.455)" fill="red"/>
</svg>
