<svg xmlns="http://www.w3.org/2000/svg" width="48.077" height="20.455" viewBox="0 0 48.077 20.455">
  <g id="_020091" data-name="020091" transform="translate(-2582.937 -355.668)">
    <path id="路径_661" data-name="路径 661" d="M2631.014,365.834c-.311-.415-7.815-10.166-24.436-10.166-16.649,0-23.364,9.786-23.641,10.2l.038.026-.038.026c.277.416,6.992,10.2,23.641,10.2,16.621,0,24.125-9.751,24.436-10.166l-.081-.061Zm-24.436,8.716c-12.936,0-19.633-6.331-21.656-8.657,2.016-2.329,8.686-8.651,21.656-8.651,12.9,0,20.133,6.291,22.4,8.654C2626.711,368.259,2619.474,374.55,2606.578,374.55Z" fill="red"/>
    <path id="路径_662" data-name="路径 662" d="M2608.382,360.389h-2v4.131h-3.631v2h3.631v4.131h2V366.52h3.937v-2h-3.937Z" fill="red"/>
  </g>
</svg>
