<svg xmlns="http://www.w3.org/2000/svg" width="46.366" height="16.564" viewBox="0 0 46.366 16.564">
  <g id="_020012" data-name="020012" transform="translate(-1244.869 -362)">
    <rect id="矩形_428" data-name="矩形 428" width="24.882" height="2" transform="translate(1253.755 362)" fill="red"/>
    <rect id="矩形_429" data-name="矩形 429" width="24.882" height="2" transform="translate(1253.755 376.564)" fill="red"/>
    <path id="路径_810" data-name="路径 810" d="M1286.833,370.607a2.964,2.964,0,0,1,.923-2.358,4.563,4.563,0,0,1,3.17-.706l.153-.988.156-.988a6.552,6.552,0,0,0-4.758,1.143,4.451,4.451,0,0,0-1.439,2.4h-40.169v2h40a5.2,5.2,0,0,0,1.432,3.458,7.348,7.348,0,0,0,4.779,1.874l0-2a5.363,5.363,0,0,1-3.363-1.283A3.379,3.379,0,0,1,1286.833,370.607Z" fill="red"/>
  </g>
</svg>
