<svg xmlns="http://www.w3.org/2000/svg" width="29.51" height="52.22" viewBox="0 0 29.51 52.22">
  <path id="_020097" data-name="020097" d="M2749.552,353.876l14.494-.028-16.494-9.175v15.948l-13.016,12.549,1.388,1.439,11.628-11.21v19.527a6.174,6.174,0,0,0-3.361,10.559l-1.4,2.325,1.712,1.033,1.34-2.22a6.125,6.125,0,0,0,5.743-.242l1.723,2.512,1.65-1.132-1.824-2.658a6.173,6.173,0,0,0-3.58-10.155v-19.57l11.8,11.236,1.379-1.448-13.182-12.549Zm0-2v-3.8l6.81,3.787Zm-5.259,37.16a4.188,4.188,0,0,1,3.259-4.075v2.957l-2.279,3.776A4.142,4.142,0,0,1,2744.293,389.036Zm4.187,4.187a4.168,4.168,0,0,1-1.6-.321l1.726-2.859,1.834,2.671A4.134,4.134,0,0,1,2748.48,393.223Zm4.187-4.187a4.157,4.157,0,0,1-.719,2.343l-2.4-3.493v-2.881A4.182,4.182,0,0,1,2752.667,389.036Z" transform="translate(-2734.536 -344.673)" fill="red"/>
</svg>
