<svg xmlns="http://www.w3.org/2000/svg" width="44.341" height="18.493" viewBox="0 0 44.341 18.493">
  <path id="_020022" data-name="020022" d="M1365.987,369.312h14.482v-2h-14.306a8.252,8.252,0,0,0-3.83-6.715h5.748v-2h-23.092v8.715h-8.861v2h8.861v7.778h23.092v-2h-6.774A8.286,8.286,0,0,0,1365.987,369.312Zm-1.824-2h-12.5a6.254,6.254,0,0,1,12.5,0Zm-17.174-6.715h6.506a8.254,8.254,0,0,0-3.83,6.715h-2.676Zm0,14.493v-5.778h2.853a8.282,8.282,0,0,0,4.679,5.778Zm10.925-1.262a6.268,6.268,0,0,1-6.009-4.516h12.019A6.27,6.27,0,0,1,1357.914,373.828Z" transform="translate(-1336.128 -358.597)" fill="red"/>
</svg>
