<svg xmlns="http://www.w3.org/2000/svg" width="45.146" height="22.032" viewBox="0 0 45.146 22.032">
  <g id="_020054" data-name="020054" transform="translate(-2123.03 -171.968)">
    <path id="路径_592" data-name="路径 592" d="M2134.046,171.968a11.016,11.016,0,0,0,0,22.032h34.13V171.968ZM2166.176,192h-32.13a9.016,9.016,0,0,1,0-18.032h32.13Z" fill="red"/>
    <path id="路径_593" data-name="路径 593" d="M2143.264,181.672a3.91,3.91,0,0,1,3.356,2.447l.248.635h1.532l.714-.005.233-.673a3.282,3.282,0,0,1,6.323-.006l1.9-.632c-.051-.153-1.3-3.766-5.057-3.766a5.21,5.21,0,0,0-4.559,2.72,5.535,5.535,0,0,0-4.687-2.72c-3.76,0-5.006,3.613-5.057,3.766l1.9.632A3.57,3.57,0,0,1,2143.264,181.672Z" fill="red"/>
  </g>
</svg>
