<svg xmlns="http://www.w3.org/2000/svg" width="46" height="23" viewBox="0 0 46 23">
  <g id="_020060" data-name="020060" transform="translate(-2121 -725)">
    <path id="路径_607" data-name="路径 607" d="M2135.248,725,2121,736.009V748h46V725ZM2165,746h-42v-9.009L2135.931,727H2165Z" fill="red"/>
    <path id="路径_608" data-name="路径 608" d="M2151.8,734.366l0-.256a4.519,4.519,0,0,0-4.549-4.727A5.04,5.04,0,0,0,2142.3,734l-.036.311,4.762,8.964Zm-4.551-2.983a2.486,2.486,0,0,1,2.535,2.511l-2.751,5.134-2.7-5.075A2.991,2.991,0,0,1,2147.25,731.383Z" fill="red"/>
  </g>
</svg>
