<svg xmlns="http://www.w3.org/2000/svg" width="17.631" height="48.769" viewBox="0 0 17.631 48.769">
  <g id="_020025" data-name="020025" transform="translate(-1353 -611.48)">
    <path id="路径_821" data-name="路径 821" d="M1365.687,621.646l-1.976-5.083-1.976-5.083-1.976,5.083-1.976,5.083h7.9Z" transform="translate(0.216)" fill="red"/>
    <path id="路径_822" data-name="路径 822" d="M1368.831,630.361v6.45a8.274,8.274,0,0,0-6.369-4.479V621.646h-2v10.686a8.25,8.25,0,0,0-5.262,2.821v-4.792h-2v21.785h2V645.9a8.25,8.25,0,0,0,5.262,2.821v11.526h2V648.723a8.273,8.273,0,0,0,6.369-4.48v7.9h2V630.361ZM1355.2,640.527a6.267,6.267,0,0,1,5.262-6.174V646.7A6.267,6.267,0,0,1,1355.2,640.527Zm7.262,6.175V634.353a6.254,6.254,0,0,1,0,12.349Z" transform="translate(-0.2)" fill="red"/>
  </g>
</svg>
