<svg xmlns="http://www.w3.org/2000/svg" width="47.365" height="23.573" viewBox="0 0 47.365 23.573">
  <g id="_020051" data-name="020051" transform="translate(-2028.253 -816.402)">
    <path id="路径_595" data-name="路径 595" d="M2028.253,816.4l12.739,23.573h34.626V816.4Zm45.365,21.573h-31.433L2031.608,818.4h42.01Z" fill="red"/>
    <path id="路径_596" data-name="路径 596" d="M2050.8,827.647a3.908,3.908,0,0,1,3.356,2.447l.248.635h1.533l.713-.005.233-.673a3.282,3.282,0,0,1,6.323-.005l1.9-.633c-.051-.154-1.3-3.766-5.057-3.766a5.21,5.21,0,0,0-4.559,2.72,5.535,5.535,0,0,0-4.687-2.72c-3.759,0-5.007,3.612-5.058,3.766l1.9.638A3.561,3.561,0,0,1,2050.8,827.647Z" fill="red"/>
  </g>
</svg>
