<svg xmlns="http://www.w3.org/2000/svg" width="48.078" height="20.455" viewBox="0 0 48.078 20.455">
  <g id="_020092" data-name="020092" transform="translate(-2583.86 -443.882)">
    <path id="路径_663" data-name="路径 663" d="M2631.938,454.048c-.311-.415-7.816-10.166-24.437-10.166-16.648,0-23.363,9.785-23.641,10.2l.039.026-.039.026c.278.416,6.993,10.2,23.641,10.2,16.621,0,24.126-9.752,24.437-10.167l-.082-.061Zm-24.437,8.715c-12.936,0-19.633-6.331-21.656-8.657,2.017-2.328,8.686-8.651,21.656-8.651,12.9,0,20.134,6.291,22.4,8.654C2627.635,456.472,2620.4,462.763,2607.5,462.763Z" fill="red"/>
    <path id="路径_664" data-name="路径 664" d="M2608.9,455.209V448.6h-2v6.607a3.143,3.143,0,1,0,2,0Zm-1,4.107a1.143,1.143,0,1,1,1.143-1.142A1.144,1.144,0,0,1,2607.9,459.316Z" fill="red"/>
  </g>
</svg>
