<svg xmlns="http://www.w3.org/2000/svg" width="54.101" height="25.175" viewBox="0 0 54.101 25.175">
  <path id="_020093" data-name="020093" d="M2632.849,544.671c-.328-.136-8.157-3.315-20.756-3.315-22.142,0-32.432,11.979-32.86,12.489l.118.1-.118.1c.428.51,10.718,12.489,32.86,12.489,12.6,0,20.428-3.18,20.756-3.315l.485-.2V544.872Zm-1.088,8.865v8.409a60.359,60.359,0,0,1-19.668,3.012c-17.845,0-27.885-8.231-30.771-11.016,2.879-2.786,12.892-11.012,30.771-11.012a60.361,60.361,0,0,1,19.668,3.012Z" transform="translate(-2579.233 -541.356)" fill="red"/>
</svg>
