<svg xmlns="http://www.w3.org/2000/svg" width="48.077" height="20.455" viewBox="0 0 48.077 20.455">
  <path id="_020088" data-name="020088" d="M2549.431,923.166C2549.12,922.751,2541.615,913,2525,913c-16.649,0-23.364,9.785-23.641,10.2l.038.025-.038.026c.277.417,6.992,10.2,23.641,10.2,16.62,0,24.125-9.751,24.436-10.166l-.082-.062ZM2525,931.882c-12.936,0-19.633-6.332-21.656-8.657,2.016-2.329,8.686-8.652,21.656-8.652,12.9,0,20.133,6.292,22.4,8.654C2545.128,925.59,2537.891,931.882,2525,931.882Z" transform="translate(-2501.354 -913)" fill="red"/>
</svg>
