<svg xmlns="http://www.w3.org/2000/svg" width="49.523" height="21.483" viewBox="0 0 49.523 21.483">
  <g id="_020094" data-name="020094" transform="translate(-2581.787 -636.517)">
    <path id="路径_650" data-name="路径 650" d="M2609.827,636.517c-18.894,0-27.675,10.222-28.04,10.657l.1.084-.1.084c.365.436,9.146,10.658,28.04,10.658,10.752,0,17.433-2.713,17.713-2.829l.414-.171V639.517l-.414-.171C2627.26,639.23,2620.579,636.517,2609.827,636.517Zm16.784,10.394v7.176a51.522,51.522,0,0,1-16.784,2.57c-15.227,0-23.795-7.024-26.258-9.4,2.457-2.378,11-9.4,26.258-9.4a51.513,51.513,0,0,1,16.784,2.571Z" fill="red"/>
    <rect id="矩形_385" data-name="矩形 385" width="2" height="13.427" transform="translate(2629.311 640.874)" fill="red"/>
  </g>
</svg>
