<svg xmlns="http://www.w3.org/2000/svg" width="44.649" height="18" viewBox="0 0 44.649 18">
  <path id="_020087" data-name="020087" d="M2545,833.429l6.649-5.668-1.3-1.522L2545,830.8v-2.244a3.561,3.561,0,0,0-3.557-3.557h-27.886a3.561,3.561,0,0,0-3.557,3.557V833h-3v2h3v4.443a3.561,3.561,0,0,0,3.557,3.557h27.886a3.561,3.561,0,0,0,3.557-3.557v-1.185l5.451,3.578,1.1-1.672-6.549-4.3Zm-2,6.014a1.558,1.558,0,0,1-1.557,1.557h-27.886a1.558,1.558,0,0,1-1.557-1.557V828.557a1.558,1.558,0,0,1,1.557-1.557h27.886a1.558,1.558,0,0,1,1.557,1.557v10.886Z" transform="translate(-2507 -825)" fill="red"/>
</svg>
