<svg xmlns="http://www.w3.org/2000/svg" width="37.793" height="49.231" viewBox="0 0 37.793 49.231">
  <path id="_020036" data-name="020036" d="M1606.66,204.149V192.5l2.534,2.67,1.451-1.377-3.985-4.2V176.668l-7.389-12.27-7.39,12.27v12.925l-3.985,4.2,1.451,1.377,2.534-2.671v11.65h-11.214v2.681l.489.29c.245.146.558.369.945.642a29.768,29.768,0,0,0,18.266,5.867c11.522,0,17.571-6.325,17.823-6.594l.27-.288v-2.6Zm-12.779-26.2h10.779v26.183h-10.779Zm10.01-2h-9.24l4.62-7.671Zm-3.524,35.683a27.517,27.517,0,0,1-17.084-5.48h32.935A24.075,24.075,0,0,1,1600.367,211.629Z" transform="translate(-1580.667 -164.398)" fill="red"/>
</svg>
