<svg xmlns="http://www.w3.org/2000/svg" width="44.174" height="44.174" viewBox="0 0 44.174 44.174">
  <path id="_020164" data-name="020164" d="M4100.843,152.4a22.028,22.028,0,0,0,0-30.64v-.567h-.567a22.028,22.028,0,0,0-30.64,0h-.567v.567a22.028,22.028,0,0,0,0,30.64v.567h.567a22.028,22.028,0,0,0,30.64,0h.567Zm4.65-15.32a20.44,20.44,0,0,1-4.65,13v-26A20.437,20.437,0,0,1,4105.493,137.08Zm-34.874-14.337h28.674v28.674h-28.674Zm14.337-6.2a20.437,20.437,0,0,1,13,4.65h-26A20.434,20.434,0,0,1,4084.956,116.543Zm-20.537,20.537a20.436,20.436,0,0,1,4.65-13v26A20.439,20.439,0,0,1,4064.419,137.08Zm20.537,20.537a20.439,20.439,0,0,1-13-4.65h26A20.442,20.442,0,0,1,4084.956,157.617Z" transform="translate(-4062.869 -114.993)" fill="red"/>
</svg>
