<svg xmlns="http://www.w3.org/2000/svg" width="44.463" height="49.82" viewBox="0 0 44.463 49.82">
  <path id="_020188" data-name="020188" d="M4369.819,491.611l-3.448,3.448v-.112h-3.107l1.921-1.922-1.414-1.414-3.335,3.336h-20.264l1.921-1.922-1.414-1.414-3.335,3.336h-3.219l1.921-1.922-1.414-1.414-7.862,7.862,1.414,1.414,3.941-3.94h3.219l-2.526,2.526,1.414,1.414,3.94-3.94h9.855v27.34h-7.572v17.144H4357.6V524.287h-7.572v-27.34h8.409l-2.526,2.526,1.414,1.414,3.94-3.94h3.219l-2.526,2.526,1.414,1.414,7.862-7.862Zm-14.22,47.82h-13.144V526.287H4355.6Z" transform="translate(-4326.77 -491.611)" fill="red"/>
</svg>
