<svg xmlns="http://www.w3.org/2000/svg" width="40.46" height="42.017" viewBox="0 0 40.46 42.017">
  <g id="_020196" data-name="020196" transform="translate(-4552.932 -500.645)">
    <path id="路径_511" data-name="路径 511" d="M4569.866,510.429l2.153-4.892,2.154-4.892-4.892,2.154-4.892,2.154,2.738,2.738Z" fill="red"/>
    <path id="路径_512" data-name="路径 512" d="M4593.392,519.442h-12.608l-7.179-7.178,2.9-2.9,2.164,2.163,2.153-4.892,2.154-4.892-4.892,2.154-4.892,2.154,1.9,1.9-4.312,4.313,7.178,7.178h-7.073l-7.178-7.178,4-4-1.414-1.414-5.412,5.412,7.178,7.178h-15.122v2h8.018v21.22h23.22v-21.22h9.222Zm-11.222,21.22h-19.22v-19.22h19.22Z" fill="red"/>
  </g>
</svg>
