<svg xmlns="http://www.w3.org/2000/svg" width="19.465" height="53.061" viewBox="0 0 19.465 53.061">
  <g id="_020186" data-name="020186" transform="translate(-4339.232 -302.611)">
    <path id="路径_499" data-name="路径 499" d="M4349.25,313.783a5.955,5.955,0,0,0,2.256.458c3.719,0,7.011-3.237,7.191-3.417l-1.413-1.415c-.046.046-4.663,4.567-8.18,2.039a7.165,7.165,0,0,1-2.541-8.148l-1.878-.689a9.175,9.175,0,0,0,2.565,9.914v29.168l-8.018,13.979H4357.2l-7.948-13.858Zm-6.565,39.889,5.53-9.642,5.53,9.642Z" fill="red"/>
    <rect id="矩形_365" data-name="矩形 365" width="2" height="11.452" transform="translate(4340.873 325.979)" fill="red"/>
    <rect id="矩形_366" data-name="矩形 366" width="2" height="11.452" transform="translate(4352.824 325.979)" fill="red"/>
  </g>
</svg>
