<svg xmlns="http://www.w3.org/2000/svg" width="46.367" height="48.66" viewBox="0 0 46.367 48.66">
  <path id="_020199" data-name="020199" d="M4837.6,153.241a22.145,22.145,0,0,0-18.01-27.622,4.933,4.933,0,0,0-9.856.317c0,.131.01.258.02.385A22.141,22.141,0,0,0,4794.7,152.8a4.931,4.931,0,0,0,4.34,8.689,22.119,22.119,0,0,0,34.237.125,5,5,0,0,0,.859.079,4.935,4.935,0,0,0,3.465-8.449Zm-21.394,14.8a20.488,20.488,0,0,1-15.673-7.291,4.934,4.934,0,0,0-4.346-8.711,20.508,20.508,0,0,1,13.954-24.139,4.932,4.932,0,0,0,9.287-.66,20.515,20.515,0,0,1,16.745,25.026,4.932,4.932,0,0,0-4.525,8.751A20.482,20.482,0,0,1,4816.211,168.038Z" transform="translate(-4792.708 -121)" fill="red"/>
</svg>
