<svg xmlns="http://www.w3.org/2000/svg" width="61.13" height="31.095" viewBox="0 0 61.13 31.095">
  <g id="_020127" data-name="020127" transform="translate(-3056.808 -819)">
    <path id="路径_700" data-name="路径 700" d="M3087.852,835.547h30.086v-2h-30.084A15.445,15.445,0,0,0,3080.037,821h23.353v-2h-30.615v.006c-.14,0-.279-.006-.42-.006a15.547,15.547,0,0,0,0,31.095c.094,0,.185-.012.278-.014v.014h30.757v-2h-23.431A15.55,15.55,0,0,0,3087.852,835.547Zm-15.5,12.548a13.547,13.547,0,0,1,0-27.095c.131,0,.262,0,.392.005a13.548,13.548,0,0,1-.392,27.09Z" fill="red"/>
    <path id="路径_701" data-name="路径 701" d="M3067.474,835.26a4.709,4.709,0,0,0,1.2,3.743c2.117,2.307,6.263,2.333,6.438,2.333v-2c-.95,0-3.7-.3-4.965-1.686a2.755,2.755,0,0,1-.682-2.219c.34-3.963,5.4-3.8,5.624-3.791l.043-1,.046-1C3072.688,829.535,3067.877,830.555,3067.474,835.26Z" fill="red"/>
  </g>
</svg>
