<svg xmlns="http://www.w3.org/2000/svg" width="29.565" height="47.415" viewBox="0 0 29.565 47.415">
  <path id="_020109" data-name="020109" d="M2852.433,563.525l1.414-1.414-13.782-13.782V535.585h-2v13.222l-13.783,13.747,1.413,1.416,12.37-12.339V575.1c-2.359.667-3.856,3.364-3.926,3.492l-.122.224V583h2v-.727h6.1V583h2v-4.214l-.146-.239c-1.186-1.951-2.512-3.092-3.9-3.46v-23.93Zm-10.32,15.828v.92h-6.1v-.936c.486-.787,1.655-2.255,2.935-2.373h.347C2840.445,577.062,2841.415,578.26,2842.113,579.353Z" transform="translate(-2824.282 -535.585)" fill="red"/>
</svg>
