<svg xmlns="http://www.w3.org/2000/svg" width="57.126" height="39.217" viewBox="0 0 57.126 39.217">
  <g id="_020198" data-name="020198" transform="translate(-4549.073 -683.783)">
    <path id="路径_514" data-name="路径 514" d="M4573,694.472l-3.083-1.846-3.083-1.846L4566,695.67l-.833,4.889,3.916-3.043Z" fill="red"/>
    <path id="路径_515" data-name="路径 515" d="M4597.826,721c-.841-3.686-5.082-18.4-19.126-19.533l4.294-7.818,1.762,1.055.833-4.889.832-4.889-3.916,3.043-3.915,3.044,2.686,1.608-4.813,8.764-.014-17.6h-2.734l-4.688,8.2,1.736.992,3.686-6.451v14.993c-16.272,1.679-19.8,19.054-19.838,19.236l1.262.242h-6.8v2H4606.2v-2Zm-21.387-17.609c14.1-.323,18.378,13.44,19.348,17.609H4556.6C4556.951,719.438,4560.827,703.766,4576.439,703.391Z" fill="red"/>
  </g>
</svg>
