<svg xmlns="http://www.w3.org/2000/svg" width="49.496" height="57" viewBox="0 0 49.496 57">
  <path id="_020192" data-name="020192" d="M4598,133.27l-2.877,2.876h-2.454l1.463-1.462-1.414-1.414-2.877,2.876h-12.9c8.193-13.152,8.2-13.964,8.2-14.272h-2a.678.678,0,0,1,.022-.184c-.259.847-3.859,6.858-7.476,12.688V120h-2.244l-4,7.221-1.761-.967-.517,3.9-.516,3.9,3.017-2.53,3.017-2.531-1.486-.816,2.487-4.5v12.458h-11.669l1.462-1.462-1.414-1.414-2.877,2.876h-2.454l1.463-1.462-1.414-1.414-6.867,6.866,1.414,1.414,3.4-3.4h2.454l-1.99,1.99,1.414,1.414,3.4-3.4h13.669v23.627h-6.613V177H4582.3V161.773h-6.614V138.146h12.153l-1.99,1.99,1.414,1.414,3.4-3.4h2.454l-1.99,1.99,1.414,1.414,6.867-6.866ZM4580.3,175h-11.227V163.773H4580.3Z" transform="translate(-4549.92 -120)" fill="red"/>
</svg>
