<svg xmlns="http://www.w3.org/2000/svg" width="61.129" height="31.095" viewBox="0 0 61.129 31.095">
  <g id="_020124" data-name="020124" transform="translate(-3055.833 -543)">
    <path id="路径_694" data-name="路径 694" d="M3086.877,559.547h30.085v-2h-30.084A15.441,15.441,0,0,0,3079.061,545h23.354v-2H3071.8v.006q-.209-.006-.419-.006a15.547,15.547,0,0,0,0,31.095c.094,0,.184-.012.278-.014v.014h30.757v-2h-23.432A15.55,15.55,0,0,0,3086.877,559.547Zm-15.5,12.548a13.547,13.547,0,0,1,0-27.095c.131,0,.262,0,.391.005a13.548,13.548,0,0,1-.391,27.09Z" fill="red"/>
    <path id="路径_695" data-name="路径 695" d="M3071.322,552.108a6.031,6.031,0,1,0,6.031,6.031A6.037,6.037,0,0,0,3071.322,552.108Zm0,10.061a4.031,4.031,0,1,1,4.031-4.03A4.035,4.035,0,0,1,3071.322,562.169Z" fill="red"/>
  </g>
</svg>
