<svg xmlns="http://www.w3.org/2000/svg" width="57.281" height="35.87" viewBox="0 0 57.281 35.87">
  <path id="_020190" data-name="020190" d="M4365.753,788.993c-.832-3.649-5-18-18.874-18.58l6.789-10.3.221,10.879h2.534l5.178-8.285,2.177,1.3.757-4.444.757-4.444-3.56,2.766-3.559,2.767,1.712,1.024-4.053,6.485-.227-11.172h-2.275l-8.656,13.131.434.285c-16.64.667-20.187,18.218-20.222,18.4l.98.188h-9v2h57.281v-2Zm-20.22-16.606c13.218-.326,17.247,12.587,18.181,16.606H4326.89C4327.295,787.118,4330.88,772.74,4345.533,772.387Z" transform="translate(-4316.869 -755.123)" fill="red"/>
</svg>
