<svg xmlns="http://www.w3.org/2000/svg" width="52.914" height="63" viewBox="0 0 52.914 63">
  <path id="_020145" data-name="020145" d="M3440.043,257.395l-2.957,2.957h-2.172l1.543-1.543-1.414-1.414-2.957,2.957H3415.5V255.42l6.592-6.593-1.414-1.414-5.178,5.178V246h-2v6.457l-4.767-5.137-1.466,1.36,6.233,6.718v4.954h-13.586l1.543-1.543-1.414-1.414-2.957,2.957h-2.172l1.543-1.543-1.414-1.414-6.5,6.5,1.414,1.414,2.957-2.957h2.172l-1.543,1.543,1.414,1.414,2.957-2.957H3413.5V283H3402v26h26V283h-12.5V262.352h14.586l-1.543,1.543,1.414,1.414,2.957-2.957h2.172l-1.543,1.543,1.414,1.414,6.5-6.5ZM3426,307h-22V285h22Z" transform="translate(-3388.543 -246)" fill="red"/>
</svg>
