<svg xmlns="http://www.w3.org/2000/svg" width="61.13" height="31.095" viewBox="0 0 61.13 31.095">
  <g id="_020126" data-name="020126" transform="translate(-3056.523 -728)">
    <path id="路径_698" data-name="路径 698" d="M3087.568,744.547h30.085v-2h-30.084A15.444,15.444,0,0,0,3079.752,730H3103.1v-2H3072.49v.006c-.139,0-.279-.006-.419-.006a15.547,15.547,0,1,0,0,31.095c.094,0,.184-.012.278-.014v.014H3103.1v-2h-23.431A15.551,15.551,0,0,0,3087.568,744.547Zm-15.5,12.548a13.547,13.547,0,1,1,0-27.095c.131,0,.261,0,.39.005a13.548,13.548,0,0,1-.39,27.09Z" fill="red"/>
    <path id="路径_699" data-name="路径 699" d="M3073.071,749.895V737.7h-2.47l-9.028,12.038,1.6,1.2,7.9-10.532V753.15h2.292l8.279-12.943-1.685-1.078Z" fill="red"/>
  </g>
</svg>
