<svg xmlns="http://www.w3.org/2000/svg" width="47.748" height="47.757" viewBox="0 0 47.748 47.757">
  <path id="_020163" data-name="020163" d="M4021.617,980.867a23.714,23.714,0,0,0-3.271-12.039l.081-.141h-.162a23.855,23.855,0,0,0-41.044,0h-.163l.081.141a23.857,23.857,0,0,0,20.6,35.913l.006.009.005-.009A23.9,23.9,0,0,0,4021.617,980.867Zm-23.874-21.925a21.92,21.92,0,0,1,18.22,9.745h-36.441A21.918,21.918,0,0,1,3997.743,958.942Zm-17.32,11.693h34.639l-17.319,30.2Zm-4.605,10.232a21.776,21.776,0,0,1,2.456-10.063l18.33,31.958A21.952,21.952,0,0,1,3975.818,980.867Zm23.065,21.895,18.329-31.958a21.909,21.909,0,0,1-18.329,31.958Z" transform="translate(-3973.869 -956.993)" fill="red"/>
</svg>
