<svg xmlns="http://www.w3.org/2000/svg" width="54.696" height="57.333" viewBox="0 0 54.696 57.333">
  <g id="_020159" data-name="020159" transform="translate(-3968.173 -578.993)">
    <path id="路径_466" data-name="路径 466" d="M4002.527,609.593l9.818-17.852-1.752-.964-8.462,15.387V588.526h-2.5l-9.822,16.966,1.73,1,8.6-14.847v17.946Z" fill="red"/>
    <path id="路径_467" data-name="路径 467" d="M4008.886,617.859a20.067,20.067,0,1,0-13.9,0h-14.19l-12.622,9.709,12.65,8.758h42.046V617.859Zm-25.017-18.8a18.067,18.067,0,1,1,18.067,18.066A18.088,18.088,0,0,1,3983.869,599.06Zm37,35.266h-39.421l-9.884-6.843,9.912-7.624h39.393Z" fill="red"/>
  </g>
</svg>
