<svg xmlns="http://www.w3.org/2000/svg" width="61.13" height="31.095" viewBox="0 0 61.13 31.095">
  <path id="_020123" data-name="020123" d="M3087.045,466.547h30.085v-2h-30.084A15.443,15.443,0,0,0,3079.229,452h23.353v-2h-30.615v.006c-.14,0-.279-.006-.42-.006a15.548,15.548,0,0,0,0,31.1c.094,0,.185-.012.278-.014v.014h30.757v-2h-23.431A15.55,15.55,0,0,0,3087.045,466.547Zm-15.5,12.548a13.548,13.548,0,0,1,0-27.1c.131,0,.262,0,.391.005a13.548,13.548,0,0,1-.391,27.09Z" transform="translate(-3056 -450)" fill="red"/>
</svg>
