<svg xmlns="http://www.w3.org/2000/svg" width="57.452" height="25" viewBox="0 0 57.452 25">
  <g id="_020174" data-name="020174" transform="translate(-4156.031 -130.993)">
    <path id="路径_480" data-name="路径 480" d="M4213.483,155.993l-9.614-8.452V130.993h-37v16.278l-10.838,8.722Zm-51.777-2,6.212-5h34.574l5.687,5Zm7.163-21h33v14h-33Z" fill="red"/>
    <path id="路径_481" data-name="路径 481" d="M4178.235,137.227a2.883,2.883,0,1,0,2.882,2.883A2.883,2.883,0,0,0,4178.235,137.227Z" fill="red"/>
    <path id="路径_482" data-name="路径 482" d="M4185.735,137.227a2.883,2.883,0,1,0,2.882,2.883A2.883,2.883,0,0,0,4185.735,137.227Z" fill="red"/>
    <path id="路径_483" data-name="路径 483" d="M4193.235,137.227a2.883,2.883,0,1,0,2.882,2.883A2.883,2.883,0,0,0,4193.235,137.227Z" fill="red"/>
  </g>
</svg>
