<svg xmlns="http://www.w3.org/2000/svg" width="30.54" height="61.722" viewBox="0 0 30.54 61.722">
  <path id="_020144" data-name="020144" d="M3423.792,175.194l6.27,1.324-3.854-5.12-3.763-5,3.763-5,3.854-5.12-6.27,1.324-6.27,1.325,2.416,3.795,2.341,3.676-1.752,2.752-4.038-2.57,4.034-2.474-1.046-1.705-4.866,2.984-4.741-3.017,2.192-3.441-6.27-1.325-6.27-1.324,3.853,5.12,3.763,5-3.763,5-3.853,5.12,6.27-1.324,6.27-1.324-2.095-3.29,3.533-2.166V192H3402v26h26V192h-12.5V168.322l3.953,2.515-1.931,3.033ZM3426,216h-22V194h22Zm-13.286-49.451-3.821,2.344-1.588-2.5,1.491-2.342Z" transform="translate(-3399.522 -156.278)" fill="red"/>
</svg>
