<svg xmlns="http://www.w3.org/2000/svg" width="50" height="50" viewBox="0 0 50 50">
  <g id="_020157" data-name="020157" transform="translate(-3974.257 -397.659)">
    <path id="路径_450" data-name="路径 450" d="M3999.257,403.159a19.5,19.5,0,1,0,19.5,19.5A19.522,19.522,0,0,0,3999.257,403.159Zm0,37a17.5,17.5,0,1,1,17.5-17.5A17.519,17.519,0,0,1,3999.257,440.159Z" fill="red"/>
    <path id="路径_451" data-name="路径 451" d="M3999.257,397.659a25,25,0,1,0,25,25A25.028,25.028,0,0,0,3999.257,397.659Zm0,48a23,23,0,1,1,23-23A23.026,23.026,0,0,1,3999.257,445.659Z" fill="red"/>
    <path id="路径_452" data-name="路径 452" d="M4000.31,429.438V412.409h-2.477l-9.539,16.477,1.73,1,8.285-14.31v17.331h2.374l9.535-17.336-1.752-.964Z" fill="red"/>
  </g>
</svg>
