<svg xmlns="http://www.w3.org/2000/svg" width="38.033" height="57" viewBox="0 0 38.033 57">
  <g id="_020141" data-name="020141" transform="translate(-1362.79 -808)">
    <path id="路径_718" data-name="路径 718" d="M3331.053,840.492l-8.139,13.8V841H3320.4l-4.682,6.554-1.911-1.485-1.485,4.77-1.485,4.77,4.255-2.617,4.255-2.617-2.049-1.592,3.616-5.062v13.875h2.371l9.49-16.086Z" transform="translate(-1940)" fill="red"/>
    <path id="路径_721" data-name="路径 721" d="M3324.279,825.932h5.635l-1.362,1.361,1.415,1.414,2.775-2.775h1.892l-1.361,1.361,1.414,1.414,6.136-6.137-1.414-1.414-2.775,2.776h-1.892l1.361-1.362-1.414-1.414-2.775,2.776h-7.635v-3.427a6.87,6.87,0,0,0,3.144.765c.094,0,.152,0,.164,0h1.692v-2h-1.739c-.025,0-2.46.082-3.261-1.5v-2.033h5v-2h-5V813c0-1.951,2.582-2.833,3.138-3h1.862v-2h-2l-.243.03c-.194.049-4.757,1.232-4.757,4.97v10.932h-8.58l1.361-1.362-1.414-1.414-2.775,2.776h-1.892l1.361-1.362-1.414-1.414-6.136,6.137,1.414,1.414,2.775-2.775h1.892l-1.361,1.361,1.414,1.414,2.775-2.775h10.58V831h-17.472v34h34V831h-14.528ZM3336.807,863h-30V833h30Z" transform="translate(-1940)" fill="red"/>
  </g>
</svg>
