<svg xmlns="http://www.w3.org/2000/svg" width="36" height="36" viewBox="0 0 36 36">
  <g id="_020178" data-name="020178" transform="translate(-4164.801 -497.993)">
    <path id="路径_487" data-name="路径 487" d="M4182.8,497.993a18,18,0,1,0,18,18A18,18,0,0,0,4182.8,497.993Zm.068,35.41-15-26.154h30Z" fill="red"/>
    <path id="路径_488" data-name="路径 488" d="M4177.369,512.743a2.266,2.266,0,1,0,2,2.25A2.138,2.138,0,0,0,4177.369,512.743Zm0,3.5a1.281,1.281,0,1,1,1-1.25A1.147,1.147,0,0,1,4177.369,516.243Z" fill="red"/>
    <path id="路径_489" data-name="路径 489" d="M4185.369,512.743a2.266,2.266,0,1,0,2,2.25A2.138,2.138,0,0,0,4185.369,512.743Zm0,3.5a1.281,1.281,0,1,1,1-1.25A1.147,1.147,0,0,1,4185.369,516.243Z" fill="red"/>
    <rect id="矩形_363" data-name="矩形 363" width="1" height="4.5" transform="translate(4181.271 512.743)" fill="red"/>
    <rect id="矩形_364" data-name="矩形 364" width="1" height="4.5" transform="translate(4188.271 512.743)" fill="red"/>
  </g>
</svg>
