<svg xmlns="http://www.w3.org/2000/svg" width="34" height="57" viewBox="0 0 34 57">
  <g id="_020140" data-name="020140" transform="translate(-3302 -713)">
    <path id="路径_719" data-name="路径 719" d="M3321,736V725.505a6.87,6.87,0,0,0,3.144.765c.094,0,.152,0,.164,0H3326v-2h-1.739c-.024,0-2.46.082-3.261-1.5v-2.033h5v-2h-5V718c0-1.951,2.582-2.833,3.138-3H3326v-2h-2l-.243.03c-.194.049-4.757,1.232-4.757,4.97v18h-17v34h34V736Zm13,32h-30V738h30Z" fill="red"/>
    <path id="路径_720" data-name="路径 720" d="M3317.433,754.375l-2.049-1.592L3319,747.72v13.875h2.371l9.49-16.086-1.723-1.017-8.139,13.8V745h-2.515l-4.682,6.554-1.91-1.485-1.485,4.77-1.485,4.77,4.255-2.617Z" fill="red"/>
  </g>
</svg>
