<svg xmlns="http://www.w3.org/2000/svg" width="27.671" height="50.558" viewBox="0 0 27.671 50.558">
  <path id="_020105" data-name="020105" d="M2859.474,182.148l1.414-1.414L2848.052,167.9V156.04h-2v12.3l-12.835,12.8,1.412,1.416,11.423-11.4v17.085a4.651,4.651,0,0,0-1.888-.7,6.108,6.108,0,0,0-5.226,1.308c-1.01.95-2.267,2.132-1.7,5.306l.045.254,9.841,12.177,9.68-12.161.051-.222c.075-.327.679-3.248-1.092-4.913-1.606-1.51-2.854-2.065-6.437-1.584l-.245.066a5.89,5.89,0,0,0-1.025.589V170.727Zm-19.166,8.17a4.192,4.192,0,0,1,3.592-.783,3.493,3.493,0,0,1,2.325,1.686l.47.9h-1.624v2h2.189l-3.189,3.8v1.718l-4.908-6.073A3,3,0,0,1,2840.308,190.318Zm9.43-.637c2.96-.382,3.541.035,4.65,1.078.721.677.664,2.1.552,2.8l-7.831,9.839-2.892-3.578h5.438v-2h-2.89l3.269-3.9v-1.8h-2.6l.525-.829A4.71,4.71,0,0,1,2849.738,189.681Z" transform="translate(-2833.217 -156.04)" fill="red"/>
</svg>
