<svg xmlns="http://www.w3.org/2000/svg" width="62" height="20" viewBox="0 0 62 20">
  <path id="_020132" data-name="020132" d="M3191.9,373H3211v-2h-19.1c-.591-2.888-3.73-5.373-8.378-7h13.013v-2h-25.621v.007c-.138,0-.271-.009-.409-.009-12.056,0-21.5,4.393-21.5,10s9.444,10,21.5,10c.138,0,.271-.008.409-.009V382h25.167v-2h-12.559C3188.165,378.373,3191.3,375.888,3191.9,373Zm-21.4,7c-11.665,0-19.5-4.137-19.5-8s7.835-8,19.5-8,19.5,4.137,19.5,8S3182.165,380,3170.5,380Z" transform="translate(-3149 -362)" fill="red"/>
</svg>
