<svg xmlns="http://www.w3.org/2000/svg" width="54.027" height="53.377" viewBox="0 0 54.027 53.377">
  <path id="_020185" data-name="020185" d="M4375.162,213.316l-3.336,3.335h-3.219l1.921-1.921-1.414-1.414-3.335,3.335h-29.828l1.921-1.921-1.414-1.414-3.335,3.335h-3.22l1.922-1.921-1.414-1.414-7.862,7.862,1.414,1.414,3.94-3.941h3.22l-2.527,2.527,1.414,1.414,3.941-3.941h15.082V247.72a9.513,9.513,0,1,0,2,0V218.651h12.746l-2.527,2.527,1.415,1.414,3.94-3.941h3.219l-2.526,2.527,1.414,1.414,7.862-7.862Zm-17.616,43.864a7.513,7.513,0,1,1-7.513-7.513A7.522,7.522,0,0,1,4357.546,257.18Z" transform="translate(-4322.549 -213.316)" fill="red"/>
</svg>
