<svg xmlns="http://www.w3.org/2000/svg" width="35.529" height="62" viewBox="0 0 35.529 62">
  <path id="_020193" data-name="020193" d="M4596.529,212.732a.71.71,0,0,1,.026-.2c-.231.715-3.043,5.42-5.945,10.109V211h-2.138l-3.4,6.134-1.334-.733-.432,3.27-.416,3.145c-6.808-5.568-14.7.713-14.775.778l-.9.73,7,6.418v18.307H4563V273h23.951V249.049h-10.73V232.575l7,6.417.64-1.007c2.07-3.257,4.533-10.593-.9-15.112l2.446-2.051,2.527-2.12-1.1-.606,1.78-3.216v11.291h2.156l.294-.47c7.469-11.951,7.469-12.638,7.469-12.969ZM4584.951,271H4565V251.049h19.951Zm-2.2-35.146-12.414-11.381c2.044-1.293,6.957-3.671,11.306-.094S4583.913,233.533,4582.756,235.854Z" transform="translate(-4563 -211)" fill="red"/>
</svg>
