<svg xmlns="http://www.w3.org/2000/svg" width="61.13" height="31.095" viewBox="0 0 61.13 31.095">
  <g id="_020128" data-name="020128" transform="translate(-3055.153 -916)">
    <path id="路径_702" data-name="路径 702" d="M3086.2,932.547h30.085v-2H3086.2A15.444,15.444,0,0,0,3078.382,918h23.353v-2H3071.12v.006q-.209-.006-.419-.006a15.547,15.547,0,1,0,0,31.095c.093,0,.184-.012.278-.014v.014h30.756v-2H3078.3A15.548,15.548,0,0,0,3086.2,932.547Zm-15.5,12.548a13.547,13.547,0,1,1,0-27.095c.131,0,.261,0,.391.005a13.548,13.548,0,0,1-.391,27.09Z" fill="red"/>
    <path id="路径_703" data-name="路径 703" d="M3072.964,931.3l1.454,1.058-3.686,4.84V924.729h-2.47l-9.028,12.038,1.6,1.2,7.9-10.531V940.18h2.24l5.063-6.649,1.616,1.176,1.022-3.867,1.022-3.867-3.366,2.162Z" fill="red"/>
  </g>
</svg>
