<svg xmlns="http://www.w3.org/2000/svg" width="61.13" height="31.095" viewBox="0 0 61.13 31.095">
  <g id="_020125" data-name="020125" transform="translate(-3055.147 -637)">
    <path id="路径_696" data-name="路径 696" d="M3086.192,653.547h30.085v-2h-30.083A15.445,15.445,0,0,0,3078.376,639h23.354v-2h-30.616v.006c-.139,0-.279-.006-.419-.006a15.547,15.547,0,1,0,0,31.095c.094,0,.185-.012.278-.014v.014h30.757v-2H3078.3A15.548,15.548,0,0,0,3086.192,653.547Zm-15.5,12.548a13.547,13.547,0,1,1,0-27.095c.131,0,.262,0,.391.005a13.548,13.548,0,0,1-.391,27.09Z" fill="red"/>
    <path id="路径_697" data-name="路径 697" d="M3081.39,653.709l.043-.069-.211-.157-.046-.061c-.138-.184-3.456-4.5-10.74-4.5-7.028,0-10.053,4.016-10.391,4.5l-.294.2.089.134-.073.119.278.189c.337.479,3.369,4.5,10.391,4.5,7.284,0,10.6-4.317,10.74-4.5l.292-.244Zm-8.921-3.005a12.211,12.211,0,0,1,6.765,3.035,12.211,12.211,0,0,1-6.764,3.034,3.547,3.547,0,0,0,0-6.069Zm-3.6,6.132a11.081,11.081,0,0,1-6.942-3.1,11.038,11.038,0,0,1,6.943-3.1,3.54,3.54,0,0,0,0,6.2Z" fill="red"/>
  </g>
</svg>
