<svg xmlns="http://www.w3.org/2000/svg" width="63.237" height="46.148" viewBox="0 0 63.237 46.148">
  <g id="_020160" data-name="020160" transform="translate(-3966.869 -672.993)">
    <path id="路径_468" data-name="路径 468" d="M4010.437,694.683v-13.9H4008.1l-8.083,13.963,1.73,1,6.688-11.552v14.177h2.25l8.08-14.691-1.752-.964Z" fill="red"/>
    <path id="路径_469" data-name="路径 469" d="M4017.986,704.173a16.59,16.59,0,1,0-15.78,0h-25.73l10.619-9.046-1.3-1.522-12.407,10.568h-6.522v2h6.463l12.391,12.968,1.446-1.382-11.07-11.586h54.007v-2Zm-22.48-14.59a14.59,14.59,0,1,1,14.59,14.59A14.606,14.606,0,0,1,3995.506,689.583Z" fill="red"/>
  </g>
</svg>
