<svg xmlns="http://www.w3.org/2000/svg" width="61.526" height="19.456" viewBox="0 0 61.526 19.456">
  <path id="_020189" data-name="020189" d="M4372.351,690a6.245,6.245,0,0,1-1.335-4.361c.268-2.364,1.286-3.933,3.026-4.663a6.068,6.068,0,0,1,2.709-.427l.239-1.986a7.717,7.717,0,0,0-5.271,1.476,7.2,7.2,0,0,0-2.515,4.324l-.073-.037-.76,1.493c-.038.073-.246.224-.765.27a4.382,4.382,0,0,1-3.041-.9,5.663,5.663,0,0,0-4.492-1.855,3.38,3.38,0,0,0-2.815,1.818,2.409,2.409,0,0,1-1.842,1.189,3.707,3.707,0,0,1-2.951-.781,5.973,5.973,0,0,0-6.574-.945,5.809,5.809,0,0,0-1.251.819c-.864.686-1.385,1.1-3.668-.693a6,6,0,0,0-4.466-1.5,4.552,4.552,0,0,0-1.284.36,9.712,9.712,0,1,0-.153,2.532c.311-.382,1.879-2,4.668.185,3.262,2.56,4.713,1.826,6.147.686a4.192,4.192,0,0,1,.826-.561,3.97,3.97,0,0,1,4.355.549,5.511,5.511,0,0,0,3.773,1.4,5.823,5.823,0,0,0,.886-.067,4.356,4.356,0,0,0,3.3-2.232,1.361,1.361,0,0,1,1.208-.757,3.708,3.708,0,0,1,2.736,1.068c.9,1.184,3.207,1.826,4.812,1.686a3.582,3.582,0,0,0,1.366-.385,7.176,7.176,0,0,0,1.726,3.655,7.335,7.335,0,0,0,5.633,2.132c.129,0,.26,0,.391-.006l-.061-2A5.641,5.641,0,0,1,4372.351,690Zm-39.1-5.738a7.533,7.533,0,0,1-.623,3.007l-6.232-10.66A7.792,7.792,0,0,1,4333.256,684.265Zm-8.31-7.707-6.587,11.268a7.545,7.545,0,0,1-.9-3.561A7.8,7.8,0,0,1,4324.946,676.558Zm.414,15.435a7.937,7.937,0,0,1-6.588-3.478h13.176A7.939,7.939,0,0,1,4325.36,691.993Z" transform="translate(-4315.464 -674.537)" fill="red"/>
</svg>
