<svg xmlns="http://www.w3.org/2000/svg" width="37.876" height="52.87" viewBox="0 0 37.876 52.87">
  <path id="_020187" data-name="020187" d="M4366.345,411.287l-1.414-1.414-3.906,3.905h-11.2v-5.391a6.081,6.081,0,0,0,1.22.139c3.719,0,7.011-3.236,7.191-3.417l-1.414-1.414c-.046.046-4.645,4.578-8.18,2.038a7.169,7.169,0,0,1-2.541-8.148l-1.877-.689a9.129,9.129,0,0,0,3.251,10.461c.116.083.234.139.35.212v6.209h-10.951v-2.231l-4.2,1.633-4.2,1.633,4.2,1.633,4.2,1.633v-2.3h10.951v19.717l-8.185,14.271H4357.6l-7.78-13.566V415.778h12.029l.031-.031,3.047,3.047,1.414-1.414-3.047-3.047Zm-23.253,36.479,5.53-9.641,5.53,9.641Z" transform="translate(-4328.469 -396.896)" fill="red"/>
</svg>
