<svg xmlns="http://www.w3.org/2000/svg" width="39.152" height="48.676" viewBox="0 0 39.152 48.676">
  <path id="_020118" data-name="020118" d="M2946.993,454.782h-5.685c-.955-4.254-7.93-7.458-16.673-7.458-9.417,0-16.794,3.715-16.794,8.458,0,4.573,6.863,8.18,15.794,8.434V496h2V464.216c8.268-.236,14.754-3.345,15.673-7.434h5.685Zm-22.358,7.458c-8.85,0-14.794-3.339-14.794-6.458s5.944-6.458,14.794-6.458c7.906,0,13.48,2.666,14.582,5.458h-7.591v2h7.591C2938.115,459.574,2932.541,462.24,2924.635,462.24Z" transform="translate(-2907.841 -447.324)" fill="red"/>
</svg>
