<svg xmlns="http://www.w3.org/2000/svg" width="37" height="51.778" viewBox="0 0 37 51.778">
  <path id="_020147" data-name="020147" d="M3433,459.5a18.463,18.463,0,0,0-7.379-14.749l3.846-4.063-1.452-1.375-4.076,4.305a18.324,18.324,0,0,0-18.9.011l-4.336-4.336-1.414,1.414,4.062,4.062a18.462,18.462,0,0,0,9.814,33.164l-11.445,11.742,1.433,1.4,11.339-11.634,11.215,11.63,1.439-1.388-11.326-11.746A18.511,18.511,0,0,0,3433,459.5ZM3414.5,476a16.5,16.5,0,1,1,16.5-16.5A16.519,16.519,0,0,1,3414.5,476Z" transform="translate(-3396 -439.293)" fill="red"/>
</svg>
