<svg xmlns="http://www.w3.org/2000/svg" width="41" height="42" viewBox="0 0 41 42">
  <g id="_020257" data-name="020257" transform="translate(-6231 -298)">
    <path id="路径_441" data-name="路径 441" d="M6254.218,311.117l-.257.072a6.678,6.678,0,0,0-2,1.481,5.093,5.093,0,0,0-3.07-1.735,6.047,6.047,0,0,0-5.4,1.433c-1.023,1.024-2.3,2.3-1.729,5.706l.041.244,10.14,13.343,9.976-13.328.046-.214c.075-.351.684-3.485-1.1-5.269C6259.213,311.194,6257.922,310.587,6254.218,311.117Zm-9.308,2.664a4.131,4.131,0,0,1,3.707-.865,3.7,3.7,0,0,1,2.424,1.882l.578,1.177h-2.1v2h2.616l-3.616,4.312v1.562l-4.821-6.343A3.517,3.517,0,0,1,6244.91,313.781Zm15.14,3.718-8.114,10.84-3.117-4.1h5.739v-2h-3.385l3.7-4.416v-1.848h-2.736l.659-1.106a5.013,5.013,0,0,1,1.86-1.795c3.053-.418,3.65.042,4.8,1.19C6260.245,315.055,6260.174,316.712,6260.05,317.5Z" fill="red"/>
    <path id="路径_442" data-name="路径 442" d="M6270.447,324.592a19.907,19.907,0,0,0-15.649-24.22,3.485,3.485,0,0,0-6.546-.161,19.916,19.916,0,0,0-16.017,26.641,3.477,3.477,0,0,0,3.409,5.941,19.961,19.961,0,0,0,32.095-1.881,3.536,3.536,0,0,0,.761.088,3.5,3.5,0,0,0,1.947-6.408ZM6251,338a17.96,17.96,0,0,1-13.728-6.385,3.431,3.431,0,0,0-3.206-5.571,17.923,17.923,0,0,1,14.021-23.786,3.488,3.488,0,0,0,6.773.169A17.93,17.93,0,0,1,6268.536,324c-.013,0-.024,0-.036,0a3.5,3.5,0,0,0-2.506,5.938A17.993,17.993,0,0,1,6251,338Z" fill="red"/>
  </g>
</svg>
