<svg xmlns="http://www.w3.org/2000/svg" width="63.319" height="19.069" viewBox="0 0 63.319 19.069">
  <g id="_020227" data-name="020227" transform="translate(-5267.681 -154)">
    <rect id="矩形_382" data-name="矩形 382" width="10.474" height="2" transform="translate(5287.129 162.535)" fill="red"/>
    <rect id="矩形_383" data-name="矩形 383" width="10.037" height="2" transform="translate(5302.798 162.906)" fill="red"/>
    <path id="路径_561" data-name="路径 561" d="M5331,162.906h-7.959c-.766-5.042-10.682-8.906-23.211-8.906-12.22,0-21.96,3.675-23.143,8.535h-9.006v2h9.006c1.183,4.859,10.923,8.534,23.143,8.534,11.907,0,21.454-3.489,23.031-8.163H5331Zm-31.17,8.163c-11.368,0-19.585-3.267-21.018-6.534h2.464v-2h-2.464c1.433-3.268,9.65-6.535,21.018-6.535,11.8,0,20.224,3.52,21.17,6.906h-2.965v2h2.642C5318.807,168.045,5310.767,171.069,5299.83,171.069Z" fill="red"/>
  </g>
</svg>
