<svg xmlns="http://www.w3.org/2000/svg" width="49.607" height="48.291" viewBox="0 0 49.607 48.291">
  <g id="_020241" data-name="020241" transform="translate(0)">
    <path id="路径_579" data-name="路径 579" d="M5576.692,756.819h23.886v-1.771h-23.885a12.386,12.386,0,0,0-6-9.82h18.3v-1.771h-24.393v0c-.112,0-.222,0-.335,0a12.476,12.476,0,0,0,0,24.953c.034,0,.066-.005.1-.005l-13.387,23.343h27.294l-13.385-23.338h24.108V766.64h-18.353A12.473,12.473,0,0,0,5576.692,756.819Zm-22.665,33.158,10.59-18.465,10.591,18.465Zm10.232-23.338a10.706,10.706,0,0,1,0-21.411c.1,0,.206,0,.31,0a10.706,10.706,0,0,1-.31,21.407Z" transform="translate(-5550.97 -743.458)" fill="red"/>
    <path id="路径_580" data-name="路径 580" d="M5561.485,757.591a3.835,3.835,0,0,0,.981,3.048c1.712,1.867,5.054,1.889,5.195,1.889l0-1.771c-.75,0-2.914-.244-3.9-1.317a2.114,2.114,0,0,1-.518-1.7c.264-3.071,4.215-2.941,4.39-2.94l.038-.885.041-.885C5565.715,752.943,5561.812,753.774,5561.485,757.591Z" transform="translate(-5552.173 -744.555)" fill="red"/>
  </g>
</svg>
