<svg xmlns="http://www.w3.org/2000/svg" width="66.164" height="25.43" viewBox="0 0 66.164 25.43">
  <g id="_020219" data-name="020219" transform="translate(-5170.293 -240.277)">
    <path id="路径_539" data-name="路径 539" d="M5171.707,247.4l-1.414,1.414c.91.911,6.07,5.212,6.289,5.394l.278.232h15.516v-2h-14.792C5175.942,251.073,5172.369,248.066,5171.707,247.4Z" fill="red"/>
    <rect id="矩形_373" data-name="矩形 373" width="16.605" height="2" transform="translate(5195.836 252.444)" fill="red"/>
    <path id="路径_540" data-name="路径 540" d="M5214.863,254.444h15.981l5.612-5.612-1.414-1.414-5.026,5.026h-15.153Z" fill="red"/>
    <path id="路径_541" data-name="路径 541" d="M5176.582,258.9c-.219.183-5.379,4.485-6.289,5.395l1.414,1.414c.662-.662,4.235-3.668,5.877-5.04h14.792v-2H5176.86Z" fill="red"/>
    <rect id="矩形_374" data-name="矩形 374" width="16.605" height="2" transform="translate(5195.836 258.667)" fill="red"/>
    <path id="路径_542" data-name="路径 542" d="M5214.863,258.667v2h15.153l5.026,5.026,1.414-1.414-5.612-5.612Z" fill="red"/>
    <path id="路径_543" data-name="路径 543" d="M5197.827,249.915l1.458-1.369-2.892-3.08,2.87-2.871-1.414-1.414-4.241,4.241Z" fill="red"/>
    <path id="路径_544" data-name="路径 544" d="M5193.914,241.723l-1.383-1.445-5.5,5.264,5.484,5.519,1.419-1.41-4.048-4.072Z" fill="red"/>
    <path id="路径_545" data-name="路径 545" d="M5218.271,249.915l1.458-1.369-2.892-3.08,2.87-2.871-1.414-1.414-4.241,4.241Z" fill="red"/>
    <path id="路径_546" data-name="路径 546" d="M5214.358,241.723l-1.383-1.445-5.5,5.264,5.484,5.519,1.419-1.41-4.048-4.072Z" fill="red"/>
  </g>
</svg>
