<svg xmlns="http://www.w3.org/2000/svg" width="63" height="37" viewBox="0 0 63 37">
  <g id="_020221" data-name="020221" transform="translate(-5171 -427)">
    <path id="路径_548" data-name="路径 548" d="M5215.5,427h-26a18.5,18.5,0,0,0,0,37h26a18.5,18.5,0,0,0,0-37Zm0,35h-26a16.5,16.5,0,0,1,0-33h26a16.5,16.5,0,0,1,0,33Z" fill="red"/>
    <path id="路径_549" data-name="路径 549" d="M5204.147,438.04v-.056l-1.017.02h-.016l-.967.018v.062c-5.634.682-8.2,5.861-8.863,8.916H5189v2h28.676v-2h-4.853C5212.059,443.616,5209.518,438.49,5204.147,438.04Zm6.61,8.96h-4.86l2.882-4.206A12.41,12.41,0,0,1,5210.757,447Zm-3.406-5.659L5204.3,445.8l-.11-5.741A6.287,6.287,0,0,1,5207.351,441.341Zm-5.05,4.746-3.487-4.58a7.159,7.159,0,0,1,3.372-1.411Zm-4.924-3.167,3.1,4.08h-5.135A11.787,11.787,0,0,1,5197.377,442.92Z" fill="red"/>
  </g>
</svg>
