<svg xmlns="http://www.w3.org/2000/svg" width="59.697" height="37.728" viewBox="0 0 59.697 37.728">
  <g id="_020223" data-name="020223" transform="translate(-5174.303 -700.607)">
    <circle id="椭圆_20" data-name="椭圆 20" cx="1.849" cy="1.849" r="1.849" transform="translate(5191.093 720.581)" fill="red"/>
    <circle id="椭圆_21" data-name="椭圆 21" cx="1.849" cy="1.849" r="1.849" transform="translate(5211.067 716.882)" fill="red"/>
    <path id="路径_552" data-name="路径 552" d="M5206.259,722.8a1.844,1.844,0,0,0-1.552.849h-1.058v2h1.058a1.842,1.842,0,0,0,3.1,0h1.885v-2h-1.885A1.845,1.845,0,0,0,5206.259,722.8Z" fill="red"/>
    <path id="路径_553" data-name="路径 553" d="M5204.112,716.033h1.337v-2h-1.337a1.842,1.842,0,0,0-3.1,0h-1.461v2h1.461a1.843,1.843,0,0,0,3.1,0Z" fill="red"/>
    <path id="路径_554" data-name="路径 554" d="M5206.435,700.607h-4.568c-15.2,0-27.564,12.6-27.564,28.094a10.138,10.138,0,0,0,2.961,7.208,8.307,8.307,0,0,0,10.292,1.016l11.527-5.855a8.692,8.692,0,0,1,9.219-.106l12.57,6.123a8.538,8.538,0,0,0,4.418,1.248,7.925,7.925,0,0,0,5.226-1.937,10.2,10.2,0,0,0,3.484-7.7C5234,713.211,5221.634,700.607,5206.435,700.607Zm22.632,34.115a5.979,5.979,0,0,1-7.053.465l-12.57-6.123a10.882,10.882,0,0,0-11.545.132l-11.526,5.854a6.088,6.088,0,0,1-7.546-.709,7.934,7.934,0,0,1-2.313-5.64c0-14.267,11.373-25.875,25.353-25.875h4.568c13.98,0,25.354,11.608,25.354,25.875A7.975,7.975,0,0,1,5229.067,734.722Z" fill="red"/>
  </g>
</svg>
