<svg xmlns="http://www.w3.org/2000/svg" width="44.848" height="11.357" viewBox="0 0 44.848 11.357">
  <path id="_020202" data-name="020202" d="M4844.817,520.577l-1.634-1.154-2.84,4.023c-.6-.374-1.2-.718-1.8-1.048l3.008-3.775-1.564-1.246-3.252,4.081a30.9,30.9,0,0,0-27.649-.266l-3.265-4.758-1.65,1.132,3.118,4.541c-.917.5-1.745,1-2.465,1.476l-3.241-4.458-1.618,1.176,3.221,4.431a22.357,22.357,0,0,0-1.889,1.553l1.4,1.431c.729-.709,18.116-17.162,40.409.075l1.224-1.582c-.774-.6-1.543-1.154-2.307-1.676Z" transform="translate(-4799.969 -516.434)" fill="red"/>
</svg>
