<svg id="_020240" data-name="020240" xmlns="http://www.w3.org/2000/svg" width="41.958" height="41.957" viewBox="0 0 41.958 41.957">
  <path id="路径_581" data-name="路径 581" d="M5560.328,684.846l7.627-3.589a8.623,8.623,0,0,0,14.117.007l6.679,3.562.834-1.562-6.64-3.542a8.628,8.628,0,0,0-6.588-11.969v-6.534h-1.771v6.44a8.629,8.629,0,0,0-7.505,12.052l-7.508,3.533Zm14.689-1.687a6.861,6.861,0,0,1-5.429-2.671l5.859-2.758,5.047,2.692A6.861,6.861,0,0,1,5575.017,683.16Zm6.875-6.876a6.847,6.847,0,0,1-.514,2.6l-5.02-2.677v-6.667A6.884,6.884,0,0,1,5581.892,676.284Zm-13.75,0a6.879,6.879,0,0,1,6.446-6.854v6.748l-5.906,2.779A6.85,6.85,0,0,1,5568.141,676.284Z" transform="translate(-5554.017 -654.483)" fill="red"/>
  <path id="路径_582" data-name="路径 582" d="M5553.3,653.611v41.957h41.958V653.611Zm40.187,40.187h-38.416V655.382h38.416Z" transform="translate(-5553.298 -653.611)" fill="red"/>
</svg>
