<svg xmlns="http://www.w3.org/2000/svg" width="39.8" height="51.976" viewBox="0 0 39.8 51.976">
  <g id="_020258" data-name="020258" transform="translate(-6232.981 -386.024)">
    <path id="路径_443" data-name="路径 443" d="M6261.922,425.854V413.6h-5.863L6245,407.277v24.36l11.039-5.783Zm-2-2h-3.129V415.6h3.129ZM6247,410.723l7.793,4.453v9.074L6247,428.331Z" fill="red"/>
    <path id="路径_444" data-name="路径 444" d="M6268.083,396.9l2.349-5.121,2.349-5.122-5.191,2.191-5.191,2.191,2.35,2.423-8.4,8.538h-9.424l-6.775-8.18,2.225-1.571-4.7-3.113-4.7-3.112,1.363,5.467,1.362,5.467,2.805-1.981,5.816,7.023H6234v36h36V402h-10.846l6.987-7.1ZM6268,436h-32V404h32Z" fill="red"/>
  </g>
</svg>
