<svg xmlns="http://www.w3.org/2000/svg" width="65.738" height="24.038" viewBox="0 0 65.738 24.038">
  <path id="_020211" data-name="020211" d="M5123.738,434h-32.557l-.311-.215-.312.215H5058v23.589h31.95l.295.2.309-.2h31.278l.338.234.162-.234h1.406Zm-15.254,11.945,13.254-8.608V455.1Zm11.64-9.945-13.42,8.716L5094.078,436Zm-15.234,9.894-14.619,9.494-13.7-9.318,14.3-9.855Zm-30.093-1.03L5061.765,436h25.892ZM5060.047,436l-.047.069V436Zm12.984,10.082L5060,455.065V437.218Zm-10.268,9.507,12.042-8.3,12.2,8.3Zm30.871,0,13.036-8.466,12.264,8.466Z" transform="translate(-5058 -433.785)" fill="red"/>
</svg>
