<svg id="_020238" data-name="020238" xmlns="http://www.w3.org/2000/svg" width="55.674" height="26.964" viewBox="0 0 55.674 26.964">
  <path id="路径_577" data-name="路径 577" d="M5565.328,591.513l5.409-2.545a6.542,6.542,0,0,0,10.477.012l4.711,2.513.834-1.562-4.674-2.493a6.55,6.55,0,0,0-4.885-8.857V574h-1.771v4.491a6.548,6.548,0,0,0-5.56,8.927l-5.3,2.492Zm10.652-1.687a4.781,4.781,0,0,1-3.6-1.634l3.906-1.839,3.34,1.781A4.787,4.787,0,0,1,5575.98,589.826Zm4.8-4.8a4.766,4.766,0,0,1-.268,1.567l-3.309-1.765V580.4A4.8,4.8,0,0,1,5580.777,585.03Zm-9.593,0a4.8,4.8,0,0,1,4.245-4.762V584.8l-3.953,1.86A4.76,4.76,0,0,1,5571.185,585.03Z" transform="translate(-5546.358 -570.056)" fill="red"/>
  <path id="路径_578" data-name="路径 578" d="M5560.313,569.545,5544,582.059v14.45h55.674V569.545Zm37.591,25.194h-52.133V582.932l15.144-11.616h36.99Z" transform="translate(-5544 -569.545)" fill="red"/>
</svg>
