<svg xmlns="http://www.w3.org/2000/svg" width="62.246" height="29.751" viewBox="0 0 62.246 29.751">
  <path id="_020220" data-name="020220" d="M5233.975,354.674l-.468-1.945-11.48,2.762-15.646-4.392,2.926-10.112-17.391-5.031-2.966,10.25-16.679-4.683-.542,1.926,32.136,9.021,1.956.566,0-.016,15.661,4.4,8.29,8.291,1.414-1.414-7.213-7.214Zm-27.454-11.256-1.7,5.871-4-4.434Zm-7.21-.243-3.656-4.055,9.19,2.658Zm3.548,6.922-10.625-3.074,6.4-1.614Zm-9.8-10.877,4.063,4.508-5.79,1.461Z" transform="translate(-5171.729 -335.956)" fill="red"/>
</svg>
