<svg xmlns="http://www.w3.org/2000/svg" width="40" height="51.971" viewBox="0 0 40 51.971">
  <g id="_020222" data-name="020222" transform="translate(-5183 -508)">
    <path id="路径_550" data-name="路径 550" d="M5212.823,531c-.764-3.385-3.305-8.514-8.676-8.96v-.056l-1.016.02h-.017l-.967.018v.062c-5.634.682-8.2,5.861-8.863,8.916H5189v2h28.676v-2Zm-2.07,0H5205.9l2.878-4.2A12.55,12.55,0,0,1,5210.753,531Zm-3.4-5.659L5204.3,529.8l-.11-5.735A6.257,6.257,0,0,1,5207.351,525.341Zm-5.05,4.746-3.487-4.58a7.158,7.158,0,0,1,3.372-1.411Zm-4.924-3.167,3.1,4.08h-5.135A11.787,11.787,0,0,1,5197.377,526.92Z" fill="red"/>
    <path id="路径_551" data-name="路径 551" d="M5223,528a20,20,0,1,0-22.359,19.848l-11.327,10.667,1.372,1.456,12.294-11.578,11.584,11.558,1.413-1.416-10.7-10.675A20.021,20.021,0,0,0,5223,528Zm-19.607,17.98-.373-.373-.4.374a18.016,18.016,0,1,1,.77,0Z" fill="red"/>
  </g>
</svg>
