<svg xmlns="http://www.w3.org/2000/svg" width="59.676" height="35.723" viewBox="0 0 59.676 35.723">
  <path id="_020259" data-name="020259" d="M6282.676,511h-28.46l9.823-5.146h5.883V493.6h-5.863L6253,487.277V511h-30v2h12.348a5.5,5.5,0,1,0,6.3,0h21.7a5.5,5.5,0,1,0,6.3,0h13.024Zm-14.754-7.146h-3.129V495.6h3.129ZM6255,490.723l7.793,4.453v9.074L6255,508.331ZM6238.5,521a3.5,3.5,0,1,1,3.5-3.5A3.5,3.5,0,0,1,6238.5,521Zm28,0a3.5,3.5,0,1,1,3.5-3.5A3.5,3.5,0,0,1,6266.5,521Z" transform="translate(-6223 -487.277)" fill="red"/>
</svg>
