<svg xmlns="http://www.w3.org/2000/svg" width="47.187" height="43.246" viewBox="0 0 47.187 43.246">
  <path id="_020243" data-name="020243" d="M5597.892,973.647h-8.33c-.923-3.667-3.947-12.267-12.05-13.125l-.007-6.354h4.867V952.4H5577.5l-.018-15.6h14.664l4.433,2.42.848-1.555-3.077-1.679,3.02-1.376-.735-1.611-4.458,2.03h-30.094V932.3l-5.691,1.807-5.691,1.807,5.691,1.807,5.691,1.807V936.8h13.627l.018,15.6h-5.077v1.771h5.079l.007,6.284c-9.928.309-13.183,10.186-13.943,13.194h-7.29v1.771h33.634c.01.058.017.106.021.128l.878-.128h8.852Zm-22.149-11.421.013,11.421h-12.142C5564.426,970.573,5567.35,962.522,5575.743,962.226Zm1.784,11.421-.013-11.342c6.716.841,9.351,7.874,10.246,11.342Z" transform="translate(-5550.705 -932.301)" fill="red"/>
</svg>
