<svg xmlns="http://www.w3.org/2000/svg" width="62.94" height="32.939" viewBox="0 0 62.94 32.939">
  <g id="_020245" data-name="020245" transform="translate(-5909.407 -212.819)">
    <path id="路径_428" data-name="路径 428" d="M5925.876,212.819a16.469,16.469,0,0,0,0,32.939h46.471V212.819Zm44.471,30.939h-44.471a14.469,14.469,0,0,1,0-28.939h44.471Z" fill="red"/>
    <path id="路径_429" data-name="路径 429" d="M5933.321,228.794c-.129,5.414-5.65,6.576-5.884,6.623l.192.981.19.982c2.306-.446,6.5-2.493,7.343-7.091h22.188c.845,4.6,5.036,6.645,7.341,7.091l.383-1.963c-.234-.047-5.756-1.209-5.884-6.623-.127-5.354,5.976-6.444,6.234-6.488l-.324-1.973c-2.7.443-7.679,2.679-7.89,7.956H5935.3c-.213-5.277-5.19-7.513-7.891-7.956l-.324,1.973C5927.347,222.349,5933.449,223.412,5933.321,228.794Z" fill="red"/>
  </g>
</svg>
