<svg id="_020238" data-name="020238" xmlns="http://www.w3.org/2000/svg" width="48.928" height="45.381" viewBox="0 0 48.928 45.381">
  <path id="路径_575" data-name="路径 575" d="M5574.833,463.744l-24.464,18.592v26.789H5599.3V482.336Zm22.693,43.61H5552.14v-24.14l22.693-17.246,22.693,17.246Z" transform="translate(-5550.369 -463.744)" fill="red"/>
  <path id="路径_576" data-name="路径 576" d="M5567.568,495.474a8.855,8.855,0,0,0,.744,3.554l-7.782,3.662.754,1.6,7.9-3.717a8.88,8.88,0,0,0,14.564.005l6.922,3.692.834-1.563-6.884-3.671a8.881,8.881,0,0,0-6.8-12.352v-6.774h-1.771v6.68A8.9,8.9,0,0,0,5567.568,495.474Zm1.771,0a7.134,7.134,0,0,1,6.716-7.111v7.02l-6.143,2.891A7.1,7.1,0,0,1,5569.338,495.474Zm7.13,7.131a7.117,7.117,0,0,1-5.652-2.8l6.1-2.87,5.256,2.8A7.119,7.119,0,0,1,5576.469,502.605Zm7.131-7.131a7.1,7.1,0,0,1-.545,2.73l-5.229-2.789v-6.939A7.141,7.141,0,0,1,5583.6,495.474Z" transform="translate(-5551.534 -465.597)" fill="red"/>
</svg>
