<svg xmlns="http://www.w3.org/2000/svg" width="48.641" height="48.641" viewBox="0 0 48.641 48.641">
  <g id="_020200" data-name="020200" transform="translate(-4792.376 -216.376)">
    <path id="路径_517" data-name="路径 517" d="M4816.7,216.376a24.32,24.32,0,1,0,24.32,24.32A24.348,24.348,0,0,0,4816.7,216.376Zm0,46.86a22.539,22.539,0,1,1,22.539-22.539A22.565,22.565,0,0,1,4816.7,263.236Z" transform="translate(0 0)" fill="red"/>
    <path id="路径_518" data-name="路径 518" d="M4837.467,241.967l2.229-.866-4.677-1.817-4.676-1.817v3.05h-8.014v-3.05l-4.676,1.817-3.172,1.233h-2.211v-3.454h2.745l-1.817-4.676-1.817-4.676-1.818,4.676-1.817,4.676h2.745v3.454h-5.343V229.491h-1.781v15.6h-2.745l1.817,4.676,1.817,4.676,1.817-4.676,1.818-4.676h-2.745V242.3h5.343v10.362h1.781V242.3h3.785l1.6.621,4.676,1.818V242.3h8.014v2.439l4.676-1.818,1.6-.621h.849Z" transform="translate(-0.903 -1.241)" fill="red"/>
  </g>
</svg>
