<svg xmlns="http://www.w3.org/2000/svg" width="59.697" height="37.728" viewBox="0 0 59.697 37.728">
  <g id="_020224" data-name="020224" transform="translate(-5174 -796.327)">
    <path id="路径_555" data-name="路径 555" d="M5206.435,796.327h-4.568c-15.2,0-27.564,12.6-27.564,28.094a10.142,10.142,0,0,0,2.961,7.208,8.305,8.305,0,0,0,10.292,1.015l11.527-5.854a8.692,8.692,0,0,1,9.219-.106l12.57,6.123a8.538,8.538,0,0,0,4.418,1.248,7.93,7.93,0,0,0,5.226-1.937,10.2,10.2,0,0,0,3.484-7.7C5234,808.93,5221.634,796.327,5206.435,796.327Zm22.632,34.115a5.979,5.979,0,0,1-7.053.464l-12.57-6.122a10.882,10.882,0,0,0-11.545.132l-11.526,5.854a6.087,6.087,0,0,1-7.546-.71,7.93,7.93,0,0,1-2.313-5.639c0-14.268,11.373-25.875,25.353-25.875h4.568c13.98,0,25.354,11.607,25.354,25.875A7.975,7.975,0,0,1,5229.067,830.442Z" transform="translate(-0.303)" fill="red"/>
    <g id="组_1511" data-name="组 1511" transform="translate(1.348)">
      <path id="路径_556" data-name="路径 556" d="M5202.726,811.122l-1.208,2.219-1.208,2.219h4.833l-1.208-2.219Z" fill="red"/>
      <path id="路径_557" data-name="路径 557" d="M5196.068,815.561l-1.208,2.219L5193.652,820h4.832l-1.208-2.219Z" fill="red"/>
      <path id="路径_558" data-name="路径 558" d="M5210.124,815.561l-1.208,2.219L5207.707,820h4.833l-1.208-2.219Z" fill="red"/>
    </g>
  </g>
</svg>
