<svg xmlns="http://www.w3.org/2000/svg" width="24.917" height="55.341" viewBox="0 0 24.917 55.341">
  <g id="_020205" data-name="020205" transform="translate(-4807.892 -777.292)">
    <path id="路径_524" data-name="路径 524" d="M4832.781,784.624l-1.562-1.249c-.165.206-16.288,20.855-.028,43.213l1.618-1.176C4817.46,804.308,4832.148,785.418,4832.781,784.624Z" fill="red"/>
    <path id="路径_525" data-name="路径 525" d="M4823.742,778.842l-1.445-1.382a28.552,28.552,0,0,0-2.375,3.039l-3.216-3.207-1.412,1.416,3.506,3.5A42.333,42.333,0,0,0,4812.315,804h-4.423v2h4.448a46.632,46.632,0,0,0,6.888,22.049l-3.763,2.382,1.07,1.69,3.735-2.365q.906,1.428,1.934,2.877l1.63-1.158C4802.609,801.593,4822.869,779.757,4823.742,778.842Z" fill="red"/>
  </g>
</svg>
