<svg xmlns="http://www.w3.org/2000/svg" width="55.843" height="8.995" viewBox="0 0 55.843 8.995">
  <path id="_020208" data-name="020208" d="M5118.647,156.938l-.694-1.876-6.8,2.519-.281-1.124-1.94.485.334,1.337-9.889,3.663-5.814-1.85.5-1.713-1.92-.56-.485,1.666-7.6-2.418-9.979,2-.291-1.823-1.975.315.3,1.9-9.312,1.862.393,1.961,9.234-1.847.275,1.724,1.975-.315-.287-1.8,9.55-1.91,7.153,2.276-.382,1.313,1.92.56.369-1.266,6.423,2.043,10.327-3.825.578,2.31,1.94-.485-.631-2.524Z" transform="translate(-5062.804 -155.062)" fill="red"/>
</svg>
