<svg xmlns="http://www.w3.org/2000/svg" width="55.17" height="33.592" viewBox="0 0 55.17 33.592">
  <g id="_110013" data-name="110013" transform="translate(-1129.911 -361.144)">
    <path id="路径_68" data-name="路径 68" d="M5057.032,1557.736a8.109,8.109,0,0,1-4.083-1.111l-11.616-5.452a8.293,8.293,0,0,0-8.521.095l-10.653,5.212a7.9,7.9,0,0,1-9.511-.9,8.864,8.864,0,0,1-2.737-6.418,25.276,25.276,0,0,1,25.474-25.014h4.221a25.277,25.277,0,0,1,25.475,25.014,8.939,8.939,0,0,1-3.219,6.853A7.492,7.492,0,0,1,5057.032,1557.736Zm-19.881-9.672a10.394,10.394,0,0,1,5.236,1.417l11.618,5.452a5.7,5.7,0,0,0,6.518-.414,6.993,6.993,0,0,0,2.515-5.361,23.264,23.264,0,0,0-23.432-23.038h-4.221a23.263,23.263,0,0,0-23.43,23.038,6.931,6.931,0,0,0,2.138,5.021,5.787,5.787,0,0,0,6.973.632l10.652-5.212A10.391,10.391,0,0,1,5037.151,1548.064Z" transform="translate(-3880 -1163)" fill="red"/>
    <path id="路径_69" data-name="路径 69" d="M5037.5,1534.737l3.422,5.376,3.422,5.376h-13.688l3.422-5.376Z" transform="translate(-3880 -1163)" fill="red"/>
  </g>
</svg>
