<svg xmlns="http://www.w3.org/2000/svg" width="23.352" height="49.924" viewBox="0 0 23.352 49.924">
  <g id="_110011" data-name="110011" transform="translate(-1144.88 -177.48)">
    <path id="路径_61" data-name="路径 61" d="M5028.6,1390.4l-1.9-.614,9.157-28.352c-.7-2.095-1.375-4.134-2.013-6.048h-8.963l12.673-14.91,10.679,14.714h-8.257l-2.014,6.234c9.31,28,9.31,28.48,9.31,28.669h-1l-.985.161c-.188-.87-4.37-13.573-8.365-25.611Zm.6-37.014h6.08l.228.684q.72,2.16,1.382,4.149l1.624-5.029h5.791l-6.881-9.48Z" transform="translate(-3880 -1163)" fill="red"/>
    <path id="路径_62" data-name="路径 62" d="M5037.074,1376.278l1.79,2.812,1.79,2.812h-7.16l1.79-2.812Z" transform="translate(-3880 -1163)" fill="red"/>
  </g>
</svg>
