<svg xmlns="http://www.w3.org/2000/svg" width="54.574" height="45.04" viewBox="0 0 54.574 45.04">
  <g id="_110012" data-name="110012" transform="translate(-1129.081 -265.097)">
    <path id="路径_63" data-name="路径 63" d="M5038.973,1446.148l2.437,3.829,2.437,3.829H5034.1l2.438-3.829Z" transform="translate(-3880 -1163)" fill="red"/>
    <path id="路径_64" data-name="路径 64" d="M5063.655,1459.587h-32.287v-17.94h32.287Zm-30.287-2h28.287v-13.94h-28.287Z" transform="translate(-3880 -1163)" fill="red"/>
    <path id="路径_65" data-name="路径 65" d="M5047.714,1442.647h-2v-11.956a2.522,2.522,0,0,1,2.594-2.594l.016,2c-.61.021-.61.423-.61.594Z" transform="translate(-3880 -1163)" fill="red"/>
    <path id="路径_66" data-name="路径 66" d="M5048.308,1473.137c-1.782,0-2.594-1.689-2.594-3.258v-11.292h2v11.292c0,.008.048,1.258.594,1.258Z" transform="translate(-3880 -1163)" fill="red"/>
    <rect id="矩形_23" data-name="矩形 23" width="12.145" height="2" transform="translate(1140.223 285.977)" fill="red"/>
    <path id="路径_67" data-name="路径 67" d="M5009.081,1450.219l6.064-2.59,6.064-2.59V1455.4l-6.064-2.59Z" transform="translate(-3880 -1163)" fill="red"/>
  </g>
</svg>
