<svg xmlns="http://www.w3.org/2000/svg" width="47.707" height="49.81" viewBox="0 0 47.707 49.81">
  <g id="_040014" data-name="040014" transform="translate(-1481.155 -256.967)">
    <path id="路径_382" data-name="路径 382" d="M1527.448,1469.777c-7.947-7.946-11.78-16.561-11.393-25.606.6-13.962,10.976-23.793,11.418-24.2l1.364,1.462c-.1.1-10.223,9.7-10.784,22.827-.362,8.462,3.275,16.573,10.809,24.107Z" transform="translate(0 -1163)" fill="red"/>
    <path id="路径_383" data-name="路径 383" d="M1497.839,1464.938h-10.164c-2.658,0-6.52-4.332-6.52-11.12,0-7.019,6.758-10,7.046-10.119l.189-.081h27.8v2h-27.38c-.989.477-5.659,3.007-5.659,8.2,0,5.984,3.358,9.12,4.52,9.12h10.164Z" transform="translate(0 -1163)" fill="red"/>
    <path id="路径_384" data-name="路径 384" d="M1508.612,1464.52l-5.869,1.883-5.869,1.883v-7.53l5.869,1.883Z" transform="translate(0 -1163)" fill="red"/>
  </g>
</svg>
