<svg xmlns="http://www.w3.org/2000/svg" width="54" height="33" viewBox="0 0 54 33">
  <g id="_040007" data-name="040007" transform="translate(-1056.155 -708.492)">
    <path id="路径_369" data-name="路径 369" d="M1067.753,1872.492a6.174,6.174,0,0,1,3.129.86l8.9,4.219a6.3,6.3,0,0,0,6.53-.073l8.164-4.034a6.008,6.008,0,0,1,7.289.7,6.9,6.9,0,0,1,2.1,4.968,19.465,19.465,0,0,1-19.523,19.361h-3.235a19.465,19.465,0,0,1-19.524-19.361,6.948,6.948,0,0,1,2.467-5.3A5.708,5.708,0,0,1,1067.753,1872.492Zm15.236,7.486a7.9,7.9,0,0,1-4.012-1.1l-8.9-4.219a4.327,4.327,0,0,0-4.995.32,5.432,5.432,0,0,0-1.928,4.149,17.915,17.915,0,0,0,17.958,17.832h3.235a17.916,17.916,0,0,0,17.957-17.832,5.39,5.39,0,0,0-1.639-3.886,4.4,4.4,0,0,0-5.344-.489l-8.164,4.034A7.9,7.9,0,0,1,1082.989,1879.978Z" transform="translate(0 -1163)" fill="red"/>
    <path id="路径_370" data-name="路径 370" d="M1083.2,1871.492l1.754,3.5,1.754,3.5H1079.7l1.754-3.5Z" transform="translate(0 -1163)" fill="red"/>
    <path id="路径_371" data-name="路径 371" d="M1083.2,1904.492l-1.754-3.5-1.754-3.5h7.016l-1.754,3.5Z" transform="translate(0 -1163)" fill="red"/>
    <path id="路径_372" data-name="路径 372" d="M1056.155,1880.992l3.5-1.754,3.5-1.754v7.016l-3.5-1.754Z" transform="translate(0 -1163)" fill="red"/>
    <path id="路径_373" data-name="路径 373" d="M1110.155,1881.992l-3.5,1.754-3.5,1.754v-7.016l3.5,1.754Z" transform="translate(0 -1163)" fill="red"/>
  </g>
</svg>
