<svg xmlns="http://www.w3.org/2000/svg" width="48.465" height="42.532" viewBox="0 0 48.465 42.532">
  <g id="_040021" data-name="040021" transform="translate(-1481.448 -878.595)">
    <path id="路径_401" data-name="路径 401" d="M1499.276,2066.24l-1.989,4.232-1.99,4.232-2.242-2.242-2.242-2.242,4.232-1.99Z" transform="translate(0 -1163)" fill="red"/>
    <path id="路径_402" data-name="路径 402" d="M1519.814,2057.161l1.717-4.349,1.717-4.349,2.38,2.1,2.38,2.1-4.1,2.254Z" transform="translate(0 -1163)" fill="red"/>
    <path id="路径_408" data-name="路径 408" d="M1505.944,2067.823a7.639,7.639,0,1,1,7.639-7.639A7.648,7.648,0,0,1,1505.944,2067.823Zm0-13.278a5.639,5.639,0,1,0,5.639,5.639A5.645,5.645,0,0,0,1505.944,2054.545Z" transform="translate(0 -1163)" fill="red"/>
    <circle id="椭圆_18" data-name="椭圆 18" cx="2.213" cy="2.213" r="2.213" transform="translate(1503.731 894.971)" fill="red"/>
    <rect id="矩形_341" data-name="矩形 341" width="15.648" height="2" transform="translate(1481.448 919.713) rotate(-45)" fill="red"/>
    <path id="路径_411" data-name="路径 411" d="M1512.737,2054.252l-1.414-1.414,10.121-10.09c.168-.108,4.134-2.628,6.84.14a4.908,4.908,0,0,1,1.238,5.572l-.073.145-3.434,3.434-1.414-1.414,3.181-3.181a3,3,0,0,0-.928-3.158c-1.41-1.442-3.78-.177-4.244.094Z" transform="translate(0 -1163)" fill="red"/>
  </g>
</svg>
