<svg xmlns="http://www.w3.org/2000/svg" width="38" height="46.215" viewBox="0 0 38 46.215">
  <g id="_040026" data-name="040026" transform="translate(-1568.155 -436.207)">
    <path id="路径_416" data-name="路径 416" d="M1599.36,1611.155c-8.918-3.051-22.543-7.662-23.524-7.86l.142-.7v-1.289c.211,0,.774,0,24.03,7.956Z" transform="translate(0 -1163)" fill="red"/>
    <rect id="矩形_351" data-name="矩形 351" width="23.707" height="2" transform="translate(1575.978 457.854)" fill="red"/>
    <rect id="矩形_352" data-name="矩形 352" width="8.28" height="2" transform="matrix(0.808, -0.59, 0.59, 0.808, 1575.388, 476.814)" fill="red"/>
    <rect id="矩形_353" data-name="矩形 353" width="8.268" height="2" transform="translate(1584.507 470.715) rotate(-36.042)" fill="red"/>
    <rect id="矩形_354" data-name="矩形 354" width="7.42" height="2" transform="matrix(0.819, -0.574, 0.574, 0.819, 1593.64, 464.018)" fill="red"/>
    <path id="路径_417" data-name="路径 417" d="M1602.419,1614.856a3.735,3.735,0,1,1,3.736-3.735A3.74,3.74,0,0,1,1602.419,1614.856Zm0-5.471a1.735,1.735,0,1,0,1.736,1.736A1.737,1.737,0,0,0,1602.419,1609.385Z" transform="translate(0 -1163)" fill="red"/>
    <path id="路径_418" data-name="路径 418" d="M1602.419,1625.189a3.735,3.735,0,1,1,3.736-3.735A3.739,3.739,0,0,1,1602.419,1625.189Zm0-5.47a1.735,1.735,0,1,0,1.736,1.735A1.737,1.737,0,0,0,1602.419,1619.719Z" transform="translate(0 -1163)" fill="red"/>
    <path id="路径_419" data-name="路径 419" d="M1568.449,1599.207l4.417.291,4.417.291-.994,2.515-.994,2.515-3.424-2.807Z" transform="translate(0 -1163)" fill="red"/>
    <path id="路径_420" data-name="路径 420" d="M1568.155,1621.423l4.215-1.352,4.215-1.352v5.409l-4.215-1.352Z" transform="translate(0 -1163)" fill="red"/>
    <path id="路径_421" data-name="路径 421" d="M1569.761,1645.422l2.343-3.756,2.343-3.756,1.748,2.064,1.748,2.064-4.091,1.692Z" transform="translate(0 -1163)" fill="red"/>
  </g>
</svg>
