<svg xmlns="http://www.w3.org/2000/svg" width="56.099" height="31" viewBox="0 0 56.099 31">
  <g id="_040006" data-name="040006" transform="translate(-1051.155 -620.492)">
    <path id="路径_367" data-name="路径 367" d="M1077.706,1811.492h-11.051a12.5,12.5,0,0,1,0-25h10.078v2h-10.078a10.5,10.5,0,0,0,0,21h11.051Z" transform="translate(0 -1163)" fill="red"/>
    <path id="路径_368" data-name="路径 368" d="M1092.655,1811.492h-9.5v-2h9.5a10.5,10.5,0,0,0,0-21h-10.376v-2h10.376a12.5,12.5,0,0,1,0,25Z" transform="translate(0 -1163)" fill="red"/>
    <rect id="矩形_308" data-name="矩形 308" width="2" height="4" transform="translate(1069.155 620.492)" fill="red"/>
    <rect id="矩形_309" data-name="矩形 309" width="2" height="4" transform="translate(1073.106 620.492)" fill="red"/>
    <rect id="矩形_310" data-name="矩形 310" width="2" height="4" transform="translate(1084.155 620.492)" fill="red"/>
    <rect id="矩形_311" data-name="矩形 311" width="2" height="4" transform="translate(1088.106 620.492)" fill="red"/>
    <rect id="矩形_312" data-name="矩形 312" width="2" height="4" transform="translate(1069.155 647.492)" fill="red"/>
    <rect id="矩形_313" data-name="矩形 313" width="2" height="4" transform="translate(1073.106 647.492)" fill="red"/>
    <rect id="矩形_314" data-name="矩形 314" width="2" height="4" transform="translate(1084.155 647.492)" fill="red"/>
    <rect id="矩形_315" data-name="矩形 315" width="2" height="4" transform="translate(1088.106 647.492)" fill="red"/>
    <rect id="矩形_316" data-name="矩形 316" width="4.099" height="2" transform="translate(1051.155 633.492)" fill="red"/>
    <rect id="矩形_317" data-name="矩形 317" width="4.099" height="2" transform="translate(1051.155 636.492)" fill="red"/>
    <rect id="矩形_318" data-name="矩形 318" width="4.099" height="2" transform="translate(1103.155 633.492)" fill="red"/>
    <rect id="矩形_319" data-name="矩形 319" width="4.099" height="2" transform="translate(1103.155 636.492)" fill="red"/>
  </g>
</svg>
