<svg xmlns="http://www.w3.org/2000/svg" width="50.5" height="42.417" viewBox="0 0 50.5 42.417">
  <g id="_040022" data-name="040022" transform="translate(-1482.655 -966.693)">
    <path id="路径_403" data-name="路径 403" d="M1517.642,2153.417l2.341-5.928,2.341-5.928,3.244,2.856,3.244,2.856-5.585,3.072Z" transform="translate(0 -1163)" fill="red"/>
    <path id="路径_409" data-name="路径 409" d="M1498.737,2172.11a16.082,16.082,0,1,1,8.044-30.009l-1,1.73a14.065,14.065,0,1,0,5.759,6.322l1.817-.836a16.09,16.09,0,0,1-14.618,22.793Z" transform="translate(0 -1163)" fill="red"/>
    <path id="路径_410" data-name="路径 410" d="M1498.737,2164.569a8.541,8.541,0,1,1,8.541-8.541A8.55,8.55,0,0,1,1498.737,2164.569Zm0-15.081a6.541,6.541,0,1,0,6.541,6.54A6.55,6.55,0,0,0,1498.737,2149.488Z" transform="translate(0 -1163)" fill="red"/>
    <rect id="矩形_342" data-name="矩形 342" width="1.999" height="13.905" transform="matrix(0.651, -0.759, 0.759, 0.651, 1492.807, 989.263)" fill="red"/>
    <path id="路径_412" data-name="路径 412" d="M1507.347,2149.2l-1.414-1.414,16.032-16.032a7.1,7.1,0,0,1,4.621-2.056,6.162,6.162,0,0,1,4.445,2.065,6.488,6.488,0,0,1,2.122,4.7,5.873,5.873,0,0,1-1.718,3.866l-5.582,5.838-1.446-1.383,5.626-5.881a3.882,3.882,0,0,0,1.121-2.513,4.606,4.606,0,0,0-1.555-3.232,4.19,4.19,0,0,0-2.983-1.461h-.019a5.138,5.138,0,0,0-3.2,1.453Z" transform="translate(0 -1163)" fill="red"/>
  </g>
</svg>
