<svg xmlns="http://www.w3.org/2000/svg" width="52.412" height="30" viewBox="0 0 52.412 30">
  <g id="_040010" data-name="040010" transform="translate(-1055.789 -970.492)">
    <path id="路径_376" data-name="路径 376" d="M1100.554,2163.492a8.085,8.085,0,0,1-3.878-.993l-11.036-4.868a8.31,8.31,0,0,0-8.095.084l-10.12,4.655a7.877,7.877,0,0,1-9.036-.807,7.7,7.7,0,0,1-2.6-5.732c0-12.317,10.857-22.339,24.2-22.339H1084c13.345,0,24.2,10.022,24.2,22.339a7.8,7.8,0,0,1-3.058,6.12A7.4,7.4,0,0,1,1100.554,2163.492Zm-18.887-8.638a10.349,10.349,0,0,1,4.975,1.266l11.036,4.868a5.691,5.691,0,0,0,6.193-.369,6.1,6.1,0,0,0,2.389-4.788c0-11.345-9.985-20.575-22.26-20.575h-4.01c-12.274,0-22.26,9.23-22.26,20.575a6.018,6.018,0,0,0,2.032,4.484,5.773,5.773,0,0,0,6.624.565l10.12-4.655A10.34,10.34,0,0,1,1081.667,2154.854Z" transform="translate(0 -1163)" fill="red"/>
    <rect id="矩形_326" data-name="矩形 326" width="2" height="5.788" transform="translate(1067.419 984.188)" fill="red"/>
    <rect id="矩形_327" data-name="矩形 327" width="2" height="13.17" transform="translate(1070.028 980.274)" fill="red"/>
    <rect id="矩形_328" data-name="矩形 328" width="2" height="5.788" transform="translate(1072.654 984.188)" fill="red"/>
    <rect id="矩形_329" data-name="矩形 329" width="2" height="5.788" transform="translate(1090.897 984.188)" fill="red"/>
    <rect id="矩形_330" data-name="矩形 330" width="2" height="13.17" transform="translate(1093.506 980.274)" fill="red"/>
    <rect id="矩形_331" data-name="矩形 331" width="2" height="5.788" transform="translate(1096.132 984.188)" fill="red"/>
    <path id="路径_377" data-name="路径 377" d="M1088.709,2150.859c-4.836-.023-12.224-.045-12.755-.009l-.1-.993-.237.974-.76-1.095c.06-.492.089-.72,1.227-.824l.006-.024-.006.024c.986-.09,2.806-.084,6.2-.076,3.216.008,6.432.023,6.432.023Z" transform="translate(0 -1163)" fill="red"/>
  </g>
</svg>
