<svg xmlns="http://www.w3.org/2000/svg" width="49.068" height="34.085" viewBox="0 0 49.068 34.085">
  <g id="_040018" data-name="040018" transform="translate(-1481.251 -620.358)">
    <path id="路径_396" data-name="路径 396" d="M1529.99,1812.018c-.379-.063-9.313-1.668-12.336-12.251-3.076-10.765,7.611-16.354,7.719-16.409l.91,1.781c-.383.2-9.325,4.911-6.706,14.078,2.68,9.381,10.662,10.814,10.742,10.828Z" transform="translate(0 -1163)" fill="red"/>
    <path id="路径_397" data-name="路径 397" d="M1492.041,1810.144l-1.664-1.11c2.944-4.416,9.608-7.025,15.72-8.542h-.464c-7.363,0-15.952-4.252-16.314-4.433l.894-1.789c.085.042,8.534,4.222,15.42,4.222h12.982l.067,2C1518.47,1800.5,1497.47,1802,1492.041,1810.144Z" transform="translate(0 -1163)" fill="red"/>
    <path id="路径_398" data-name="路径 398" d="M1485.333,1817.443l1.868-5.4,1.868-5.4,2.794,2.095,2.794,2.095-4.663,3.308Z" transform="translate(0 -1163)" fill="red"/>
    <path id="路径_399" data-name="路径 399" d="M1481.251,1788.329l5.689,1.94,5.689,1.94-2.152,2.92-2.152,2.92-3.537-4.86Z" transform="translate(0 -1163)" fill="red"/>
  </g>
</svg>
