<svg xmlns="http://www.w3.org/2000/svg" width="37.668" height="55.086" viewBox="0 0 37.668 55.086">
  <g id="_040017" data-name="040017" transform="translate(-1486.741 -519.823)">
    <path id="路径_392" data-name="路径 392" d="M1506.832,1694.511l-1.941-.485c1.7-6.816,4.319-10.56,7.772-11.129,5.839-.964,11.508,7.736,11.746,8.107l-1.682,1.081c-1.429-2.218-5.974-7.836-9.741-7.214C1510.431,1685.293,1508.3,1688.626,1506.832,1694.511Z" transform="translate(0 -1163)" fill="red"/>
    <path id="路径_393" data-name="路径 393" d="M1492.243,1737.908l-5.5-5.5,14.034-14.035v-21.378h2V1719.2l-13.206,13.207,2.669,2.669,12.881-12.966,15.034,13.642-1.344,1.481-13.619-12.358Z" transform="translate(0 -1163)" fill="red"/>
    <path id="路径_394" data-name="路径 394" d="M1522.46,1733.211l-14.875-14.355v-21.864h2v21.014l14.264,13.765Z" transform="translate(0 -1163)" fill="red"/>
    <path id="路径_395" data-name="路径 395" d="M1505.515,1701.079l-1.311-4.086-1.311-4.086h5.243l-1.311,4.086Z" transform="translate(0 -1163)" fill="red"/>
  </g>
</svg>
