<svg xmlns="http://www.w3.org/2000/svg" width="53.002" height="35.091" viewBox="0 0 53.002 35.091">
  <g id="_040019" data-name="040019" transform="translate(-1479.155 -704.492)">
    <path id="路径_405" data-name="路径 405" d="M1497.543,1890.975l2.446-6.194,2.446-6.194,3.389,2.984,3.389,2.984-5.835,3.209Z" transform="translate(0 -1163)" fill="red"/>
    <path id="路径_406" data-name="路径 406" d="M1504.5,1884.957l-1.414-1.415c15.868-15.868,28.539-16.05,29.071-16.05l0,2C1532.035,1869.492,1519.722,1869.732,1504.5,1884.957Z" transform="translate(0 -1163)" fill="red"/>
    <path id="路径_407" data-name="路径 407" d="M1502.215,1902.583c-12.715,0-23.06-6.811-23.06-15.182s10.345-15.182,23.06-15.182v2c-11.612,0-21.06,5.913-21.06,13.182s9.448,13.182,21.06,13.182,21.061-5.914,21.061-13.182a9.653,9.653,0,0,0-2.753-6.486l1.478-1.348a11.612,11.612,0,0,1,3.275,7.834C1525.276,1895.772,1514.931,1902.583,1502.215,1902.583Z" transform="translate(0 -1163)" fill="red"/>
  </g>
</svg>
