<svg xmlns="http://www.w3.org/2000/svg" width="48.765" height="54.347" viewBox="0 0 48.765 54.347">
  <g id="_040016" data-name="040016" transform="translate(-1482.155 -430.387)">
    <path id="路径_385" data-name="路径 385" d="M1521.2,1629.225h-33.079c-2.431,0-5.962-3.933-5.962-10.1,0-6.375,6.133-9.077,6.394-9.189l.189-.081h10.129v2h-9.7c-.916.447-5.009,2.7-5.009,7.27,0,5.313,2.944,8.1,3.962,8.1H1521.2Z" transform="translate(0 -1163)" fill="red"/>
    <path id="路径_386" data-name="路径 386" d="M1530.92,1627.921l-5.275,1.692-5.276,1.692v-6.769l5.276,1.692Z" transform="translate(0 -1163)" fill="red"/>
    <path id="路径_391" data-name="路径 391" d="M1500.6,1647.734l-1.941-.483a50.812,50.812,0,0,0,.857-10.756,16.3,16.3,0,0,0-1.845-7.038c-1.388-3.151-2.824-6.409-1-11.892,2.792-8.382,1.211-23.814,1.2-23.969l1.989-.209c.068.65,1.643,16.016-1.286,24.81-1.583,4.751-.418,7.393.93,10.453a18.157,18.157,0,0,1,2.015,7.845A51.332,51.332,0,0,1,1500.6,1647.734Z" transform="translate(0 -1163)" fill="red"/>
  </g>
</svg>
