<svg xmlns="http://www.w3.org/2000/svg" width="44.942" height="44.943" viewBox="0 0 44.942 44.943">
  <g id="_030028" data-name="030028" transform="translate(-476.009 -603.549)">
    <g id="组_702" data-name="组 702" transform="translate(0 -1163)">
      <g id="组_701" data-name="组 701">
        <path id="路径_273" data-name="路径 273" d="M520.951,1811.492H476.009v-44.943h44.942Zm-42.942-2h40.942v-40.943H478.009Z" fill="red"/>
      </g>
    </g>
    <g id="组_704" data-name="组 704" transform="translate(0 -1163)">
      <g id="组_703" data-name="组 703">
        <rect id="矩形_214" data-name="矩形 214" width="2" height="19.948" transform="translate(497.846 1776.543)" fill="red"/>
      </g>
    </g>
    <g id="组_706" data-name="组 706" transform="translate(0 -1163)">
      <g id="组_705" data-name="组 705">
        <rect id="矩形_215" data-name="矩形 215" width="6.49" height="2" transform="translate(480.595 1778.148) rotate(-45)" fill="red"/>
      </g>
    </g>
    <g id="组_708" data-name="组 708" transform="translate(0 -1163)">
      <g id="组_707" data-name="组 707">
        <rect id="矩形_216" data-name="矩形 216" width="6.489" height="2" transform="translate(484.124 1778.148) rotate(-45)" fill="red"/>
      </g>
    </g>
    <g id="组_710" data-name="组 710" transform="translate(0 -1163)">
      <g id="组_709" data-name="组 709">
        <rect id="矩形_217" data-name="矩形 217" width="6.489" height="2" transform="translate(508.832 1778.148) rotate(-45)" fill="red"/>
      </g>
    </g>
    <g id="组_712" data-name="组 712" transform="translate(0 -1163)">
      <g id="组_711" data-name="组 711">
        <rect id="矩形_218" data-name="矩形 218" width="6.489" height="2" transform="translate(512.362 1778.148) rotate(-45)" fill="red"/>
      </g>
    </g>
    <g id="组_714" data-name="组 714" transform="translate(0 -1163)">
      <g id="组_713" data-name="组 713">
        <rect id="矩形_219" data-name="矩形 219" width="31.768" height="2" transform="translate(483.596 1775.561)" fill="red"/>
      </g>
    </g>
    <g id="组_716" data-name="组 716" transform="translate(0 -1163)">
      <g id="组_715" data-name="组 715">
        <path id="路径_274" data-name="路径 274" d="M506.566,1806.492H491.428l7.569-13.2Zm-11.685-2h8.232L499,1797.314Z" fill="red"/>
      </g>
    </g>
  </g>
</svg>
