<svg xmlns="http://www.w3.org/2000/svg" width="52.921" height="26.551" viewBox="0 0 52.921 26.551">
  <g id="_030042" data-name="030042" transform="translate(-712.687 -630.487)">
    <rect id="矩形_246" data-name="矩形 246" width="2" height="6.164" transform="translate(724.508 640.807)" fill="red"/>
    <rect id="矩形_247" data-name="矩形 247" width="8.09" height="2" transform="translate(725.508 642.889)" fill="red"/>
    <rect id="矩形_248" data-name="矩形 248" width="2" height="6.164" transform="translate(752.534 640.807)" fill="red"/>
    <rect id="矩形_249" data-name="矩形 249" width="6.134" height="2" transform="translate(747.4 642.889)" fill="red"/>
    <path id="路径_307" data-name="路径 307" d="M765.608,1820.038H712.687v-26.551h52.921Zm-50.921-2h48.921v-22.551H714.687Z" transform="translate(0 -1163)" fill="red"/>
    <path id="路径_308" data-name="路径 308" d="M762.38,1817.265H715.915V1796.26H762.38Zm-45.465-1H761.38V1797.26H716.915Z" transform="translate(0 -1163)" fill="red"/>
    <path id="路径_309" data-name="路径 309" d="M740.088,1815.212l-5.071-9.545.036-.311a5.376,5.376,0,0,1,5.276-4.928c3.8,0,4.827,3.3,4.842,5.036l0,.256Zm-3-9.907,3.006,5.658,3.062-5.714a2.811,2.811,0,0,0-2.828-2.821A3.326,3.326,0,0,0,737.089,1805.305Z" transform="translate(0 -1163)" fill="red"/>
  </g>
</svg>
