<svg xmlns="http://www.w3.org/2000/svg" width="56.417" height="35.655" viewBox="0 0 56.417 35.655">
  <g id="_030054" data-name="030054" transform="translate(-796.303 -802.757)">
    <path id="路径_329" data-name="路径 329" d="M844.488,2001.412a8.062,8.062,0,0,1-4.175-1.18l-11.879-5.786a8.216,8.216,0,0,0-8.713.1l-10.893,5.533a7.852,7.852,0,0,1-9.727-.959,9.59,9.59,0,0,1-2.8-6.812c0-14.64,11.686-26.551,26.049-26.551h4.317c14.365,0,26.051,11.911,26.051,26.551a9.634,9.634,0,0,1-3.293,7.273A7.486,7.486,0,0,1,844.488,2001.412Zm-20.33-10.266a10.334,10.334,0,0,1,5.355,1.5l11.88,5.787a5.651,5.651,0,0,0,6.665-.44,7.534,7.534,0,0,0,2.572-5.689c0-13.484-10.748-24.454-23.961-24.454h-4.317c-13.211,0-23.96,10.97-23.96,24.454a7.5,7.5,0,0,0,2.187,5.329,5.752,5.752,0,0,0,7.13.671l10.894-5.533A10.338,10.338,0,0,1,824.158,1991.146Z" transform="translate(0 -1163)" fill="red"/>
    <path id="路径_330" data-name="路径 330" d="M812.1,1989.992h-1.444v-9h-.175l-3.868,8.7-.914-.406,4.132-9.3h1.825v8.6l2.464-5.22.9.428Z" transform="translate(0 -1163)" fill="red"/>
    <path id="路径_331" data-name="路径 331" d="M838.6,1990.492h-1.444v-9h-.175l-3.868,8.7-.914-.406,4.132-9.3h1.825v8.6l2.464-5.22.9.428Z" transform="translate(0 -1163)" fill="red"/>
    <path id="路径_332" data-name="路径 332" d="M816.606,1979.264l-.039,2.781-.039,2.781-1.9-.788-1.9-.788,1.94-1.993Z" transform="translate(0 -1163)" fill="red"/>
    <path id="路径_333" data-name="路径 333" d="M842.606,1980.264l-.039,2.781-.039,2.781-1.9-.788-1.9-.788,1.94-1.993Z" transform="translate(0 -1163)" fill="red"/>
    <rect id="矩形_283" data-name="矩形 283" width="13.557" height="1" transform="translate(818.009 821.327)" fill="red"/>
  </g>
</svg>
