<svg xmlns="http://www.w3.org/2000/svg" width="46" height="46" viewBox="0 0 46 46">
  <g id="_030059" data-name="030059" transform="translate(-894.155 -354.492)">
    <path id="路径_344" data-name="路径 344" d="M917.155,1563.492a23,23,0,1,1,23-23A23.026,23.026,0,0,1,917.155,1563.492Zm0-44a21,21,0,1,0,21,21A21.023,21.023,0,0,0,917.155,1519.492Z" transform="translate(0 -1163)" fill="red"/>
    <path id="路径_345" data-name="路径 345" d="M902.429,1551.659l-1.723-1.017,13.4-22.721h2.711V1548.6l6.739-9.435,1.627,1.162-7.426,10.4h-2.94v-20.074Z" transform="translate(0 -1163)" fill="red"/>
    <path id="路径_346" data-name="路径 346" d="M931.612,1530.326l-2.117,6.8-2.117,6.8-3.948-3.068-3.948-3.068,6.065-3.731Z" transform="translate(0 -1163)" fill="red"/>
  </g>
</svg>
