<svg xmlns="http://www.w3.org/2000/svg" width="52.664" height="52.664" viewBox="0 0 52.664 52.664">
  <g id="_030049" data-name="030049" transform="translate(-798.491 -353.552)">
    <path id="路径_321" data-name="路径 321" d="M824.594,1553.257a10.214,10.214,0,1,1,10.215-10.214A10.226,10.226,0,0,1,824.594,1553.257Zm0-18.428a8.214,8.214,0,1,0,8.215,8.214A8.224,8.224,0,0,0,824.594,1534.829Z" transform="translate(0 -1163)" fill="red"/>
    <path id="路径_322" data-name="路径 322" d="M824.247,1533.511l-1.554-4.844-1.554-4.844h6.215l-1.554,4.844Z" transform="translate(0 -1163)" fill="red"/>
    <rect id="矩形_268" data-name="矩形 268" width="2" height="7.271" transform="translate(823.247 353.552)" fill="red"/>
    <path id="路径_323" data-name="路径 323" d="M834.2,1543.46l4.844-1.554,4.844-1.554v6.215l-4.844-1.554Z" transform="translate(0 -1163)" fill="red"/>
    <rect id="矩形_269" data-name="矩形 269" width="7.271" height="2" transform="translate(843.884 379.46)" fill="red"/>
    <path id="路径_324" data-name="路径 324" d="M824.247,1552.257l1.554,4.844,1.554,4.844h-6.215l1.554-4.844Z" transform="translate(0 -1163)" fill="red"/>
    <rect id="矩形_270" data-name="矩形 270" width="2" height="7.271" transform="translate(823.247 398.945)" fill="red"/>
    <path id="路径_325" data-name="路径 325" d="M815.449,1543.46l-4.844,1.554-4.844,1.554v-6.215l4.844,1.554Z" transform="translate(0 -1163)" fill="red"/>
    <rect id="矩形_271" data-name="矩形 271" width="7.271" height="2" transform="translate(798.491 379.46)" fill="red"/>
  </g>
</svg>
