<svg xmlns="http://www.w3.org/2000/svg" width="26.958" height="52.64" viewBox="0 0 26.958 52.64">
  <g id="_030032" data-name="030032" transform="translate(-481.773 -960.479)">
    <g id="组_746" data-name="组 746" transform="translate(0 -1163)">
      <g id="组_745" data-name="组 745">
        <path id="路径_282" data-name="路径 282" d="M501.273,2176.119h-7.021V2148.6h2v25.515h5.021Z" fill="red"/>
      </g>
    </g>
    <g id="组_748" data-name="组 748" transform="translate(0 -1163)">
      <g id="组_747" data-name="组 747">
        <path id="路径_283" data-name="路径 283" d="M495.252,2150.437a13.479,13.479,0,1,1,13.479-13.479A13.495,13.495,0,0,1,495.252,2150.437Zm0-24.958a11.479,11.479,0,1,0,11.479,11.479A11.491,11.491,0,0,0,495.252,2125.479Z" fill="red"/>
      </g>
    </g>
    <g id="组_750" data-name="组 750" transform="translate(0 -1163)">
      <g id="组_749" data-name="组 749">
        <path id="路径_284" data-name="路径 284" d="M488.776,2147.652l-1.633-1.154,9.065-12.812,7.746,12.442-1.7,1.057L496.1,2137.3Z" fill="red"/>
      </g>
    </g>
  </g>
</svg>
