<svg xmlns="http://www.w3.org/2000/svg" width="56.418" height="35.655" viewBox="0 0 56.418 35.655">
  <g id="_030009" data-name="030009" transform="translate(-91.526 -878.837)">
    <g id="部队集结区域" transform="translate(0 -1163)">
      <g id="组_535" data-name="组 535">
        <g id="组_534" data-name="组 534">
          <g id="组_533" data-name="组 533">
            <path id="路径_221" data-name="路径 221" d="M139.712,2077.492a8.061,8.061,0,0,1-4.175-1.18l-11.879-5.786a8.216,8.216,0,0,0-8.713.1l-10.894,5.533a7.85,7.85,0,0,1-9.726-.96,9.583,9.583,0,0,1-2.8-6.812c0-14.639,11.687-26.55,26.05-26.55h4.317c14.364,0,26.051,11.911,26.051,26.55a9.634,9.634,0,0,1-3.293,7.274A7.491,7.491,0,0,1,139.712,2077.492Zm-20.33-10.266a10.323,10.323,0,0,1,5.354,1.5l11.88,5.786a5.651,5.651,0,0,0,6.666-.439,7.539,7.539,0,0,0,2.572-5.69c0-13.483-10.749-24.453-23.961-24.453h-4.317c-13.211,0-23.96,10.97-23.96,24.453a7.5,7.5,0,0,0,2.186,5.33,5.753,5.753,0,0,0,7.131.67l10.894-5.532A10.336,10.336,0,0,1,119.382,2067.226Z" fill="red"/>
          </g>
        </g>
      </g>
    </g>
    <g id="组_539" data-name="组 539" transform="translate(0 -1163)">
      <g id="组_538" data-name="组 538">
        <path id="路径_223" data-name="路径 223" d="M119.735,2066.137a7.424,7.424,0,1,1,7.424-7.424A7.433,7.433,0,0,1,119.735,2066.137Zm0-12.848a5.424,5.424,0,1,0,5.424,5.424A5.43,5.43,0,0,0,119.735,2053.289Z" fill="red"/>
      </g>
    </g>
    <g id="组_548" data-name="组 548" transform="translate(0 -1163)">
      <g id="组_547" data-name="组 547">
        <rect id="矩形_187" data-name="矩形 187" width="7.167" height="2" transform="translate(116.151 2058.467)" fill="red"/>
      </g>
    </g>
    <g id="组_550" data-name="组 550" transform="translate(0 -1163)">
      <g id="组_549" data-name="组 549">
        <rect id="矩形_188" data-name="矩形 188" width="2" height="7.397" transform="translate(118.735 2055.85)" fill="red"/>
      </g>
    </g>
  </g>
</svg>
