<svg xmlns="http://www.w3.org/2000/svg" width="53.876" height="32.994" viewBox="0 0 53.876 32.994">
  <g id="_030029" data-name="030029" transform="translate(-469.346 -697.287)">
    <g id="组_718" data-name="组 718" transform="translate(0 -1163)">
      <g id="组_717" data-name="组 717">
        <path id="路径_275" data-name="路径 275" d="M508.434,1867.545l.993,3.094.993,3.095h-3.97l.993-3.095Z" fill="red"/>
      </g>
    </g>
    <g id="组_720" data-name="组 720" transform="translate(0 -1163)">
      <g id="组_719" data-name="组 719">
        <path id="路径_276" data-name="路径 276" d="M508.434,1880.321l.993,1.647.993,1.647h-3.97l.993-1.647Z" fill="red"/>
      </g>
    </g>
    <g id="组_722" data-name="组 722" transform="translate(0 -1163)">
      <g id="组_721" data-name="组 721">
        <rect id="矩形_220" data-name="矩形 220" width="1" height="12" transform="translate(507.934 1873.733)" fill="red"/>
      </g>
    </g>
    <g id="组_724" data-name="组 724" transform="translate(0 -1163)">
      <g id="组_723" data-name="组 723">
        <rect id="矩形_221" data-name="矩形 221" width="1" height="5.002" transform="translate(505.948 1874.73)" fill="red"/>
      </g>
    </g>
    <g id="组_726" data-name="组 726" transform="translate(0 -1163)">
      <g id="组_725" data-name="组 725">
        <rect id="矩形_222" data-name="矩形 222" width="1" height="4.54" transform="translate(509.618 1874.73)" fill="red"/>
      </g>
    </g>
    <g id="组_728" data-name="组 728" transform="translate(0 -1163)">
      <g id="组_727" data-name="组 727">
        <rect id="矩形_223" data-name="矩形 223" width="3.151" height="1" transform="translate(506.967 1885.233)" fill="red"/>
      </g>
    </g>
    <g id="组_730" data-name="组 730" transform="translate(0 -1163)">
      <g id="组_729" data-name="组 729">
        <rect id="矩形_224" data-name="矩形 224" width="2" height="32.994" transform="translate(521.155 1860.287)" fill="red"/>
      </g>
    </g>
    <g id="组_732" data-name="组 732" transform="translate(0 -1163)">
      <g id="组_731" data-name="组 731">
        <path id="路径_277" data-name="路径 277" d="M506.172,1889.334c-17.316,0-34.817-11.228-35.562-11.711l-1.264-.821,1.247-.846c15.527-10.533,35.339-11.246,36.175-11.271l15.374-.193.025,2-15.356.193c-.176,0-18.932.687-33.785,10.068,4.473,2.639,19.512,10.806,33.756,10.577,16.282-.264,16.282-.265,16.37.9l.07.94-1.018.154-.106-.785-.176.729c-.26-.04-2.119-.152-15.107.06C506.6,1889.333,506.385,1889.334,506.172,1889.334Zm15.9-1.027-.13-.964Z" fill="red"/>
      </g>
    </g>
  </g>
</svg>
