<svg xmlns="http://www.w3.org/2000/svg" width="55" height="29.895" viewBox="0 0 55 29.895">
  <g id="_030063" data-name="030063" transform="translate(-888.155 -716.492)">
    <path id="路径_355" data-name="路径 355" d="M913.143,1902.492l-6.7-.079H896.128a7.974,7.974,0,0,1,0-15.948h16.481v2H896.128a5.974,5.974,0,0,0,0,11.948h10.329l6.709.079Z" transform="translate(0 -1163)" fill="red"/>
    <path id="路径_356" data-name="路径 356" d="M930.394,1909.387H930.2l-38.212-15.339,38.221-14.556h.185c7.036,0,12.761,5.036,12.761,11.227v7.441C943.155,1904.35,937.43,1909.387,930.394,1909.387Zm-32.915-15.29,33.1,13.288c5.847-.087,10.572-4.192,10.572-9.225v-7.441c0-5.036-4.73-9.143-10.581-9.226Z" transform="translate(0 -1163)" fill="red"/>
    <path id="路径_357" data-name="路径 357" d="M911.516,1900.771l-1.486-1.339c4.869-5.406.224-10.366.023-10.575l1.437-1.391C911.553,1887.53,917.65,1893.961,911.516,1900.771Z" transform="translate(0 -1163)" fill="red"/>
    <path id="路径_358" data-name="路径 358" d="M922.948,1905.849l-1.374-1.453c9.279-8.771.012-19.305-.387-19.749l1.488-1.337C922.786,1883.434,933.627,1895.755,922.948,1905.849Z" transform="translate(0 -1163)" fill="red"/>
    <rect id="矩形_297" data-name="矩形 297" width="46.328" height="2" transform="translate(895.827 730.132)" fill="red"/>
  </g>
</svg>
