<svg xmlns="http://www.w3.org/2000/svg" width="56.418" height="35.655" viewBox="0 0 56.418 35.655">
  <g id="_030024" data-name="030024" transform="translate(-468.378 -251.043)">
    <path id="路径_250" data-name="路径 250" d="M516.564,1449.7a8.07,8.07,0,0,1-4.175-1.179l-11.879-5.786a8.212,8.212,0,0,0-8.713.1l-10.894,5.532a7.849,7.849,0,0,1-9.726-.959,9.585,9.585,0,0,1-2.8-6.812c0-14.64,11.687-26.551,26.05-26.551h4.317c14.364,0,26.051,11.911,26.051,26.551a9.638,9.638,0,0,1-3.293,7.274A7.491,7.491,0,0,1,516.564,1449.7Zm-20.33-10.265a10.322,10.322,0,0,1,5.354,1.5l11.88,5.786a5.651,5.651,0,0,0,6.666-.439,7.54,7.54,0,0,0,2.572-5.69c0-13.484-10.749-24.454-23.961-24.454h-4.317c-13.211,0-23.96,10.97-23.96,24.454a7.5,7.5,0,0,0,2.186,5.329,5.752,5.752,0,0,0,7.131.671l10.894-5.532A10.328,10.328,0,0,1,496.234,1439.433Z" transform="translate(0 -1163)" fill="red"/>
    <g id="组_660" data-name="组 660" transform="translate(0 -1163)">
      <g id="组_659" data-name="组 659">
        <path id="路径_256" data-name="路径 256" d="M492.377,1430.408l-3.508-2.338,3.431-3.431.707.707-2.569,2.569,2.492,1.662Z" fill="red"/>
      </g>
    </g>
    <g id="组_662" data-name="组 662" transform="translate(0 -1163)">
      <g id="组_661" data-name="组 661">
        <path id="路径_257" data-name="路径 257" d="M494.015,1429.8l-1.936-1.936,2.222-2.223.707.707-1.515,1.516,1.229,1.229Z" fill="red"/>
      </g>
    </g>
    <g id="组_664" data-name="组 664" transform="translate(0 -1163)">
      <g id="组_663" data-name="组 663">
        <path id="路径_258" data-name="路径 258" d="M479.377,1438.408l-3.508-2.338,3.431-3.431.707.707-2.569,2.569,2.492,1.662Z" fill="red"/>
      </g>
    </g>
    <g id="组_666" data-name="组 666" transform="translate(0 -1163)">
      <g id="组_665" data-name="组 665">
        <path id="路径_259" data-name="路径 259" d="M481.015,1437.8l-1.936-1.936,2.222-2.223.707.707-1.515,1.516,1.229,1.229Z" fill="red"/>
      </g>
    </g>
    <g id="组_668" data-name="组 668" transform="translate(0 -1163)">
      <g id="组_667" data-name="组 667">
        <path id="路径_260" data-name="路径 260" d="M510.377,1430.408l-3.508-2.338,3.431-3.431.707.707-2.569,2.569,2.492,1.662Z" fill="red"/>
      </g>
    </g>
    <g id="组_670" data-name="组 670" transform="translate(0 -1163)">
      <g id="组_669" data-name="组 669">
        <path id="路径_261" data-name="路径 261" d="M512.015,1429.8l-1.936-1.936,2.222-2.223.707.707-1.515,1.516,1.229,1.229Z" fill="red"/>
      </g>
    </g>
    <g id="组_672" data-name="组 672" transform="translate(0 -1163)">
      <g id="组_671" data-name="组 671">
        <path id="路径_262" data-name="路径 262" d="M514.377,1438.408l-3.508-2.338,3.431-3.431.707.707-2.569,2.569,2.492,1.662Z" fill="red"/>
      </g>
    </g>
    <g id="组_674" data-name="组 674" transform="translate(0 -1163)">
      <g id="组_673" data-name="组 673">
        <path id="路径_263" data-name="路径 263" d="M516.015,1437.8l-1.936-1.936,2.222-2.223.707.707-1.515,1.516,1.229,1.229Z" fill="red"/>
      </g>
    </g>
    <g id="组_676" data-name="组 676" transform="translate(0 -1163)">
      <g id="组_675" data-name="组 675">
        <path id="路径_264" data-name="路径 264" d="M499.377,1438.408l-3.508-2.338,3.431-3.431.707.707-2.569,2.569,2.492,1.662Z" fill="red"/>
      </g>
    </g>
    <g id="组_678" data-name="组 678" transform="translate(0 -1163)">
      <g id="组_677" data-name="组 677">
        <path id="路径_265" data-name="路径 265" d="M501.015,1437.8l-1.936-1.936,2.222-2.223.707.707-1.515,1.516,1.229,1.229Z" fill="red"/>
      </g>
    </g>
  </g>
</svg>
