<svg xmlns="http://www.w3.org/2000/svg" width="54.499" height="29.431" viewBox="0 0 54.499 29.431">
  <g id="_030064" data-name="030064" transform="translate(-887.655 -802.937)">
    <path id="路径_359" data-name="路径 359" d="M935.469,1995.368l-.525-.074-39.1-5.585v-18.122l39.559-5.65.347.312c4,3.6,6.146,7.784,6.379,12.438.44,8.761-6.032,15.986-6.308,16.29Zm-37.621-7.393,36.831,5.26c1.285-1.573,5.8-7.623,5.456-14.461a15.6,15.6,0,0,0-5.377-10.725l-36.91,5.272Z" transform="translate(0 -1163)" fill="red"/>
    <rect id="矩形_298" data-name="矩形 298" width="44.242" height="2" transform="translate(896.848 816.979)" fill="red"/>
    <path id="路径_360" data-name="路径 360" d="M896.848,1989.842a9.194,9.194,0,1,1,9.194-9.2A9.2,9.2,0,0,1,896.848,1989.842Zm0-16.388a7.194,7.194,0,1,0,7.194,7.193A7.2,7.2,0,0,0,896.848,1973.454Z" transform="translate(0 -1163)" fill="red"/>
  </g>
</svg>
