<svg xmlns="http://www.w3.org/2000/svg" width="50.427" height="13.627" viewBox="0 0 50.427 13.627">
  <g id="_030006" data-name="030006" transform="translate(-93.517 -621.865)">
    <g id="组_562" data-name="组 562" transform="translate(0 -1163)">
      <g id="组_561" data-name="组 561">
        <rect id="矩形_191" data-name="矩形 191" width="9.764" height="2" transform="translate(99.604 1792.071)" fill="red"/>
      </g>
    </g>
    <g id="组_564" data-name="组 564" transform="translate(0 -1163)">
      <g id="组_563" data-name="组 563">
        <rect id="矩形_192" data-name="矩形 192" width="14.024" height="2" transform="translate(129.92 1791.439)" fill="red"/>
      </g>
    </g>
    <g id="组_566" data-name="组 566" transform="translate(0 -1163)">
      <g id="组_565" data-name="组 565">
        <rect id="矩形_193" data-name="矩形 193" width="2" height="3.158" transform="matrix(0.8, -0.6, 0.6, 0.8, 117.12, 1786.092)" fill="red"/>
      </g>
    </g>
    <g id="组_568" data-name="组 568" transform="translate(0 -1163)">
      <g id="组_567" data-name="组 567">
        <rect id="矩形_194" data-name="矩形 194" width="3.242" height="2" transform="translate(123.951 1787.392) rotate(-51.205)" fill="red"/>
      </g>
    </g>
    <g id="组_570" data-name="组 570" transform="translate(0 -1163)">
      <g id="组_569" data-name="组 569">
        <path id="路径_230" data-name="路径 230" d="M122.169,1796.6h-2.085l.131-3.236-2.127,2.836-1.6-1.2,4.09-5.453h1.794l-.144,3.556,1.692-2.343,1.621,1.171Z" fill="red"/>
      </g>
    </g>
    <g id="组_572" data-name="组 572" transform="translate(0 -1163)">
      <g id="组_571" data-name="组 571">
        <path id="路径_231" data-name="路径 231" d="M93.517,1793.361l3.043-.976,3.043-.976v3.9l-3.043-.976Z" fill="red"/>
      </g>
    </g>
    <g id="组_574" data-name="组 574" transform="translate(0 -1163)">
      <g id="组_573" data-name="组 573">
        <path id="路径_232" data-name="路径 232" d="M130.92,1798.492H108.8v-6.03l4.933-4.812H130.92Zm-20.124-2H128.92v-6.842H114.542l-3.746,3.655Z" fill="red"/>
      </g>
    </g>
  </g>
</svg>
