<svg xmlns="http://www.w3.org/2000/svg" width="52.612" height="52.611" viewBox="0 0 52.612 52.611">
  <g id="_030026" data-name="030026" transform="translate(-472 -425.589)">
    <g id="组_682" data-name="组 682" transform="translate(0.457 -1163)">
      <g id="组_681" data-name="组 681">
        <path id="路径_267" data-name="路径 267" d="M497.849,1641.2a26.305,26.305,0,1,1,26.306-26.3A26.336,26.336,0,0,1,497.849,1641.2Zm0-50.611a24.305,24.305,0,1,0,24.306,24.306A24.333,24.333,0,0,0,497.849,1590.589Z" fill="red"/>
      </g>
    </g>
    <g id="组_684" data-name="组 684" transform="translate(0.395 -1163)">
      <g id="组_683" data-name="组 683">
        <path id="路径_268" data-name="路径 268" d="M497.753,1594.492l2.074,6.465,2.074,6.465h-8.3l2.074-6.465Z" fill="red"/>
      </g>
    </g>
    <g id="组_686" data-name="组 686" transform="translate(0.247 -1163)">
      <g id="组_685" data-name="组 685">
        <rect id="矩形_210" data-name="矩形 210" width="2" height="25.069" transform="translate(496.753 1607.422)" fill="red"/>
      </g>
    </g>
    <g id="组_688" data-name="组 688" transform="translate(-0.155 -1163)">
      <g id="组_687" data-name="组 687">
        <rect id="矩形_211" data-name="矩形 211" width="10" height="2" transform="translate(493.155 1630.492)" fill="red"/>
      </g>
    </g>
    <g id="组_690" data-name="组 690" transform="translate(0.648 -1163)">
      <g id="组_689" data-name="组 689">
        <path id="路径_269" data-name="路径 269" d="M491.958,1628.087l-1.606-1.191,7.573-10.206,6.351,10.275-1.7,1.052-4.8-7.768Z" fill="red"/>
      </g>
    </g>
  </g>
</svg>
