<svg xmlns="http://www.w3.org/2000/svg" width="49.878" height="17" viewBox="0 0 49.878 17">
  <g id="_030040" data-name="030040" transform="translate(-712.943 -454.492)">
    <rect id="矩形_238" data-name="矩形 238" width="2" height="17" transform="translate(712.943 454.492)" fill="red"/>
    <rect id="矩形_239" data-name="矩形 239" width="2" height="17" transform="translate(760.821 454.492)" fill="red"/>
    <rect id="矩形_240" data-name="矩形 240" width="6.486" height="2" transform="translate(721.671 457.98)" fill="red"/>
    <rect id="矩形_241" data-name="矩形 241" width="16.458" height="2" transform="translate(745.363 457.293)" fill="red"/>
    <rect id="矩形_242" data-name="矩形 242" width="14.432" height="2" transform="translate(747.389 466.998)" fill="red"/>
    <rect id="矩形_243" data-name="矩形 243" width="6.486" height="2" transform="translate(721.671 466.998)" fill="red"/>
    <path id="路径_296" data-name="路径 296" d="M713.446,1622.174l4.363-1.4,4.363-1.4v5.6l-4.363-1.4Z" transform="translate(0 -1163)" fill="red"/>
    <path id="路径_297" data-name="路径 297" d="M713.446,1631.151l4.363-1.4,4.363-1.4v5.6l-4.363-1.4Z" transform="translate(0 -1163)" fill="red"/>
    <rect id="矩形_244" data-name="矩形 244" width="9.127" height="2" transform="translate(730.401 457.98)" fill="red"/>
    <path id="路径_298" data-name="路径 298" d="M735.8,1625.551l-4.933-3.538,4.9-3.814,1.229,1.578-2.79,2.171,2.758,1.978Z" transform="translate(0 -1163)" fill="red"/>
    <path id="路径_299" data-name="路径 299" d="M743.371,1624.477h-4.843v-5.786h4.843Zm-2.843-2h.843v-1.786h-.843Z" transform="translate(0 -1163)" fill="red"/>
    <path id="路径_300" data-name="路径 300" d="M745.615,1634.2H732.394v-7.237h13.221Zm-11.221-2h9.221v-3.237h-9.221Z" transform="translate(0 -1163)" fill="red"/>
    <path id="路径_301" data-name="路径 301" d="M729.653,1630.781l2.992-3.564v6.733Z" transform="translate(0 -1163)" fill="red"/>
    <path id="路径_302" data-name="路径 302" d="M741.624,1632.191l-5.816-1.521,5.816-1.71Zm-3.014-1.563,2.264.592v-1.258Z" transform="translate(0 -1163)" fill="red"/>
  </g>
</svg>
