<svg xmlns="http://www.w3.org/2000/svg" width="43.211" height="43.212" viewBox="0 0 43.211 43.212">
  <g id="_030011" data-name="030011" transform="translate(-210.155 -165.719)">
    <g id="组_544" data-name="组 544" transform="translate(0 -1163)">
      <g id="组_543" data-name="组 543">
        <g id="组_542" data-name="组 542">
          <path id="路径_225" data-name="路径 225" d="M231.76,1371.931a21.606,21.606,0,1,1,21.606-21.606A21.63,21.63,0,0,1,231.76,1371.931Zm0-41.212a19.606,19.606,0,1,0,19.606,19.606A19.628,19.628,0,0,0,231.76,1330.719Z" fill="red"/>
        </g>
      </g>
    </g>
    <g id="组_582" data-name="组 582" transform="translate(0 -1163)">
      <g id="组_581" data-name="组 581">
        <g id="组_580" data-name="组 580">
          <path id="路径_234" data-name="路径 234" d="M235.323,1345.277c0-1.719-1.015-3.022-3.229-3.022a5.652,5.652,0,0,0-4.194,2.162l-1.406-1.3a7.737,7.737,0,0,1,5.86-2.813c3.23,0,5.288,1.849,5.288,4.767,0,3.984-5.5,4.818-4.793,8.751h-2.136C229.906,1349.445,235.323,1348.247,235.323,1345.277Zm-5.183,13.258a1.681,1.681,0,1,1,3.36,0,1.68,1.68,0,1,1-3.36,0Z" fill="red"/>
        </g>
      </g>
    </g>
  </g>
</svg>
