<svg xmlns="http://www.w3.org/2000/svg" width="56.418" height="35.655" viewBox="0 0 56.418 35.655">
  <g id="_030022" data-name="030022" transform="translate(-387.378 -966.043)">
    <path id="路径_248" data-name="路径 248" d="M435.564,2164.7a8.069,8.069,0,0,1-4.175-1.179l-11.879-5.786a8.212,8.212,0,0,0-8.713.1l-10.894,5.532a7.849,7.849,0,0,1-9.726-.959,9.585,9.585,0,0,1-2.8-6.812c0-14.64,11.687-26.551,26.05-26.551h4.317c14.364,0,26.051,11.911,26.051,26.551a9.637,9.637,0,0,1-3.293,7.274A7.49,7.49,0,0,1,435.564,2164.7Zm-20.33-10.265a10.323,10.323,0,0,1,5.354,1.5l11.88,5.786a5.65,5.65,0,0,0,6.666-.439,7.539,7.539,0,0,0,2.572-5.69c0-13.484-10.749-24.454-23.961-24.454h-4.317c-13.211,0-23.96,10.97-23.96,24.454a7.5,7.5,0,0,0,2.186,5.329,5.752,5.752,0,0,0,7.131.671l10.894-5.532A10.328,10.328,0,0,1,415.234,2154.433Z" transform="translate(0 -1163)" fill="red"/>
    <path id="路径_251" data-name="路径 251" d="M414.6,2153.046l-5.475-10.3.036-.31c.217-1.844,1.689-5.332,5.7-5.332,4.1,0,5.209,3.558,5.225,5.44l0,.256Zm-3.4-10.668,3.41,6.42,3.47-6.477a3.192,3.192,0,0,0-3.212-3.222A3.745,3.745,0,0,0,411.2,2142.378Z" transform="translate(0 -1163)" fill="red"/>
  </g>
</svg>
