<svg xmlns="http://www.w3.org/2000/svg" width="56.578" height="18.894" viewBox="0 0 56.578 18.894">
  <g id="_030056" data-name="030056" transform="translate(-798.155 -990.598)">
    <path id="路径_338" data-name="路径 338" d="M847.023,2172.492H805.865a7.711,7.711,0,0,1,0-15.422h4.6v2h-4.6a5.711,5.711,0,0,0,0,11.422h41.158a5.711,5.711,0,0,0,0-11.422h-4.868v-2h4.868a7.711,7.711,0,0,1,0,15.422Z" transform="translate(0 -1163)" fill="red"/>
    <path id="路径_339" data-name="路径 339" d="M840.24,2158.071" transform="translate(0 -1163)" fill="red"/>
    <path id="路径_340" data-name="路径 340" d="M813.485,2158.071" transform="translate(0 -1163)" fill="red"/>
    <rect id="矩形_286" data-name="矩形 286" width="26.233" height="2" transform="translate(813.485 994.472)" fill="red"/>
    <path id="路径_341" data-name="路径 341" d="M826.22,2164.2l-6.429-5.82,6.515-4.7,1.17,1.621-4.512,3.257,4.6,4.162Z" transform="translate(0 -1163)" fill="red"/>
    <rect id="矩形_287" data-name="矩形 287" width="2" height="8.891" transform="translate(830.274 992.387) rotate(-63.412)" fill="red"/>
    <rect id="矩形_288" data-name="矩形 288" width="1.999" height="8.16" transform="translate(831.848 996.338) rotate(-60.061)" fill="red"/>
  </g>
</svg>
