<svg xmlns="http://www.w3.org/2000/svg" width="54.187" height="17.763" viewBox="0 0 54.187 17.763">
  <g id="_030007" data-name="030007" transform="translate(-92.893 -708.729)">
    <g id="组_546" data-name="组 546" transform="translate(0 -1163)">
      <g id="组_545" data-name="组 545">
        <path id="路径_226" data-name="路径 226" d="M119.564,1889.492a7.762,7.762,0,1,1,7.761-7.762A7.771,7.771,0,0,1,119.564,1889.492Zm0-13.524a5.762,5.762,0,1,0,5.761,5.762A5.769,5.769,0,0,0,119.564,1875.968Z" fill="red"/>
      </g>
    </g>
    <g id="组_554" data-name="组 554" transform="translate(0 -1163)">
      <g id="组_553" data-name="组 553">
        <rect id="矩形_189" data-name="矩形 189" width="2" height="5.592" transform="translate(110.64 1873.199) rotate(-45)" fill="red"/>
      </g>
    </g>
    <g id="组_556" data-name="组 556" transform="translate(0 -1163)">
      <g id="组_555" data-name="组 555">
        <rect id="矩形_190" data-name="矩形 190" width="6.11" height="2" transform="matrix(0.762, -0.647, 0.647, 0.762, 123.131, 1875.684)" fill="red"/>
      </g>
    </g>
    <g id="组_558" data-name="组 558" transform="translate(0 -1163)">
      <g id="组_557" data-name="组 557">
        <path id="路径_228" data-name="路径 228" d="M94.893,1884.855h-2v-5.372H112.8v2H94.893Z" fill="red"/>
      </g>
    </g>
    <g id="组_560" data-name="组 560" transform="translate(0 -1163)">
      <g id="组_559" data-name="组 559">
        <path id="路径_229" data-name="路径 229" d="M147.08,1881.484H126.325v-2H145.08v-3.038h2Z" fill="red"/>
      </g>
    </g>
  </g>
</svg>
