<svg xmlns="http://www.w3.org/2000/svg" width="56.417" height="35.655" viewBox="0 0 56.417 35.655">
  <path id="_030021" data-name="030021" d="M433.483,2075.115a8.061,8.061,0,0,1-4.175-1.18l-11.879-5.786a8.214,8.214,0,0,0-8.713.1l-10.894,5.533a7.85,7.85,0,0,1-9.726-.96,9.585,9.585,0,0,1-2.8-6.812c0-14.639,11.687-26.55,26.05-26.55h4.317c14.364,0,26.05,11.911,26.05,26.55a9.635,9.635,0,0,1-3.292,7.274A7.493,7.493,0,0,1,433.483,2075.115Zm-20.33-10.266a10.323,10.323,0,0,1,5.354,1.5l11.88,5.786a5.65,5.65,0,0,0,6.666-.439,7.54,7.54,0,0,0,2.572-5.69c0-13.483-10.749-24.453-23.961-24.453h-4.317c-13.212,0-23.96,10.97-23.96,24.453a7.5,7.5,0,0,0,2.186,5.33,5.753,5.753,0,0,0,7.131.67l10.894-5.532A10.327,10.327,0,0,1,413.153,2064.849Z" transform="translate(-385.297 -2039.46)" fill="red"/>
</svg>
