<svg xmlns="http://www.w3.org/2000/svg" width="56.418" height="35.655" viewBox="0 0 56.418 35.655">
  <g id="_030023" data-name="030023" transform="translate(-468.378 -169.043)">
    <path id="路径_249" data-name="路径 249" d="M516.564,1367.7a8.07,8.07,0,0,1-4.175-1.179l-11.879-5.786a8.212,8.212,0,0,0-8.713.1l-10.894,5.532a7.849,7.849,0,0,1-9.726-.959,9.585,9.585,0,0,1-2.8-6.812c0-14.64,11.687-26.551,26.05-26.551h4.317c14.364,0,26.051,11.911,26.051,26.551a9.638,9.638,0,0,1-3.293,7.274A7.491,7.491,0,0,1,516.564,1367.7Zm-20.33-10.265a10.322,10.322,0,0,1,5.354,1.5l11.88,5.786a5.651,5.651,0,0,0,6.666-.439,7.54,7.54,0,0,0,2.572-5.69c0-13.484-10.749-24.454-23.961-24.454h-4.317c-13.211,0-23.96,10.97-23.96,24.454a7.5,7.5,0,0,0,2.186,5.329,5.752,5.752,0,0,0,7.131.671l10.894-5.532A10.328,10.328,0,0,1,496.234,1357.433Z" transform="translate(0 -1163)" fill="red"/>
    <g id="组_634" data-name="组 634" transform="translate(0 -1163)">
      <g id="组_633" data-name="组 633">
        <path id="路径_252" data-name="路径 252" d="M489.572,1337.854l.9,2.819.9,2.819h-3.617l.9-2.819Z" fill="red"/>
      </g>
    </g>
    <g id="组_636" data-name="组 636" transform="translate(0 -1163)">
      <g id="组_635" data-name="组 635">
        <path id="路径_253" data-name="路径 253" d="M489.572,1349.492l.9,1.5.9,1.5h-3.617l.9-1.5Z" fill="red"/>
      </g>
    </g>
    <g id="组_638" data-name="组 638" transform="translate(0 -1163)">
      <g id="组_637" data-name="组 637">
        <rect id="矩形_201" data-name="矩形 201" width="1" height="10.93" transform="translate(489.072 1343.492)" fill="red"/>
      </g>
    </g>
    <g id="组_640" data-name="组 640" transform="translate(0 -1163)">
      <g id="组_639" data-name="组 639">
        <rect id="矩形_202" data-name="矩形 202" width="1" height="4.557" transform="translate(487.263 1344.4)" fill="red"/>
      </g>
    </g>
    <g id="组_642" data-name="组 642" transform="translate(0 -1163)">
      <g id="组_641" data-name="组 641">
        <rect id="矩形_203" data-name="矩形 203" width="1" height="4.135" transform="translate(490.606 1344.4)" fill="red"/>
      </g>
    </g>
    <g id="组_644" data-name="组 644" transform="translate(0 -1163)">
      <g id="组_643" data-name="组 643">
        <rect id="矩形_204" data-name="矩形 204" width="2.87" height="1" transform="translate(488.236 1353.921)" fill="red"/>
      </g>
    </g>
    <g id="组_646" data-name="组 646" transform="translate(0 -1163)">
      <g id="组_645" data-name="组 645">
        <path id="路径_254" data-name="路径 254" d="M505.572,1337.854l.9,2.819.9,2.819h-3.617l.9-2.819Z" fill="red"/>
      </g>
    </g>
    <g id="组_648" data-name="组 648" transform="translate(0 -1163)">
      <g id="组_647" data-name="组 647">
        <path id="路径_255" data-name="路径 255" d="M505.572,1349.492l.9,1.5.9,1.5h-3.617l.9-1.5Z" fill="red"/>
      </g>
    </g>
    <g id="组_650" data-name="组 650" transform="translate(0 -1163)">
      <g id="组_649" data-name="组 649">
        <rect id="矩形_205" data-name="矩形 205" width="1" height="10.93" transform="translate(505.072 1343.492)" fill="red"/>
      </g>
    </g>
    <g id="组_652" data-name="组 652" transform="translate(0 -1163)">
      <g id="组_651" data-name="组 651">
        <rect id="矩形_206" data-name="矩形 206" width="1" height="4.557" transform="translate(503.263 1344.4)" fill="red"/>
      </g>
    </g>
    <g id="组_654" data-name="组 654" transform="translate(0 -1163)">
      <g id="组_653" data-name="组 653">
        <rect id="矩形_207" data-name="矩形 207" width="1" height="4.135" transform="translate(506.606 1344.4)" fill="red"/>
      </g>
    </g>
    <g id="组_656" data-name="组 656" transform="translate(0 -1163)">
      <g id="组_655" data-name="组 655">
        <rect id="矩形_208" data-name="矩形 208" width="2.87" height="1" transform="translate(504.236 1353.921)" fill="red"/>
      </g>
    </g>
    <g id="组_658" data-name="组 658" transform="translate(0 -1163)">
      <g id="组_657" data-name="组 657">
        <rect id="矩形_209" data-name="矩形 209" width="9.057" height="1" transform="translate(492.598 1347.492)" fill="red"/>
      </g>
    </g>
  </g>
</svg>
