<svg xmlns="http://www.w3.org/2000/svg" width="57.349" height="35.958" viewBox="0 0 57.349 35.958">
  <g id="_030058" data-name="030058" transform="translate(-886.594 -267.534)">
    <path id="路径_334" data-name="路径 334" d="M935.959,1466.492a49.9,49.9,0,0,1-8.657-1.163,65.7,65.7,0,0,0-12.034-1.5,66.883,66.883,0,0,0-12.317,1.52c-5.819,1.1-10.844,2.049-13.793-.394-1.725-1.43-2.564-3.875-2.564-7.474,0-10.6,10.167-19.488,24.176-21.131l.2,1.673c-12.934,1.517-22.687,9.882-22.687,19.458,0,3.066.639,5.086,1.954,6.177,2.34,1.937,7,1.057,12.405.035a68.173,68.173,0,0,1,12.63-1.549,66.987,66.987,0,0,1,12.348,1.53c5.509,1.043,10.267,1.945,12.67-.048,1.327-1.1,1.972-3.109,1.972-6.145,0-9.165-8.523-17.05-20.727-19.172l.289-1.66c13.025,2.265,22.123,10.832,22.123,20.832,0,3.569-.845,6-2.582,7.443A8.2,8.2,0,0,1,935.959,1466.492Z" transform="translate(0 -1163)" fill="red"/>
    <path id="路径_335" data-name="路径 335" d="M920.165,1433.541l-.7-3.007-1.745,2.547.828.156-1.217,6.455-2.126-4.429a.421.421,0,0,0-.793.1l-.926,4.908.828.156.687-3.646,2.126,4.43a.423.423,0,0,0,.3.232.456.456,0,0,0,.133,0,.42.42,0,0,0,.359-.34l1.456-7.718Z" transform="translate(0 -1163)" fill="red"/>
  </g>
</svg>
