<svg xmlns="http://www.w3.org/2000/svg" width="51.223" height="25.476" viewBox="0 0 51.223 25.476">
  <g id="_030015" data-name="030015" transform="translate(-387.97 -354.967)">
    <g id="组_590" data-name="组 590" transform="translate(0 -1163)">
      <g id="组_589" data-name="组 589">
        <path id="路径_237" data-name="路径 237" d="M439.193,1543.443H387.97v-25.476h51.223Zm-49.223-2h47.223v-21.476H389.97Z" fill="red"/>
      </g>
    </g>
    <g id="组_592" data-name="组 592" transform="translate(0 -1163)">
      <g id="组_591" data-name="组 591">
        <rect id="矩形_197" data-name="矩形 197" width="2" height="49.223" transform="translate(388.968 1524.368) rotate(-89.886)" fill="red"/>
      </g>
    </g>
    <g id="组_602" data-name="组 602" transform="translate(0 -1163)">
      <g id="组_601" data-name="组 601">
        <path id="路径_241" data-name="路径 241" d="M413.96,1541.928c-12.232,0-25.233-3.137-25.233-8.951s13-8.952,25.233-8.952,25.233,3.138,25.233,8.952S426.193,1541.928,413.96,1541.928Zm0-15.9c-13.691,0-23.233,3.664-23.233,6.952s9.542,6.951,23.233,6.951,23.233-3.663,23.233-6.951S427.652,1526.025,413.96,1526.025Z" fill="red"/>
      </g>
    </g>
  </g>
</svg>
