<svg xmlns="http://www.w3.org/2000/svg" width="40.844" height="40.163" viewBox="0 0 40.844 40.163">
  <g id="_030061" data-name="030061" transform="translate(-894.448 -533.466)">
    <path id="路径_350" data-name="路径 350" d="M914.655,1735.492a18.5,18.5,0,1,1,18.5-18.5A18.521,18.521,0,0,1,914.655,1735.492Zm0-35a16.5,16.5,0,1,0,16.5,16.5A16.518,16.518,0,0,0,914.655,1700.492Z" transform="translate(0 -1163)" fill="red"/>
    <circle id="椭圆_15" data-name="椭圆 15" cx="4" cy="4" r="4" transform="translate(912.155 533.492)" fill="red"/>
    <circle id="椭圆_16" data-name="椭圆 16" cx="4" cy="4" r="4" transform="translate(927.155 555.492)" fill="red"/>
    <circle id="椭圆_17" data-name="椭圆 17" cx="4" cy="4" r="4" transform="translate(895.155 558.492)" fill="red"/>
    <rect id="矩形_292" data-name="矩形 292" width="2" height="17.903" transform="matrix(0.707, -0.707, 0.707, 0.707, 894.448, 534.88)" fill="red"/>
    <rect id="矩形_293" data-name="矩形 293" width="2" height="12.675" transform="matrix(0.707, -0.707, 0.707, 0.707, 909.448, 550.199)" fill="red"/>
    <rect id="矩形_294" data-name="矩形 294" width="2" height="16.164" transform="translate(922.448 562.199) rotate(-45)" fill="red"/>
  </g>
</svg>
