<svg xmlns="http://www.w3.org/2000/svg" width="46" height="46" viewBox="0 0 46 46">
  <g id="_030048" data-name="030048" transform="translate(-798.155 -266.492)">
    <path id="路径_319" data-name="路径 319" d="M844.155,1475.492h-46v-46h46Zm-44-2h42v-42h-42Z" transform="translate(0 -1163)" fill="red"/>
    <rect id="矩形_266" data-name="矩形 266" width="2" height="20.441" transform="matrix(0.74, -0.673, 0.673, 0.74, 799.789, 269.539)" fill="red"/>
    <rect id="矩形_267" data-name="矩形 267" width="2" height="24.326" transform="translate(824.601 295.727) rotate(-47.291)" fill="red"/>
    <path id="路径_320" data-name="路径 320" d="M819.78,1461.742a9.25,9.25,0,1,1,9.25-9.25A9.26,9.26,0,0,1,819.78,1461.742Zm0-16.5a7.25,7.25,0,1,0,7.25,7.25A7.258,7.258,0,0,0,819.78,1445.242Z" transform="translate(0 -1163)" fill="red"/>
  </g>
</svg>
