<svg xmlns="http://www.w3.org/2000/svg" width="54.016" height="28.503" viewBox="0 0 54.016 28.503">
  <g id="_030062" data-name="030062" transform="translate(-888.155 -630.492)">
    <rect id="矩形_295" data-name="矩形 295" width="54.016" height="2" transform="translate(888.155 630.492)" fill="red"/>
    <rect id="矩形_296" data-name="矩形 296" width="54.016" height="2" transform="translate(888.155 656.995)" fill="red"/>
    <path id="路径_351" data-name="路径 351" d="M903.448,1814.2l-6.774-6.774,6.841-5.7,1.28,1.536-5.159,4.3,5.226,5.226Z" transform="translate(0 -1163)" fill="red"/>
    <path id="路径_352" data-name="路径 352" d="M898.448,1814.2l-6.774-6.774,6.841-5.7,1.28,1.536-5.159,4.3,5.226,5.226Z" transform="translate(0 -1163)" fill="red"/>
    <path id="路径_353" data-name="路径 353" d="M936.448,1814.2l-6.774-6.774,6.841-5.7,1.28,1.536-5.159,4.3,5.226,5.226Z" transform="translate(0 -1163)" fill="red"/>
    <path id="路径_354" data-name="路径 354" d="M931.448,1814.2l-6.774-6.774,6.841-5.7,1.28,1.536-5.159,4.3,5.226,5.226Z" transform="translate(0 -1163)" fill="red"/>
  </g>
</svg>
