<svg xmlns="http://www.w3.org/2000/svg" width="53" height="49.978" viewBox="0 0 53 49.978">
  <path id="_9001" data-name="9001" d="M2133.752,313.28H2097.98a8.843,8.843,0,0,1-8.614-9.037v-16.4a8.843,8.843,0,0,1,8.614-9.037h7.988l9.549-15.506,8.627,15.506h9.608a8.843,8.843,0,0,1,8.614,9.037v16.4A8.843,8.843,0,0,1,2133.752,313.28Zm-35.772-32.472a6.843,6.843,0,0,0-6.614,7.037v16.4a6.843,6.843,0,0,0,6.614,7.037h35.772a6.843,6.843,0,0,0,6.614-7.037v-16.4a6.843,6.843,0,0,0-6.614-7.037h-10.783l-7.539-13.55-8.345,13.55Z" transform="translate(-2089.366 -263.302)" fill="red"/>
</svg>
