<svg xmlns="http://www.w3.org/2000/svg" width="27.202" height="37.659" viewBox="0 0 27.202 37.659">
  <path id="_9004" data-name="9004" d="M2109.7,591.97l3.194-9.506.075-.227-9.053-3.041a2,2,0,0,1-1.431-1.363,2.317,2.317,0,0,1,.08-2.114,13.607,13.607,0,0,1,9.456-7.528l3.338-6.938a7.407,7.407,0,0,1-.595-3.853c.08-.218,0-.377.153-.452a2.458,2.458,0,0,1,3.174-1.578l9.725,3.273a2.309,2.309,0,0,1,1.507,1.514,2.544,2.544,0,0,1-.232,2.189,7.494,7.494,0,0,1-2.8,2.711l-1.528,7.547a13.09,13.09,0,0,1,2.993,11.71l-.076.227a2.514,2.514,0,0,1-1.362,1.431,3.558,3.558,0,0,1-1.964.222l-9.053-3.041a.169.169,0,0,1-.077.226l-3.193,9.506h0m0,0" transform="translate(-2102.265 -555.226)" fill="red"/>
</svg>
