<svg xmlns="http://www.w3.org/2000/svg" width="53.492" height="35.134" viewBox="0 0 53.492 35.134">
  <path id="_9006" data-name="9006" d="M2142.612,754l-15.222-7v6.309c-.462.172-.907.33-1.318.47-4.12,1.414-6.051,2.439-8.665,12.034-.993,5.214-3.433,9.059-7.253,11.429-8.252,5.121-20.373,1.828-20.5,1.795l-.539,1.926a37.745,37.745,0,0,0,9.318,1.171,24.268,24.268,0,0,0,12.761-3.187c4.321-2.677,7.071-6.97,8.156-12.684,2.426-8.9,3.974-9.429,7.366-10.592.214-.073.443-.154.669-.233v5.833Z" transform="translate(-2089.12 -746.998)" fill="red"/>
</svg>
