<svg xmlns="http://www.w3.org/2000/svg" width="54.451" height="16.416" viewBox="0 0 54.451 16.416">
  <g id="_010044" data-name="010044" transform="translate(-745.256 -358.292)">
    <path id="路径_785" data-name="路径 785" d="M761.717,359.708l-1.412-1.416L754,364.581l-6.288-6.288-1.414,1.414,6.286,6.286-7.323,7.3,1.412,1.416,7.325-7.3,7.3,7.3,1.414-1.414-7.3-7.3Z" fill="red"/>
    <path id="路径_786" data-name="路径 786" d="M780.717,359.708l-1.412-1.416L773,364.581l-6.288-6.288-1.414,1.414,6.286,6.286-7.323,7.3,1.412,1.416,7.325-7.3,7.3,7.3,1.414-1.414-7.3-7.3Z" fill="red"/>
    <path id="路径_787" data-name="路径 787" d="M799.707,373.293l-7.3-7.3,6.308-6.287-1.412-1.416L791,364.581l-6.288-6.288-1.414,1.414,6.286,6.286-7.323,7.3,1.412,1.416,7.325-7.3,7.3,7.3Z" fill="red"/>
  </g>
</svg>
