<svg xmlns="http://www.w3.org/2000/svg" width="39.852" height="40" viewBox="0 0 39.852 40">
  <path id="_010022" data-name="010022" d="M331.364,294.14l-3.827-2.27A16.956,16.956,0,0,0,313,268.051V262h-2v6.051a16.965,16.965,0,0,0-14.717,23.409l-4.771,2.667.976,1.746,4.668-2.609a16.967,16.967,0,0,0,29.454.383l3.734,2.213ZM327,285a14.918,14.918,0,0,1-1.188,5.848L313,283.252v-13.2A15.007,15.007,0,0,1,327,285Zm-30,0a15.007,15.007,0,0,1,14-14.949v13.184l-12.951,7.239A14.9,14.9,0,0,1,297,285Zm15,15a15.006,15.006,0,0,1-13.1-7.711l13.084-7.313,12.908,7.652A14.994,14.994,0,0,1,312,300Z" transform="translate(-291.512 -262)" fill="red"/>
</svg>
