<svg xmlns="http://www.w3.org/2000/svg" width="34.923" height="48.042" viewBox="0 0 34.923 48.042">
  <path id="_010026" data-name="010026" d="M312.067,660.481l-.774-.774c-.166-.166-4.139-4.173-10.125-13.152C295.07,637.408,295,624.543,295,624v-.552l17.459-11.009,17.464,11.012,0,.557c-.052,6.45-2.018,13.542-5.843,21.08l-.181.359c-1.023,2.045-10.1,12.956-11.127,14.193Zm-15.055-35.937c.085,2.525.744,13.287,5.82,20.9a106.209,106.209,0,0,0,9.124,12.043c3.974-4.791,9.495-11.626,10.149-12.935l.187-.37c3.574-7.043,5.462-13.646,5.617-19.637l-15.45-9.742Z" transform="translate(-295 -612.439)" fill="red"/>
</svg>
