<svg xmlns="http://www.w3.org/2000/svg" width="28" height="53.5" viewBox="0 0 28 53.5">
  <path id="_010055" data-name="010055" d="M885.277,452.051V447.5h7.888v-2h-7.888v-4h7.888v-2h-7.888v-5h7.888v-2h-7.888v-6h-2v6h-7.888v2h7.888v5h-7.888v2h7.888v4h-7.888v2h7.888v4.551a14,14,0,1,0,2,0Zm11,13.949h-11V454.051A12.009,12.009,0,0,1,896.277,466Zm-13-11.949V466h-11A12.01,12.01,0,0,1,883.277,454.051ZM872.458,468h10.819v9.949A12.007,12.007,0,0,1,872.458,468Zm12.819,9.949V468H896.1A12.009,12.009,0,0,1,885.277,477.949Z" transform="translate(-870.277 -426.5)" fill="red"/>
</svg>
