<svg xmlns="http://www.w3.org/2000/svg" width="40.252" height="40.218" viewBox="0 0 40.252 40.218">
  <g id="_010024" data-name="010024" transform="translate(-293 -441.443)">
    <path id="路径_761" data-name="路径 761" d="M330.707,445.293c-3.3-3.3-5.744-4.3-12.849-3.283l-.256.073a12.892,12.892,0,0,0-4.572,3.747,9.933,9.933,0,0,0-6.473-4.195c-4.422-.623-7.874.268-10.264,2.658-2.046,2.045-4.364,4.364-3.279,10.872l.04.243,19.952,26.253,19.64-26.237.045-.215C332.749,454.943,334.054,448.639,330.707,445.293Zm.066,9.294-17.779,23.752-18.047-23.745c-.826-5.3.838-6.965,2.76-8.887,1.948-1.948,4.75-2.632,8.569-2.092s5.8,4.443,5.82,4.48l.813,1.655.944-1.584a11.379,11.379,0,0,1,4.438-4.2c6.62-.927,8.285.022,11,2.738C331.583,449,330.949,453.568,330.773,454.587Z" transform="translate(0.263)" fill="red"/>
    <path id="路径_762" data-name="路径 762" d="M318,453.364V451H308v2h7.7L307,463.372v2.58h11.411v-2h-9.287Z" transform="translate(0)" fill="red"/>
  </g>
</svg>
