<svg xmlns="http://www.w3.org/2000/svg" width="33" height="49" viewBox="0 0 33 49">
  <g id="_010021" data-name="010021" transform="translate(-296.712 -168)">
    <path id="路径_757" data-name="路径 757" d="M319.863,184V172.7l-.168-.252c-2.027-3.041-4.239-4.532-6.552-4.441-3.689.149-6.055,4.332-6.154,4.51l-.119.215L306.585,184h-9.873v33h33V184Zm-11.007-10.71c.457-.727,2.173-3.2,4.373-3.288q2.3-.078,4.634,3.305V184h-9.277ZM327.712,215h-29V186h29Z" fill="red"/>
    <path id="路径_758" data-name="路径 758" d="M308.212,197.973h4V206h2v-8.027h4V206h2V195.973h-14V206h2Z" fill="red"/>
  </g>
</svg>
