<svg xmlns="http://www.w3.org/2000/svg" width="45.079" height="42.724" viewBox="0 0 45.079 42.724">
  <path id="_010012" data-name="010012" d="M224.041,283.277a18.283,18.283,0,0,1-18.256,18.037h-.573v-9.151l7.241-11.2-7.241-11.2V261.3h-2v8.469l-7.239,11.2,7.239,11.2v9.15h-.571a18.283,18.283,0,0,1-18.257-18.037h-2.711a20.994,20.994,0,0,0,20.968,20.742h3.144a20.994,20.994,0,0,0,20.967-20.742Zm-13.97-2.313-4.859,7.516V273.448Zm-11.717,0,4.858-7.516V288.48Z" transform="translate(-181.673 -261.295)" fill="red"/>
</svg>
