<svg xmlns="http://www.w3.org/2000/svg" width="55.761" height="33.433" viewBox="0 0 55.761 33.433">
  <g id="_2001" data-name="2001" transform="translate(-80.975 -126)">
    <path id="路径_277" data-name="路径 277" d="M164.938,138.415c-3.321-6.824-6.848-9.868-18.968-9.868-6.433,0-8.178.585-10.2,1.263-1.778.6-3.795,1.273-9.879,1.74l-.259.055c-.6.213-14.608,5.334-15.659,15.843-.458,4.582.705,8.337,3.364,10.858,2.566,2.433,6.432,3.674,11.343,3.674a35.9,35.9,0,0,0,5.441-.444c4.911-.756,8.184-1.382,10.574-1.84a45.192,45.192,0,0,1,10.273-1.149c4.523,0,9.252-4.324,11.933-8.61C165.594,145.634,166.355,141.327,164.938,138.415Zm-3.73,10.461c-2.826,4.517-7.036,7.671-10.238,7.671a46.715,46.715,0,0,0-10.649,1.185c-2.507.48-5.628,1.077-10.5,1.827-6.9,1.06-12.119.126-15.1-2.7-2.224-2.11-3.15-5.208-2.75-9.208.878-8.777,12.891-13.6,14.223-14.113,6.222-.487,8.345-1.2,10.221-1.828,1.929-.647,3.454-1.159,9.561-1.159,11.641,0,14.278,2.8,17.169,8.743C164.252,141.578,163.531,145.162,161.208,148.876Z" transform="translate(-28.903 -2.547)" fill="red"/>
    <path id="路径_278" data-name="路径 278" d="M130.633,145.09a1.892,1.892,0,0,0-.909.225l.153-1.7h2.455v-.872h-3.353l-.2,3.148.5.323a1.74,1.74,0,0,1,1.061-.378,1.187,1.187,0,0,1,1.259,1.3,1.252,1.252,0,0,1-1.313,1.321,2.114,2.114,0,0,1-1.546-.71l-.495.674c.01.01.022.018.032.028h-1.063V142.86h-.781a3.889,3.889,0,0,1-1.44.5v.657h1.187v4.425h-1.448v.854h3.777v-.657a2.876,2.876,0,0,0,1.9.657,2.14,2.14,0,0,0,2.23-2.2A1.857,1.857,0,0,0,130.633,145.09Z" transform="translate(-29.246 -2.645)" fill="red"/>
    <path id="路径_279" data-name="路径 279" d="M136.251,146.026c-.153.44-.279.89-.432,1.33h-.045c-.153-.44-.288-.89-.441-1.33l-1.214-3.355h-1.2V149.3h.936v-3.273c0-.594-.081-1.448-.127-2.051h.037l.522,1.529,1.159,3.156h.648l1.152-3.156.53-1.529h.036c-.055.6-.136,1.457-.136,2.051V149.3h.972v-6.628h-1.206Z" transform="translate(-29.246 -2.645)" fill="red"/>
    <path id="路径_280" data-name="路径 280" d="M141.919,148.39c-1.168,0-1.906-.962-1.906-2.536,0-1.555.791-2.509,1.933-2.509a1.766,1.766,0,0,1,1.3.594l.566-.666a2.554,2.554,0,0,0-1.879-.835c-1.674,0-2.986,1.294-2.986,3.453s1.277,3.408,2.941,3.408a2.612,2.612,0,0,0,2.058-.953l-.557-.657A1.913,1.913,0,0,1,141.919,148.39Z" transform="translate(-29.246 -2.645)" fill="red"/>
    <path id="路径_281" data-name="路径 281" d="M145.922,141.425a2.794,2.794,0,0,0-2.037.837l.7.742a1.774,1.774,0,0,1,1.284-.572c1.029,0,1.893.742,1.948,2.967a2.5,2.5,0,0,0-1.771-.911,2.115,2.115,0,0,0-2.292,2.342,2.383,2.383,0,0,0,2.436,2.469c1.549,0,2.812-1.176,2.812-3.677C149,142.633,147.538,141.425,145.922,141.425Zm.277,6.941c-.709,0-1.273-.572-1.273-1.536a1.271,1.271,0,0,1,1.35-1.452,1.914,1.914,0,0,1,1.506.922C147.649,147.709,147.062,148.366,146.2,148.366Z" transform="translate(-29.246 -2.645)" fill="red"/>
  </g>
</svg>
