<svg xmlns="http://www.w3.org/2000/svg" width="42.318" height="42.314" viewBox="0 0 42.318 42.314">
  <g id="_2002" data-name="2002" transform="translate(-739.899 -403.893)">
    <g id="组_14" data-name="组 14">
      <path id="路径_203" data-name="路径 203" d="M760.868,446.207a21.219,21.219,0,0,1-13.217-4.786l1.433-1.749a18.95,18.95,0,0,0,11.8,4.274Zm2.383-.112-.232-2.25a18.917,18.917,0,0,0,11.342-5.374l1.592,1.6A21.2,21.2,0,0,1,763.251,446.1ZM745.9,439.808a21.184,21.184,0,0,1-5.905-12.755l2.252-.212a18.909,18.909,0,0,0,5.274,11.39Zm31.656-1.5-1.762-1.417a18.692,18.692,0,0,0,4.167-11.841h2.261A21.22,21.22,0,0,1,777.551,438.3Zm-35.391-13.6-2.261-.039a21.2,21.2,0,0,1,4.9-13.173l1.735,1.449A18.942,18.942,0,0,0,742.16,424.71Zm37.741-1.12a18.933,18.933,0,0,0-5.07-11.483l1.648-1.548a21.189,21.189,0,0,1,5.676,12.858Zm-31.907-12.2-1.564-1.634a21.208,21.208,0,0,1,12.807-5.791l.192,2.253A18.927,18.927,0,0,0,747.994,411.388Zm25.293-.752a18.932,18.932,0,0,0-11.724-4.482l.06-2.261a21.212,21.212,0,0,1,13.128,5.021Z" fill="red"/>
    </g>
    <ellipse id="椭圆_4" data-name="椭圆 4" cx="5.69" cy="5.674" rx="5.69" ry="5.674" transform="translate(755.344 419.605)" fill="#ffb000"/>
    <path id="路径_204" data-name="路径 204" d="M761.056,433.2a7.9,7.9,0,1,1,7.914-7.9A7.913,7.913,0,0,1,761.056,433.2Zm0-13.529a5.634,5.634,0,1,0,5.653,5.634A5.65,5.65,0,0,0,761.056,419.667Z" fill="red"/>
  </g>
</svg>
