<svg xmlns="http://www.w3.org/2000/svg" width="58.566" height="24.898" viewBox="0 0 58.566 24.898">
  <g id="_2004" data-name="2004" transform="translate(-9808.475 -308.594)">
    <path id="路径_2" data-name="路径 2" d="M9867.041,310.492l-.633-1.9c-.006,0-1.038.346-2.835.9l.588,1.912C9865.991,310.841,9867.041,310.492,9867.041,310.492Z" fill="red"/>
    <path id="路径_3" data-name="路径 3" d="M9825.592,317.366l.137,1.995c1.854-.127,3.837-.325,5.894-.587l-.254-1.984C9829.35,317.047,9827.407,317.241,9825.592,317.366Z" fill="red"/>
    <path id="路径_4" data-name="路径 4" d="M9840.947,315.22l.385,1.963c1.863-.366,3.8-.777,5.765-1.223l-.442-1.95C9844.711,314.452,9842.791,314.859,9840.947,315.22Z" fill="red"/>
    <path id="路径_5" data-name="路径 5" d="M9848.549,313.569l.461,1.947c1.864-.441,3.786-.922,5.713-1.429l-.509-1.934C9852.3,312.656,9850.4,313.132,9848.549,313.569Z" fill="red"/>
    <path id="路径_6" data-name="路径 6" d="M9856.1,311.65l.524,1.93c1.9-.516,3.807-1.058,5.665-1.61l-.57-1.917C9859.873,310.6,9857.982,311.138,9856.1,311.65Z" fill="red"/>
    <path id="路径_7" data-name="路径 7" d="M9833.293,316.528l.283,1.979c1.859-.266,3.821-.588,5.827-.958l-.363-1.967C9837.06,315.947,9835.127,316.265,9833.293,316.528Z" fill="red"/>
    <path id="路径_8" data-name="路径 8" d="M9863.573,332.6c1.8.551,2.829.895,2.835.9l.633-1.9s-1.05-.349-2.88-.911Z" fill="red"/>
    <path id="路径_9" data-name="路径 9" d="M9825.592,324.72c1.815.125,3.758.319,5.776.576l.254-1.984c-2.057-.262-4.039-.46-5.894-.587Z" fill="red"/>
    <path id="路径_10" data-name="路径 10" d="M9848.549,328.517c1.849.437,3.754.913,5.665,1.416l.509-1.934c-1.927-.507-3.849-.988-5.713-1.429Z" fill="red"/>
    <path id="路径_11" data-name="路径 11" d="M9856.1,330.436c1.887.512,3.777,1.049,5.619,1.6l.57-1.917c-1.858-.552-3.764-1.094-5.665-1.61Z" fill="red"/>
    <path id="路径_12" data-name="路径 12" d="M9840.947,326.866c1.844.361,3.764.768,5.707,1.21l.442-1.95c-1.963-.446-3.9-.857-5.765-1.223Z" fill="red"/>
    <path id="路径_13" data-name="路径 13" d="M9833.293,325.558c1.834.263,3.767.581,5.747.946l.363-1.967c-2.006-.369-3.968-.692-5.827-.958Z" fill="red"/>
    <g id="组_3" data-name="组 3">
      <path id="路径_14" data-name="路径 14" d="M9823.673,324.611h.009l.091-2c-.23-.01-.454-.016-.682-.023l-1.964-.042c-.133,0-.271-.005-.4-.005l.784,2.009.326.849-9.109-4.858,9.152-4.881-.693,1.876-.46,2.005c.977,0,2-.023,3.049-.07l-.091-2c-.116.005-.229.007-.347.011l2.237-6.062-17.1,9.119,17.141,9.142Z" fill="red"/>
    </g>
  </g>
</svg>
