<svg id="_2006" data-name="2006" xmlns="http://www.w3.org/2000/svg" width="63.272" height="50.668" viewBox="0 0 63.272 50.668">
  <path id="路径_282" data-name="路径 282" d="M453.732,487.477l-1.248,1.015a5.32,5.32,0,0,0,4.145,1.973v-1.609A3.721,3.721,0,0,1,453.732,487.477Z" transform="translate(-393.357 -439.796)" fill="red"/>
  <path id="路径_283" data-name="路径 283" d="M452.609,466.381H451v7.389l1.609-.007Z" transform="translate(-393.067 -435.675)" fill="red"/>
  <path id="路径_284" data-name="路径 284" d="M452.609,444.365H451v7.389l1.609-.007Z" transform="translate(-393.067 -431.373)" fill="red"/>
  <path id="路径_285" data-name="路径 285" d="M452.609,434.491a3.749,3.749,0,0,1,.125-.96l-1.554-.417a5.3,5.3,0,0,0-.18,1.377V440.7l1.609-.007Z" transform="translate(-393.067 -429.175)" fill="red"/>
  <path id="路径_286" data-name="路径 286" d="M452.751,431.032l.628.5.039-.072h0l.009.006a3.716,3.716,0,0,1,2.751-1.646l-.15-1.6a5.316,5.316,0,0,0-3.906,2.311h0c-.01.016-.023.029-.034.045l.542.361.008.006-.551-.367-.052.091.687.344.031.016-.019-.007-.012-.009.011.009-.743-.248Z" transform="translate(-393.26 -428.219)" fill="red"/>
  <path id="路径_287" data-name="路径 287" d="M452.609,455.373H451v7.389l1.609-.007Z" transform="translate(-393.067 -433.524)" fill="red"/>
  <path id="路径_288" data-name="路径 288" d="M451.818,484.837l1.029-.369-.759.268.754-.281a3.725,3.725,0,0,1-.233-1.3v-5.766H451v5.766a5.317,5.317,0,0,0,.331,1.849h0l0,.006h0l0,.006Z" transform="translate(-393.067 -437.825)" fill="red"/>
  <path id="路径_289" data-name="路径 289" d="M412.95,460.269l8.126.04V458.74l-8.086-.04Z" transform="translate(-385.633 -434.174)" fill="red"/>
  <path id="路径_290" data-name="路径 290" d="M400.95,460.269l8.126.04V458.74l-8.086-.04Z" transform="translate(-383.288 -434.174)" fill="red"/>
  <path id="路径_291" data-name="路径 291" d="M389.461,455.7,379,458.921l10.461,3.219-1.225-2.45,6.9.034v-1.569l-6.881-.034Z" transform="translate(-379 -433.588)" fill="red"/>
  <path id="路径_292" data-name="路径 292" d="M444.437,456.052h-1.609v2.065h-.8v-2.065h-1.609v2.065h-.8v-2.065H438v2.065h-2.147l1.207-2.414-7.957,2.448-4.113-.037-.04,1.569,4.247.037,7.863,2.419-1.207-2.414H438v1.553h1.609v-1.553h.8v1.553h1.609v-1.553h.8v1.553h1.609v-1.553h1.452v-1.609h-1.452Z" transform="translate(-387.977 -433.588)" fill="red"/>
</svg>
