<svg id="_2007" data-name="2007" xmlns="http://www.w3.org/2000/svg" width="65.896" height="50.668" viewBox="0 0 65.896 50.668">
  <path id="路径_293" data-name="路径 293" d="M411.95,599.269l8.126.04V597.74l-8.086-.04Z" transform="translate(-384.633 -573.174)" fill="red"/>
  <path id="路径_294" data-name="路径 294" d="M399.95,599.269l8.126.04V597.74l-8.086-.04Z" transform="translate(-382.288 -573.174)" fill="red"/>
  <path id="路径_295" data-name="路径 295" d="M439.413,598.726v1.553h1.609v-1.553h.8v1.553h1.609v-1.553h1.452v-1.609h-1.452v-2.065h-1.609v2.065h-.8v-2.065h-1.609v2.065h-.8v-2.065H437v2.065h-2.147l1.207-2.414-7.957,2.448-4.112-.036-.04,1.569,4.247.037,7.862,2.419-1.207-2.414H437v1.553h1.609v-1.553Z" transform="translate(-386.977 -572.588)" fill="red"/>
  <path id="路径_296" data-name="路径 296" d="M388.461,594.7,378,597.921l10.461,3.219-1.225-2.45,6.9.034v-1.569l-6.881-.034Z" transform="translate(-378 -572.588)" fill="red"/>
  <path id="路径_297" data-name="路径 297" d="M456.455,602.3l-6.353-4.538v-11.8l6.353-4.584-6.353-4.538v-4.3a3.712,3.712,0,0,1,3.375-3.713l-.15-1.6a5.314,5.314,0,0,0-4.834,5.315v4.516l-6.208,4.479,6.208,4.434v12.008l-6.208,4.479,6.208,4.434v5.665a5.345,5.345,0,0,0,5.339,5.339v-1.609a3.733,3.733,0,0,1-3.729-3.729v-5.668Zm-7.009-23.95,4.25,3.036-4.4,3.176-4.25-3.036Zm0,20.92,4.25,3.036-4.4,3.176-4.25-3.036Z" transform="translate(-390.559 -567.219)" fill="red"/>
</svg>
