<svg xmlns="http://www.w3.org/2000/svg" width="61.255" height="27.257" viewBox="0 0 61.255 27.257">
  <path id="_2008" data-name="2008" d="M49.557,503.257,54.58,496h5.55a5.956,5.956,0,0,1,5.694,4.273l1.92-.556A7.964,7.964,0,0,0,60.13,494H54.58l-5.023-7.257L44.533,494H38.109v-9.479l3,1.479-4-10-4,10,3-1.522V494H29.58l-5.023-7.257L19.533,494H13.984a7.932,7.932,0,0,0-7.5,5.34l1.891.652a5.93,5.93,0,0,1,5.6-3.992h5.549l5.024,7.257L29.58,496H44.533Zm0-13L52.841,495l-3.284,4.743L46.272,495Zm-25,9.486L21.272,495l3.285-4.743L27.841,495Z" transform="translate(-6.489 -476)" fill="red"/>
</svg>
