<svg xmlns="http://www.w3.org/2000/svg" width="61.255" height="27.257" viewBox="0 0 61.255 27.257">
  <g id="_2009" data-name="2009" transform="translate(-8.489 -613)">
    <path id="路径_263" data-name="路径 263" d="M62.13,631H56.58l-5.023-7.257L46.533,631H40.109v-9.479l3,1.479-4-10-4,10,3-1.522V631H31.58l-5.023-7.257L21.533,631H15.984a7.932,7.932,0,0,0-7.495,5.34l1.891.652a5.93,5.93,0,0,1,5.6-3.992h5.549l5.024,7.257L31.58,633H46.533l5.024,7.257L56.58,633h5.55a5.956,5.956,0,0,1,5.694,4.273l1.92-.556A7.964,7.964,0,0,0,62.13,631Zm-35.573,5.743L23.272,632l3.285-4.743L29.841,632Zm25,0L48.272,632l3.285-4.743L54.841,632Z" fill="red"/>
    <path id="路径_264" data-name="路径 264" d="M61.4,634H55.91v2H61.4a4.571,4.571,0,0,1,4.369,3.278l1.92-.556A6.578,6.578,0,0,0,61.4,634Z" fill="red"/>
    <rect id="矩形_169" data-name="矩形 169" width="14" height="2" transform="translate(32 634)" fill="red"/>
    <path id="路径_265" data-name="路径 265" d="M10.421,638.411l1.891.652a4.549,4.549,0,0,1,4.3-3.063h4.872v-2H16.611A6.55,6.55,0,0,0,10.421,638.411Z" fill="red"/>
  </g>
</svg>
