<svg xmlns="http://www.w3.org/2000/svg" width="61.887" height="26.306" viewBox="0 0 61.887 26.306">
  <g id="_2010" data-name="2010" transform="translate(-7.066 -750.951)">
    <path id="路径_266" data-name="路径 266" d="M25.557,760.743,20.533,768H15.26v2h5.273l5.024,7.257L30.58,770H36.4v-2H30.58Zm0,13L22.272,769l3.285-4.743L28.841,769Z" fill="red"/>
    <path id="路径_267" data-name="路径 267" d="M50.557,760.743,45.533,768H40.9v2h4.636l5.024,7.257L55.58,770h4.955v-2H55.58Zm0,13L47.272,769l3.285-4.743L53.841,769Z" fill="red"/>
    <path id="路径_268" data-name="路径 268" d="M61.73,768v2H62a5.049,5.049,0,0,1,1.257.159l.5-1.936A7.005,7.005,0,0,0,62,768Z" fill="red"/>
    <path id="路径_269" data-name="路径 269" d="M65.066,768.706l-.877,1.8a4.979,4.979,0,0,1,2.778,3.916l1.986-.229A6.965,6.965,0,0,0,65.066,768.706Z" fill="red"/>
    <path id="路径_270" data-name="路径 270" d="M7.066,774.033l1.981.275a4.979,4.979,0,0,1,2.865-3.853l-.836-1.816A6.968,6.968,0,0,0,7.066,774.033Z" fill="red"/>
    <path id="路径_271" data-name="路径 271" d="M12.285,768.212l.488,1.939A5.054,5.054,0,0,1,14,770h.161v-2H14A7.006,7.006,0,0,0,12.285,768.212Z" fill="red"/>
    <path id="路径_272" data-name="路径 272" d="M39.651,759.477l2.992,1.475-4-10-4,10,3.008-1.526V768h-.123v2h2.246v-2h-.123Z" fill="red"/>
  </g>
</svg>
