<svg xmlns="http://www.w3.org/2000/svg" width="68" height="24" viewBox="0 0 68 24">
  <g id="_2011" data-name="2011" transform="translate(-671 -132)">
    <path id="路径_27" data-name="路径 27" d="M9805.548,754.139h-1.79v8h1.79v-2.87h3.578v-2h-3.578Z" transform="translate(-9132.758 -606.139)" fill="red"/>
    <path id="路径_28" data-name="路径 28" d="M9869.969,754.139v3.13H9866v2h3.966v2.87h1.789v-8Z" transform="translate(-9132.758 -606.139)" fill="red"/>
    <rect id="矩形_28" data-name="矩形 28" width="9.174" height="2" transform="translate(678.203 151)" fill="red"/>
    <rect id="矩形_29" data-name="矩形 29" width="9.174" height="2" transform="translate(689.212 151)" fill="red"/>
    <rect id="矩形_30" data-name="矩形 30" width="9.174" height="2" transform="translate(711.229 151)" fill="red"/>
    <rect id="矩形_31" data-name="矩形 31" width="9.174" height="2" transform="translate(722.237 151)" fill="red"/>
    <path id="路径_29" data-name="路径 29" d="M9838.46,751.049h1.75v-2h-1.75v-.5h1.75v-2h-1.75v-.5h1.75v-2h-1.75V738.63h-1.79v5.418h-1.8v2h1.8v.5h-1.8v2h1.8v.5h-1.8v2h1.8v6.22h-3.692v2h9.174v-2h-3.691Z" transform="translate(-9132.758 -606.63)" fill="red"/>
  </g>
</svg>
