<svg xmlns="http://www.w3.org/2000/svg" width="54.964" height="46.017" viewBox="0 0 54.964 46.017">
  <g id="_2013" data-name="2013" transform="translate(-9810.276 -899.253)">
    <path id="路径_33" data-name="路径 33" d="M9838.562,901.277a31.061,31.061,0,0,1,5.424.689l.427-1.954a33.022,33.022,0,0,0-5.774-.733,32.379,32.379,0,0,0-7.9.652l.407,1.958A30.744,30.744,0,0,1,9838.562,901.277Z" fill="red"/>
    <path id="路径_34" data-name="路径 34" d="M9812.275,921.283a18.366,18.366,0,0,1,4.7-11.447l-1.506-1.317a20.359,20.359,0,0,0-5.2,12.705l1,.07Z" fill="red"/>
    <path id="路径_35" data-name="路径 35" d="M9863.207,921.343l2-.138a21,21,0,0,0-5.535-12.594l-1.488,1.336A19.015,19.015,0,0,1,9863.207,921.343Z" fill="red"/>
    <path id="路径_36" data-name="路径 36" d="M9829.351,902.323l-.53-1.928a27.841,27.841,0,0,0-11.976,6.682l1.392,1.438A25.833,25.833,0,0,1,9829.351,902.323Z" fill="red"/>
    <path id="路径_37" data-name="路径 37" d="M9812.3,923.133l-2,.134a20.988,20.988,0,0,0,5.5,12.608l1.49-1.333A19,19,0,0,1,9812.3,923.133Z" fill="red"/>
    <path id="路径_38" data-name="路径 38" d="M9817.193,937.3a28.832,28.832,0,0,0,11.948,6.715l.552-1.923a26.839,26.839,0,0,1-11.12-6.239Z" fill="red"/>
    <path id="路径_39" data-name="路径 39" d="M9846.113,942.214l.529,1.929a27.869,27.869,0,0,0,11.987-6.661l-1.387-1.44A25.875,25.875,0,0,1,9846.113,942.214Z" fill="red"/>
    <path id="路径_40" data-name="路径 40" d="M9836.95,943.247a31.018,31.018,0,0,1-5.468-.7l-.433,1.953a32.877,32.877,0,0,0,5.823.745q.646.024,1.284.025a32.5,32.5,0,0,0,6.569-.667l-.406-1.958A30.7,30.7,0,0,1,9836.95,943.247Z" fill="red"/>
    <path id="路径_41" data-name="路径 41" d="M9863.237,923.24a18.378,18.378,0,0,1-4.735,11.483l1.5,1.32a20.347,20.347,0,0,0,5.231-12.706l0-.126Z" fill="red"/>
    <path id="路径_42" data-name="路径 42" d="M9858.282,907.187a28.867,28.867,0,0,0-11.96-6.693l-.548,1.923a26.871,26.871,0,0,1,11.131,6.22Z" fill="red"/>
    <path id="路径_43" data-name="路径 43" d="M9838.479,911.262c-4.045,0-6.934,4.263-7.055,4.445l-.168.252v3.832l7.27,17.475,6.73-17.489v-3.818l-.168-.252C9843.121,912.757,9840.9,911.262,9838.479,911.262Zm-5.223,5.323c.6-.791,2.7-3.323,5.223-3.323h.007c1.646,0,3.251,1.115,4.771,3.307v.693h-10Zm5.2,15.3-5.2-12.493v-.13h10v.143Z" fill="red"/>
  </g>
</svg>
