<svg xmlns="http://www.w3.org/2000/svg" width="61.142" height="43" viewBox="0 0 61.142 43">
  <g id="_2014" data-name="2014" transform="translate(-396.467 -1051.811)">
    <path id="部队的防御配置" d="M168.049,1007.752l-3.332.025c-.074-.326-.161-.648-.259-.968l3.871-1.1-.545-1.925-4,1.131.1.335c-.152-.347-.314-.691-.494-1.03l3.124-1.581-.9-1.785-3.269,1.656c-.151-.216-.311-.427-.474-.637l2.834-2.358-1.279-1.537-2.856,2.376q-.185-.2-.376-.387l1.906-2.222-1.518-1.3-1.866,2.175a30.212,30.212,0,0,0-12.65-5.938v-3.933h-2v3.541q-.743-.126-1.5-.221v-3.32h-2v3.115c-.5-.038-1-.067-1.5-.086v-3.029h-2v3.008q-.756.011-1.5.047v-3.055h-2v3.2c-.505.051-1.005.109-1.5.179v-3.382h-2v3.724a33.617,33.617,0,0,0-8.874,3.021l-1.254-2.235-1.744.979,1.254,2.235q-.362.219-.712.447l-1.288-2.151-1.717,1.027,1.366,2.281c-.15.116-.3.234-.442.352l-2.153-2.056-1.381,1.446,2.032,1.941q-.418.405-.806.827l-2.62-2.308-1.322,1.5,2.666,2.349c-.107.144-.217.288-.319.435l-3.081-1.692-.963,1.753,3,1.649c-.084.16-.16.322-.237.484l-3.113-.965-.592,1.911,2.957.916a13.62,13.62,0,0,0-.526,2.255h-3.005v2h2.875c.071,7.586,6.612,14.128,16,17.126v3.748h2v-3.17c.474.121.965.218,1.452.322v2.848h2v-2.483c.512.08,1.025.158,1.548.218v2.265h2v-2.079c.56.035,1.132.043,1.7.054v2.025h2v-2.04c.433-.014.871-.016,1.3-.042v2.082h2v-2.259c10.635-1.215,19.226-6.659,22.027-13.741h2.973v-2h-2.346q.135-.59.218-1.19h2.46v-2H165.05c0-.263-.01-.526-.029-.787l3.044-.023Zm-35.992-13.6a37.887,37.887,0,0,1,12,.159v1.771l-3.515,3.515h-4.971l-3.514-3.515ZM119.586,998.7l1.917,1.988.107,4.992-3.435,3.584-6.021.054C112.674,1005.187,115.415,1001.469,119.586,998.7Zm20.471,27.579v1.387c-.823.053-1.656.083-2.5.083a36.661,36.661,0,0,1-9.5-1.229v-2.257l3.514-3.514h4.971l3.515,3.514Zm2,1.2v-4.043l-4.687-4.686h-6.627l-4.686,4.686v2.479c-8.058-2.726-13.661-8.221-13.979-14.595l6.958-.063,4.591-4.791-.141-6.6-2.146-2.223a31.124,31.124,0,0,1,8.717-3.139v2.409l4.686,4.687h6.627l4.687-4.687v-2.186a27.909,27.909,0,0,1,11.4,5.418l-3.729,3.8v6.617l4.6,4.692h3.806C159.565,1021.505,151.754,1026.325,142.057,1027.481Zm20.722-14.229h-3.6l-3.444-3.51v-4.981l3.2-3.261a13.245,13.245,0,0,1,4.124,9.252A11.533,11.533,0,0,1,162.779,1013.252Z" transform="translate(289.28 63.059)" fill="red"/>
    <path id="路径_273" data-name="路径 273" d="M131.987,1007.119h1.139l1.155,3.193c.146.419.275.847.42,1.267h.043c.145-.42.266-.848.411-1.267l1.138-3.193h1.147v6.309h-.925v-3.116c0-.565.078-1.378.129-1.952h-.034l-.505,1.455-1.1,3.005h-.618l-1.1-3.005-.5-1.455h-.034c.043.574.12,1.387.12,1.952v3.116h-.891Z" transform="translate(289.28 63.059)" fill="red"/>
    <path id="路径_274" data-name="路径 274" d="M137.726,1010.295c0-2.055,1.249-3.287,2.842-3.287a2.428,2.428,0,0,1,1.789.8l-.539.633a1.68,1.68,0,0,0-1.233-.565c-1.087,0-1.84.908-1.84,2.388,0,1.5.7,2.414,1.814,2.414a1.827,1.827,0,0,0,1.4-.667l.53.625a2.486,2.486,0,0,1-1.96.907C138.941,1013.539,137.726,1012.358,137.726,1010.295Z" transform="translate(289.28 63.059)" fill="red"/>
    <g id="组_36" data-name="组 36" transform="translate(289.28 63.059)">
      <path id="路径_275" data-name="路径 275" d="M127.675,1012.258h1.263v-5.2H127.9v-.771a2.907,2.907,0,0,0,1.255-.591h.682v6.557h1.13v1h-3.294Z" fill="red"/>
    </g>
    <g id="组_37" data-name="组 37" transform="translate(289.28 63.059)">
      <path id="路径_276" data-name="路径 276" d="M143,1010.218c0-2.845,1.391-3.995,2.93-3.995a2.659,2.659,0,0,1,1.939.8l-.664.706a1.688,1.688,0,0,0-1.223-.544c-.979,0-1.8.706-1.854,2.824a2.382,2.382,0,0,1,1.686-.867,2.013,2.013,0,0,1,2.181,2.229,2.268,2.268,0,0,1-2.318,2.35C144.2,1013.718,143,1012.6,143,1010.218Zm1.159.646c.127,1.341.686,1.967,1.507,1.967.675,0,1.212-.545,1.212-1.463a1.209,1.209,0,0,0-1.286-1.382A1.823,1.823,0,0,0,144.159,1010.864Z" fill="red"/>
    </g>
  </g>
</svg>
