<svg xmlns="http://www.w3.org/2000/svg" width="43.186" height="54.398" viewBox="0 0 43.186 54.398">
  <path id="_2015" data-name="2015" d="M754.761,101.438l.22.239,2.649,2.878h-5.162l-.038-.04-2.832-3.077h5.163m28.149,10.119,2.991,3.052-3.5.11-1.112.035-.069.256-3.207-3.273,3.582-.112,1.316-.041,0-.027M759.7,131.409l.619,4.257.09.619-.185.227-2.488,3.061-.6-4.109-.095-.654-.07-.048.272-.334,2.454-3.019m10.787-42.635c-5.714,0-11.921,4.131-16.323,11.164h-7.987l5.148,5.593c-.318.782-.621,1.583-.888,2.392-3.791,11.461-1.6,23.127,5.218,27.756l1.089,7.493,4.644-5.714c.15.006.3.011.451.011,7.94,0,16.274-7.947,19.984-19.164.226-.684.432-1.386.62-2.087l6.92-.217-5.812-5.931c.936-10.219-2.871-18.529-9.554-20.739a11.135,11.135,0,0,0-3.51-.557Zm-14.405,44.708c-5.431-4.428-7.066-14.895-3.746-24.931.276-.837.586-1.67.919-2.475l-.05-.021h7.843l-4.965-5.394c4.008-6.225,9.458-9.891,14.38-9.891a9.235,9.235,0,0,1,2.906.459c5.828,1.928,9.1,9.514,8.174,18.9l-7,.219,5.8,5.919c-.135.473-.266.949-.42,1.413-3.44,10.4-10.962,17.773-18.051,17.773h-.07l-1.111-7.641-4.61,5.673Z" transform="translate(-746.179 -88.774)" fill="red"/>
</svg>
