<svg xmlns="http://www.w3.org/2000/svg" width="47.14" height="47.698" viewBox="0 0 47.14 47.698">
  <path id="_2016" data-name="2016" d="M783.268,173.1l6.507-2.813-6.808-2.588.009.383c-.957-6.451-4.14-11.466-9.042-13.087-4.492-1.485-9.522.172-13.88,4l.542-.6-6.849-2.478,3.122,6.424a34.871,34.871,0,0,0-5.863,10.931,35.879,35.879,0,0,0-1.8,9.424l-6.573,2.668,6.749,2.74v-.229c.833,6.764,4.064,12.065,9.13,13.74a10.713,10.713,0,0,0,3.389.54c3.735,0,7.623-1.855,11.052-5.058l-.155.181,6.9,2.323-3.3-6.416a36.3,36.3,0,0,0,6.864-20.083Zm-24.44,27.564c-7.868-2.6-10.951-14.75-6.873-27.08,3.554-10.745,11.392-18.135,18.556-18.135a9.868,9.868,0,0,1,3.109.495c7.868,2.6,10.951,14.75,6.873,27.079S766.694,203.266,758.828,200.663Z" transform="translate(-742.635 -154.454)" fill="red"/>
</svg>
