<svg xmlns="http://www.w3.org/2000/svg" width="62.137" height="4.881" viewBox="0 0 62.137 4.881">
  <g id="_2019" data-name="2019" transform="translate(0)">
    <rect id="矩形_80" data-name="矩形 80" width="9.124" height="0.957" transform="translate(20.704 3.924)" fill="red"/>
    <rect id="矩形_81" data-name="矩形 81" width="9.124" height="0.957" transform="translate(32.184 3.924)" fill="red"/>
    <path id="路径_171" data-name="路径 171" d="M487.81,139.412a4.874,4.874,0,0,0-4.09,2.232H439.527a4.876,4.876,0,0,0-8.972,2.649h1.915a2.967,2.967,0,0,1,5.935,0h11.01v-.957h-9.193A4.774,4.774,0,0,0,440,142.6h43.249a4.778,4.778,0,0,0-.223.734H474v.957h10.838a2.967,2.967,0,0,1,5.935,0h1.915A4.887,4.887,0,0,0,487.81,139.412Z" transform="translate(-430.555 -139.412)" fill="red"/>
  </g>
</svg>
