<svg xmlns="http://www.w3.org/2000/svg" width="57.256" height="4.121" viewBox="0 0 57.256 4.121">
  <g id="_2021" data-name="2021" transform="translate(-1105 -141)">
    <path id="路径_175" data-name="路径 175" d="M434.676,186.9a4.126,4.126,0,0,0-4.121,4.121h.9a3.225,3.225,0,0,1,6.45,0h8.638v-.9h-7.847A4.123,4.123,0,0,0,434.676,186.9Z" transform="translate(674.445 -45.898)" fill="red"/>
    <rect id="矩形_84" data-name="矩形 84" width="0.896" height="0.896" transform="translate(1121.829 144)" fill="red"/>
    <rect id="矩形_85" data-name="矩形 85" width="8.628" height="0.896" transform="translate(1123.878 144)" fill="red"/>
    <rect id="矩形_86" data-name="矩形 86" width="0.896" height="0.896" transform="translate(1133.35 144)" fill="red"/>
    <rect id="矩形_87" data-name="矩形 87" width="8.628" height="0.896" transform="translate(1135.337 144)" fill="red"/>
    <rect id="矩形_88" data-name="矩形 88" width="0.896" height="0.896" transform="translate(1144.81 144)" fill="red"/>
    <path id="路径_176" data-name="路径 176" d="M482.961,186.9a4.123,4.123,0,0,0-4.016,3.225H471.6v.9h8.136a3.225,3.225,0,0,1,6.45,0h.9A4.126,4.126,0,0,0,482.961,186.9Z" transform="translate(675.175 -45.898)" fill="red"/>
  </g>
</svg>
