<svg xmlns="http://www.w3.org/2000/svg" width="57.256" height="4.121" viewBox="0 0 57.256 4.121">
  <g id="_2022" data-name="2022" transform="translate(0 0)">
    <path id="路径_173" data-name="路径 173" d="M434.676,210.532a4.126,4.126,0,0,0-4.121,4.121h.9a3.225,3.225,0,1,1,6.45,0h9.279v-.9h-8.488A4.123,4.123,0,0,0,434.676,210.532Z" transform="translate(-430.555 -210.532)" fill="red"/>
    <rect id="矩形_82" data-name="矩形 82" width="9.269" height="0.896" transform="translate(18.502 3.225)" fill="red"/>
    <rect id="矩形_83" data-name="矩形 83" width="9.269" height="0.896" transform="translate(29.647 3.225)" fill="red"/>
    <path id="路径_174" data-name="路径 174" d="M482.979,210.532a4.122,4.122,0,0,0-4.016,3.225h-8.326v.9h9.117a3.225,3.225,0,1,1,6.45,0h.9A4.125,4.125,0,0,0,482.979,210.532Z" transform="translate(-429.842 -210.532)" fill="red"/>
  </g>
</svg>
