<svg xmlns="http://www.w3.org/2000/svg" width="57.516" height="30.611" viewBox="0 0 57.516 30.611">
  <path id="_2023" data-name="2023" d="M475.659,242.13c-6.514.182-10.875.653-18.085,5a34.759,34.759,0,0,1-3.225,1.749c.031-2.427-.245-7.66-2.968-10.611a6.549,6.549,0,0,0-5.014-2.135h-.027a6.009,6.009,0,0,0-4.633,2.055c-3.109,3.467-3.04,10.444-2.887,13.112a25.993,25.993,0,0,1-7.379-1.96l-.886,1.793a28.73,28.73,0,0,0,11.868,2.45,29.645,29.645,0,0,0,9.883-1.691l.018,5.44c.119,3.259,1.956,9.413,8.059,9.412h.028a6.728,6.728,0,0,0,4.986-1.993c2.683-2.745,2.624-7.324,2.62-7.5l-.017-3.73h1.8l-2.776-6.5-2.777,6.5H466l.017,3.752c0,.04.041,3.949-2.056,6.087a4.734,4.734,0,0,1-3.555,1.386h-.022c-5.7,0-6.05-7.18-6.061-7.451l-.022-6.181a32.633,32.633,0,0,0,4.335-2.286c13.426-8.41,28.672-2.855,28.877-2.795l.558-1.921A33.983,33.983,0,0,0,475.659,242.13Zm-34.82,9.349c-.14-2.136-.35-8.94,2.359-11.958a4.028,4.028,0,0,1,3.148-1.389h.021a4.564,4.564,0,0,1,3.542,1.489c2.584,2.8,2.484,8.6,2.413,10.113A28.042,28.042,0,0,1,440.839,251.479Z" transform="translate(-430.555 -236.132)" fill="red"/>
</svg>
