<svg xmlns="http://www.w3.org/2000/svg" width="58.184" height="37.328" viewBox="0 0 58.184 37.328">
  <path id="_2024" data-name="2024" d="M487.149,298.946c-.333.433-8.283,10.432-24.255,2.626l-.015-13.962h1.8l-2.776-6.5-2.777,6.5h1.748l.014,13.025c-14.489-6.335-29.675-.761-30.338-.512l.705,1.872a46.368,46.368,0,0,1,16.062-2.3l.02,6.479c-.005.286-.094,7.059,3.193,10.408A6.043,6.043,0,0,0,455,318.436c6.139,0,7.852-5.952,7.9-9.116l-.006-5.539a27.34,27.34,0,0,0,11.376,2.728,18.942,18.942,0,0,0,14.467-6.35ZM455,316.436a4.055,4.055,0,0,1-3.037-1.257c-2.7-2.746-2.624-8.91-2.623-8.993l-.02-6.372a33.947,33.947,0,0,1,11.573,3.024l.007,6.467C460.9,309.6,460.727,316.436,455,316.436Z" transform="translate(-430.555 -281.108)" fill="red"/>
</svg>
