<svg xmlns="http://www.w3.org/2000/svg" width="54.916" height="23.828" viewBox="0 0 54.916 23.828">
  <path id="_2025" data-name="2025" d="M484.257,356.248c-1.525-.94-6.533-5.551-13.552-5.551-6.592,0-10.366,2.132-11.414,2.821h-.184v-12.6H461l-2.777-6.5-2.776,6.5h1.658v12.6h-.363c-1.036-.709-4.692-2.863-10.862-2.863-6.629,0-12.864,4.732-14.458,5.593h-.869v2h1.124a1,1,0,0,0,.486-.126c.1-.055,7.1-5.467,13.717-5.467,6.477,0,9.884,2.62,9.915,2.644a1,1,0,0,0,.624.219H459.6a1.013,1.013,0,0,0,.608-.206c.034-.025,3.534-2.615,10.493-2.615,7.057,0,12.641,5.339,12.725,5.392a1,1,0,0,0,.54.159h1.5v-2Z" transform="translate(-430.555 -334.42)" fill="red"/>
</svg>
