<svg xmlns="http://www.w3.org/2000/svg" width="54.916" height="16.52" viewBox="0 0 54.916 16.52">
  <path id="_2026" data-name="2026" d="M484.256,388.265c-1.524-.939-6.532-5.551-13.551-5.551-6.592,0-10.366,2.132-11.414,2.822h-.184V373.745h-2v11.791h-.363c-1.036-.709-4.692-2.864-10.862-2.864-6.629,0-12.864,4.733-14.458,5.593h-.869v2h1.124a1,1,0,0,0,.486-.126c.1-.055,7.1-5.467,13.717-5.467,6.477,0,9.883,2.62,9.914,2.645a1,1,0,0,0,.625.219H459.6a1.02,1.02,0,0,0,.608-.206c.034-.026,3.534-2.616,10.493-2.616,7.057,0,12.64,5.339,12.725,5.393a1,1,0,0,0,.539.158h1.5v-2Z" transform="translate(-430.555 -373.745)" fill="red"/>
</svg>
