<svg xmlns="http://www.w3.org/2000/svg" width="57.225" height="12.277" viewBox="0 0 57.225 12.277">
  <g id="_2029" data-name="2029" transform="translate(-430.555 -489.005)">
    <path id="路径_183" data-name="路径 183" d="M453.443,492.3l-5.689-3.29-5.592,3.29h-2.8v-1.777l-8.808,2.777,8.808,2.776V494.3h2.729l5.729,3.289,5.727-3.289H487.78v-2Zm-5.623,3.9-5.025-2.886,4.964-2.92,5.068,2.93Z" fill="red"/>
    <rect id="矩形_89" data-name="矩形 89" width="11.458" height="1" transform="translate(454.726 489.388)" fill="red"/>
    <rect id="矩形_90" data-name="矩形 90" width="11.458" height="1" transform="translate(454.726 496.323)" fill="red"/>
    <path id="路径_184" data-name="路径 184" d="M472.467,495.141a3.071,3.071,0,1,0,3.071,3.071A3.07,3.07,0,0,0,472.467,495.141Zm0,5.141a2.071,2.071,0,1,1,2.071-2.07A2.072,2.072,0,0,1,472.467,500.282Z" fill="red"/>
    <path id="路径_185" data-name="路径 185" d="M480.962,495.141a3.071,3.071,0,1,0,3.071,3.071A3.071,3.071,0,0,0,480.962,495.141Zm0,5.141a2.071,2.071,0,1,1,2.071-2.07A2.073,2.073,0,0,1,480.962,500.282Z" fill="red"/>
  </g>
</svg>
