<svg xmlns="http://www.w3.org/2000/svg" width="45.647" height="21.28" viewBox="0 0 45.647 21.28">
  <g id="_2030" data-name="2030" transform="translate(-438.018 -523.535)">
    <path id="路径_186" data-name="路径 186" d="M483.646,533.921V523.535H466.133v4.975h-7.3v5.411h-13v-2.159l-7.819,3.374,7.819,3.374v-2.158h37.828v-2.431Zm-23.109-3.71h7.3v-4.974h14.11v8.684H460.537Z" fill="red"/>
    <path id="路径_187" data-name="路径 187" d="M460.629,537.352a3.732,3.732,0,1,0,3.732,3.732A3.732,3.732,0,0,0,460.629,537.352Zm0,6.248a2.516,2.516,0,1,1,2.516-2.516A2.519,2.519,0,0,1,460.629,543.6Z" fill="red"/>
    <path id="路径_188" data-name="路径 188" d="M477.942,537.352a3.732,3.732,0,1,0,3.731,3.732A3.731,3.731,0,0,0,477.942,537.352Zm0,6.248a2.516,2.516,0,1,1,2.516-2.516A2.519,2.519,0,0,1,477.942,543.6Z" fill="red"/>
  </g>
</svg>
