<svg xmlns="http://www.w3.org/2000/svg" width="50.539" height="8.397" viewBox="0 0 50.539 8.397">
  <path id="_2034" data-name="2034" d="M784.88,307.963v-1.01l-.505-.9h-1.547l-1.346,1.334-1.361-1.334h-1.839l-1.346,1.334-1.362-1.334h-1.838l-1.346,1.334-1.362-1.334h-1.839l-1.346,1.334-1.361-1.334h-1.839l-1.346,1.334-1.361-1.334H760.1l-1.345,1.334-1.362-1.334h-1.839l-1.345,1.334-1.363-1.334h-1.838l-1.345,1.334-1.363-1.334H746.46l-1.346,1.334-1.362-1.334h-1.839l-1.346,1.334-1.361-1.334h-1.459l-1.4,1.674v1.81l-.559.429.457.6.852-.654V308l1-1.2h.8l1.136,1.112-1.358,1.346v4.526l.552.663h2.607l.606-.707v-4.519l-1.339-1.312,1.118-1.109h1.224l1.136,1.112-1.358,1.346v4.527l.553.662h2.607l.606-.707v-4.519l-1.34-1.312,1.119-1.109h1.223l1.136,1.112-1.358,1.346v4.527l.553.662h2.607l.606-.707v-4.519l-1.34-1.312,1.119-1.109h1.223l1.135,1.112-1.357,1.346v4.527l.553.662h2.607l.606-.707v-4.519l-1.34-1.312,1.119-1.109h1.224l1.135,1.112-1.357,1.346v4.526l.552.663h2.607l.606-.707v-4.519l-1.339-1.312,1.118-1.109h1.223l1.136,1.112-1.357,1.346v4.526l.552.663h2.607l.6-.707v-4.519l-1.338-1.312,1.118-1.109h1.223l1.136,1.112-1.357,1.346v4.526l.551.663h2.608l.605-.707v-4.519l-1.339-1.312L769.5,306.8h1.223l1.136,1.112-1.357,1.346v4.527l.552.662h2.608l.605-.707v-4.519l-1.34-1.312,1.119-1.109h1.223l1.136,1.112-1.358,1.346v4.527l.553.662h2.608l.6-.707v-4.519l-1.34-1.312,1.119-1.109h1.224l1.136,1.112-1.358,1.346v4.526l.552.663h2.608l.6-.707v-4.519l-1.339-1.312,1.118-1.109h.8l.2.347v1.144l1.694,1.541.5-.555Zm-43.188,1.577v3.926l-.2.234h-1.91l-.154-.184v-3.942l1.143-1.134Zm4.547,0v3.926l-.2.234h-1.911l-.154-.185v-3.941l1.144-1.134Zm4.546,0v3.926l-.2.234h-1.911l-.154-.184v-3.942l1.144-1.134Zm4.546,0v3.926l-.2.234h-1.91l-.154-.185v-3.941l1.144-1.134Zm4.546,0v3.926l-.2.234h-1.91l-.153-.184v-3.942l1.142-1.134Zm4.545,0v3.926l-.2.234h-1.91l-.153-.184v-3.942l1.142-1.134Zm4.546,0v3.926l-.2.234h-1.91l-.153-.184v-3.942l1.142-1.134Zm4.547,0v3.926l-.2.234H771.4l-.154-.184v-3.942l1.143-1.134Zm4.546,0v3.926l-.2.234h-1.91l-.155-.185v-3.941l1.144-1.134Zm4.546,0v3.926l-.2.234H780.5l-.154-.184v-3.942l1.143-1.134Z" transform="translate(-735.789 -306.053)" fill="red"/>
</svg>
