<svg xmlns="http://www.w3.org/2000/svg" width="46.06" height="10.273" viewBox="0 0 46.06 10.273">
  <g id="_2035" data-name="2035" transform="translate(-738.028 -349.701)">
    <rect id="矩形_91" data-name="矩形 91" width="0.75" height="0.375" transform="translate(738.028 350.604) rotate(-45.106)" fill="red"/>
    <path id="路径_193" data-name="路径 193" d="M741.824,354.4l.5.5.529-.53-.223-.223.481-.481-.531-.53-.53.53.25.249Z" fill="red"/>
    <rect id="矩形_92" data-name="矩形 92" width="0.749" height="0.714" transform="matrix(0.706, -0.708, 0.708, 0.706, 740.815, 353.39)" fill="red"/>
    <rect id="矩形_93" data-name="矩形 93" width="0.749" height="0.714" transform="matrix(0.707, -0.707, 0.707, 0.707, 739.807, 352.381)" fill="red"/>
    <rect id="矩形_94" data-name="矩形 94" width="0.751" height="0.713" transform="translate(745.86 358.434) rotate(-44.947)" fill="red"/>
    <rect id="矩形_95" data-name="矩形 95" width="0.749" height="0.714" transform="matrix(0.706, -0.708, 0.708, 0.706, 738.798, 351.373)" fill="red"/>
    <rect id="矩形_96" data-name="矩形 96" width="0.751" height="0.713" transform="translate(743.842 356.417) rotate(-44.947)" fill="red"/>
    <path id="路径_194" data-name="路径 194" d="M743.868,355.382l-.5-.5-.531.53.33.33-.527.527.531.53.53-.53-.357-.356Z" fill="red"/>
    <rect id="矩形_97" data-name="矩形 97" width="0.751" height="0.713" transform="translate(744.851 357.426) rotate(-44.947)" fill="red"/>
    <rect id="矩形_98" data-name="矩形 98" width="0.75" height="0.75" transform="translate(746.869 359.444) rotate(-45.026)" fill="red"/>
    <rect id="矩形_99" data-name="矩形 99" width="0.71" height="0.751" transform="translate(753.93 352.382) rotate(-45.053)" fill="red"/>
    <path id="路径_195" data-name="路径 195" d="M751.194,355.119l-.4-.4-.531.53.53.531.253-.253.4.4.5-.5-.529-.53Z" fill="red"/>
    <rect id="矩形_100" data-name="矩形 100" width="0.71" height="0.751" transform="translate(752.925 353.387) rotate(-45.053)" fill="red"/>
    <rect id="矩形_101" data-name="矩形 101" width="0.71" height="0.751" transform="translate(754.935 351.378) rotate(-45.053)" fill="red"/>
    <rect id="矩形_102" data-name="矩形 102" width="0.71" height="0.751" transform="translate(747.902 358.411) rotate(-45.053)" fill="red"/>
    <rect id="矩形_103" data-name="矩形 103" width="0.71" height="0.751" transform="translate(749.911 356.401) rotate(-45.053)" fill="red"/>
    <rect id="矩形_104" data-name="矩形 104" width="0.71" height="0.751" transform="translate(748.906 357.406) rotate(-45.053)" fill="red"/>
    <rect id="矩形_105" data-name="矩形 105" width="0.75" height="0.75" transform="translate(755.94 350.373) rotate(-45)" fill="red"/>
    <path id="路径_196" data-name="路径 196" d="M761.982,355.355l-.5-.5-.531.53.392.392-.485.485.531.53.53-.53-.425-.425Z" fill="red"/>
    <rect id="矩形_106" data-name="矩形 106" width="0.751" height="0.704" transform="translate(756.968 351.401) rotate(-44.947)" fill="red"/>
    <rect id="矩形_107" data-name="矩形 107" width="0.751" height="0.704" transform="translate(761.951 356.384) rotate(-44.947)" fill="red"/>
    <rect id="矩形_108" data-name="矩形 108" width="0.751" height="0.704" transform="translate(757.964 352.399) rotate(-45)" fill="red"/>
    <path id="路径_197" data-name="路径 197" d="M759.957,354.391l.5.5.531-.53-.168-.168.522-.522-.531-.53-.53.53.2.2Z" fill="red"/>
    <rect id="矩形_109" data-name="矩形 109" width="0.751" height="0.704" transform="translate(762.947 357.38) rotate(-44.947)" fill="red"/>
    <rect id="矩形_110" data-name="矩形 110" width="0.751" height="0.704" transform="translate(758.961 353.395) rotate(-44.947)" fill="red"/>
    <rect id="矩形_111" data-name="矩形 111" width="0.751" height="0.705" transform="translate(763.943 358.377) rotate(-44.947)" fill="red"/>
    <rect id="矩形_112" data-name="矩形 112" width="0.75" height="0.75" transform="translate(764.94 359.373) rotate(-45)" fill="red"/>
    <rect id="矩形_113" data-name="矩形 113" width="0.716" height="0.751" transform="translate(773.067 351.245) rotate(-45.053)" fill="red"/>
    <rect id="矩形_114" data-name="矩形 114" width="0.716" height="0.749" transform="matrix(0.708, -0.706, 0.706, 0.708, 772.055, 352.258)" fill="red"/>
    <rect id="矩形_115" data-name="矩形 115" width="0.717" height="0.751" transform="translate(771.041 353.272) rotate(-45.053)" fill="red"/>
    <rect id="矩形_116" data-name="矩形 116" width="0.716" height="0.749" transform="matrix(0.708, -0.706, 0.706, 0.708, 765.977, 358.336)" fill="red"/>
    <rect id="矩形_117" data-name="矩形 117" width="0.716" height="0.751" transform="translate(768.002 356.31) rotate(-45.053)" fill="red"/>
    <path id="路径_198" data-name="路径 198" d="M770.052,355.321l-.529-.53-.216.216-.289-.289-.531.53.53.531.24-.24.288.289Z" fill="red"/>
    <rect id="矩形_118" data-name="矩形 118" width="0.716" height="0.749" transform="matrix(0.708, -0.706, 0.706, 0.708, 766.989, 357.323)" fill="red"/>
    <rect id="矩形_119" data-name="矩形 119" width="0.751" height="0.75" transform="matrix(0.708, -0.706, 0.706, 0.708, 774.081, 350.231)" fill="red"/>
    <path id="路径_199" data-name="路径 199" d="M778.186,354.337l.511.511.531-.53-.159-.159.445-.445-.531-.53-.53.531.179.179Z" fill="red"/>
    <path id="路径_200" data-name="路径 200" d="M779.738,354.828l-.531.53.51.51.5-.5.409.408.53-.531-.531-.53-.5.5Z" fill="red"/>
    <rect id="矩形_120" data-name="矩形 120" width="0.751" height="0.722" transform="translate(780.228 356.379) rotate(-44.947)" fill="red"/>
    <rect id="矩形_121" data-name="矩形 121" width="0.751" height="0.722" transform="translate(781.249 357.4) rotate(-44.947)" fill="red"/>
    <rect id="矩形_122" data-name="矩形 122" width="0.749" height="0.722" transform="matrix(0.706, -0.708, 0.708, 0.706, 782.271, 358.422)" fill="red"/>
    <rect id="矩形_123" data-name="矩形 123" width="0.751" height="0.722" transform="translate(775.121 351.273) rotate(-44.947)" fill="red"/>
    <rect id="矩形_124" data-name="矩形 124" width="0.751" height="0.722" transform="translate(777.164 353.315) rotate(-44.947)" fill="red"/>
    <rect id="矩形_125" data-name="矩形 125" width="0.749" height="0.722" transform="translate(776.143 352.294) rotate(-45.027)" fill="red"/>
    <rect id="矩形_126" data-name="矩形 126" width="0.751" height="0.375" transform="translate(783.292 359.444) rotate(-44.947)" fill="red"/>
    <rect id="矩形_127" data-name="矩形 127" width="0.75" height="0.751" transform="translate(743.115 352.609) rotate(-45.053)" fill="red"/>
    <rect id="矩形_128" data-name="矩形 128" width="0.75" height="0.751" transform="translate(739.934 355.791) rotate(-45.053)" fill="red"/>
    <rect id="矩形_129" data-name="矩形 129" width="0.75" height="0.751" transform="translate(740.994 354.73) rotate(-45.026)" fill="red"/>
    <rect id="矩形_130" data-name="矩形 130" width="0.75" height="0.751" transform="translate(744.757 354.144) rotate(-45.053)" fill="red"/>
    <rect id="矩形_131" data-name="矩形 131" width="0.75" height="0.751" transform="translate(743.696 355.204) rotate(-45.026)" fill="red"/>
    <rect id="矩形_132" data-name="矩形 132" width="0.75" height="0.751" transform="translate(741.575 357.326) rotate(-45.053)" fill="red"/>
    <rect id="矩形_133" data-name="矩形 133" width="0.751" height="0.75" transform="translate(749.201 354.188) rotate(-45)" fill="red"/>
    <rect id="矩形_134" data-name="矩形 134" width="0.751" height="0.75" transform="translate(751.323 356.309) rotate(-44.947)" fill="red"/>
    <rect id="矩形_135" data-name="矩形 135" width="0.751" height="0.75" transform="translate(752.383 357.37) rotate(-45)" fill="red"/>
    <rect id="矩形_136" data-name="矩形 136" width="0.751" height="0.75" transform="translate(753.918 355.729) rotate(-45)" fill="red"/>
    <rect id="矩形_137" data-name="矩形 137" width="0.751" height="0.75" transform="translate(752.858 354.668) rotate(-45)" fill="red"/>
    <path id="路径_201" data-name="路径 201" d="M752.251,354.062l-.331.33.529.53.5-.5-.454-.454.359-.358-.53-.531-.531.53Z" fill="red"/>
    <rect id="矩形_138" data-name="矩形 138" width="0.751" height="0.75" transform="translate(750.737 352.546) rotate(-45)" fill="red"/>
    <rect id="矩形_139" data-name="矩形 139" width="0.75" height="0.751" transform="translate(759.219 354.73) rotate(-45)" fill="red"/>
    <rect id="矩形_140" data-name="矩形 140" width="0.75" height="0.751" transform="translate(761.341 352.609) rotate(-45.053)" fill="red"/>
    <rect id="矩形_141" data-name="矩形 141" width="0.75" height="0.751" transform="translate(758.158 355.791) rotate(-45.053)" fill="red"/>
    <rect id="矩形_142" data-name="矩形 142" width="0.75" height="0.751" transform="translate(761.921 355.204) rotate(-45.026)" fill="red"/>
    <rect id="矩形_143" data-name="矩形 143" width="0.75" height="0.751" transform="translate(762.982 354.144) rotate(-45.053)" fill="red"/>
    <rect id="矩形_144" data-name="矩形 144" width="0.75" height="0.751" transform="translate(759.8 357.326) rotate(-45.053)" fill="red"/>
    <rect id="矩形_145" data-name="矩形 145" width="0.751" height="0.75" transform="translate(767.426 354.188) rotate(-45)" fill="red"/>
    <rect id="矩形_146" data-name="矩形 146" width="0.751" height="0.75" transform="translate(770.608 357.37) rotate(-45)" fill="red"/>
    <rect id="矩形_147" data-name="矩形 147" width="0.751" height="0.75" transform="translate(769.547 356.309) rotate(-44.947)" fill="red"/>
    <rect id="矩形_148" data-name="矩形 148" width="0.751" height="0.75" transform="translate(772.143 355.729) rotate(-45)" fill="red"/>
    <rect id="矩形_149" data-name="矩形 149" width="0.751" height="0.75" transform="translate(771.082 354.668) rotate(-45)" fill="red"/>
    <rect id="矩形_150" data-name="矩形 150" width="0.751" height="0.75" transform="translate(768.961 352.546) rotate(-45)" fill="red"/>
    <path id="路径_202" data-name="路径 202" d="M770.363,353.949l-.335.335.531.53.506-.506-.342-.342.36-.359-.53-.531-.531.53Z" fill="red"/>
    <rect id="矩形_151" data-name="矩形 151" width="0.75" height="0.751" transform="translate(779.513 352.652) rotate(-45.053)" fill="red"/>
    <rect id="矩形_152" data-name="矩形 152" width="0.75" height="0.751" transform="translate(777.392 354.774) rotate(-45)" fill="red"/>
    <rect id="矩形_153" data-name="矩形 153" width="0.75" height="0.751" transform="translate(776.331 355.835) rotate(-45.053)" fill="red"/>
    <rect id="矩形_154" data-name="矩形 154" width="0.75" height="0.751" transform="translate(781.154 354.188) rotate(-45.053)" fill="red"/>
    <rect id="矩形_155" data-name="矩形 155" width="0.75" height="0.751" transform="translate(779.032 356.309) rotate(-45.053)" fill="red"/>
    <rect id="矩形_156" data-name="矩形 156" width="0.75" height="0.751" transform="translate(777.972 357.37) rotate(-45.053)" fill="red"/>
  </g>
</svg>
