<svg xmlns="http://www.w3.org/2000/svg" width="16.754" height="54.291" viewBox="0 0 16.754 54.291">
  <g id="_2036" data-name="2036" transform="translate(-752.681 -481.826)">
    <path id="路径_205" data-name="路径 205" d="M758.111,535.207l-4.4-4.855V503.513l4.933-4.933h4.649l5.1,4.942v26.8l-4.928,4.883Z" fill="#ffb522"/>
    <path id="路径_206" data-name="路径 206" d="M758.656,497.811l-5.066-5.141v-8.646l7.5,7.494,7.44-7.437v8.584l-5.148,5.146Z" fill="#ffb522"/>
    <path id="路径_207" data-name="路径 207" d="M769.435,481.883l-8.348,8.349-8.406-8.406v11.215l5.069,5.147-4.948,4.947V530.7l4.907,5.414h6.125L769.3,530.7V503.135l-5.055-4.9,5.191-5.192Zm-1.956,48.061-4.394,4.353h-4.569l-3.894-4.3V503.889l4.4-4.4h3.9l4.553,4.416Zm.137-37.657L763,496.9h-3.965L754.5,492.3v-6.076l5.3,5.3,1.287,1.287,1.286-1.287,5.243-5.243Z" fill="red"/>
  </g>
</svg>
