<svg xmlns="http://www.w3.org/2000/svg" width="54.052" height="15.447" viewBox="0 0 54.052 15.447">
  <g id="_2037" data-name="2037" transform="translate(-734.032 -565.253)">
    <g id="组_17" data-name="组 17">
      <path id="路径_210" data-name="路径 210" d="M739.736,566.057l-5.021,5.811.012.767,5.678-6.572Z" fill="#ffa131"/>
      <path id="路径_211" data-name="路径 211" d="M743.3,566.057l-8.164,9.449.215.532,8.619-9.975Z" fill="#ffa131"/>
      <path id="路径_212" data-name="路径 212" d="M746.871,566.057l-10.282,11.9.346.38,10.606-12.274Z" fill="#ffa131"/>
      <path id="路径_213" data-name="路径 213" d="M750.439,566.057l-11.622,13.45.5.2,11.794-13.649Z" fill="#ffa131"/>
      <path id="路径_214" data-name="路径 214" d="M754.007,566.057l-11.928,13.8.676,0,11.921-13.8Z" fill="#ffa131"/>
      <path id="路径_215" data-name="路径 215" d="M757.574,566.057l-11.928,13.8.676,0,11.921-13.8Z" fill="#ffa131"/>
      <path id="路径_216" data-name="路径 216" d="M761.142,566.057l-11.928,13.8.676,0,11.921-13.8Z" fill="#ffa131"/>
      <path id="路径_217" data-name="路径 217" d="M764.71,566.057l-11.928,13.8.676,0,11.921-13.8Z" fill="#ffa131"/>
      <path id="路径_218" data-name="路径 218" d="M768.277,566.057l-11.928,13.8.676,0,11.921-13.8Z" fill="#ffa131"/>
      <path id="路径_219" data-name="路径 219" d="M771.845,566.057l-11.928,13.8.676,0,11.921-13.8Z" fill="#ffa131"/>
      <path id="路径_220" data-name="路径 220" d="M775.413,566.057l-11.928,13.8.676,0,11.921-13.8Z" fill="#ffa131"/>
      <path id="路径_221" data-name="路径 221" d="M778.98,566.057l-11.928,13.8.676,0,11.921-13.8Z" fill="#ffa131"/>
      <path id="路径_222" data-name="路径 222" d="M782.459,566.16l-11.839,13.7.676,0,11.722-13.566Z" fill="#ffa131"/>
      <path id="路径_223" data-name="路径 223" d="M784.981,567.37l-10.793,12.491.676,0,10.489-12.139Z" fill="#ffa131"/>
      <path id="路径_224" data-name="路径 224" d="M786.66,569.556l-8.9,10.305.676,0,8.461-9.792Z" fill="#ffa131"/>
      <path id="路径_225" data-name="路径 225" d="M787.41,572.417l-6.421,7.431.676,0,5.791-6.7Z" fill="#ffa131"/>
    </g>
    <path id="路径_226" data-name="路径 226" d="M781.24,566.08l.331.011c3.251.1,5.8,3.124,5.8,6.885s-2.547,6.786-5.8,6.886l-.221.01H740.926l-.33-.007c-3.225-.068-5.849-3.158-5.849-6.889s2.624-6.82,5.849-6.889l.224-.007h40.42m.35-.827H740.582v.007c-3.628.077-6.55,3.5-6.55,7.716s2.922,7.64,6.55,7.717v.007H781.59v-.01c3.6-.111,6.494-3.518,6.494-7.714s-2.892-7.6-6.494-7.713v-.01Z"/>
  </g>
</svg>
