<svg xmlns="http://www.w3.org/2000/svg" width="54.052" height="15.447" viewBox="0 0 54.052 15.447">
  <path id="_2038" data-name="2038" d="M753.41,604.957H740.526v.01h-.355l-.021,0h-.155l-.041.005h-.01l-.011,0h0a6.585,6.585,0,0,0-4.692,3.233h0l-.006.01h0l-.022.037h0l-.006.009h0l0,.009h0l0,.005h0l0,0h0l0,.005h0l0,0h0l0,0h0l0,0h0l-.006.009h0l0,0h0l0,.005h0l0,.005h0l0,0h0l0,0h0l0,.005h0l0,0h0l0,0h0l0,0h0l0,0h0l0,0h0l0,0h0l0,0h0l0,.005h0l-.006.009h0l-.005.01h0l0,0h0l0,0h0l0,0h0l0,0h0l0,0h0l0,0h0l0,0h0l0,.005h0l0,0h0l0,0h0l0,0h0l0,0h0l0,.005h0l0,0h0l0,0h0l0,0h0l0,0h0l0,0h0l0,0h0l0,0h0l0,0h0l0,0h0l0,0h0l0,0h0l0,0h0l0,0h0l0,0h0l0,0h0l0,0h0l0,0h0l0,0h0l0,0h0l0,0h0l0,0v0l0,0h0l0,0h0l0,0h0l0,0h0l0,0h0l0,0v0h0l0,0h0l0,0h0l0,0h0l0,0h0l0,0h0l0,0v0l0,0v0l0,0h0l0,0v.005h0l0,0h0v0h0l0,0v.007l0,0v0l0,0v0l0,0v0l0,0v0l0,0h0l0,0h0l0,0h0l0,0v.007l0,0v.007l0,0v.007l0,0h0v0h0l0,0h0v0h0l0,0h0v0h0l0,0h0v0h0l0,0h0l0,0h0l0,0v.007l0,0v.007l0,0v0l0,0v0l0,0v0l0,0v.007l0,0v.007l0,0v.007l0,0v.007l0,0v0l0,0v.007l0,0v.007l0,0v.01h0l0,0v.007l0,0v.01l0,0v.01l0,0h0l0,0v.007l0,0v.01l0,0v.01l0,0v.012l0,0v.01l0,0v.014l0,0h0v0h0v.006l0,0v.012l0,0v.012l0,0v.015l0,0v.015l0,0v.017l0,0v.012l0,0v0l0,0v.016l0,0v.02l0,0v.018l0,0v.023l0,0v.023l0,0v.028l0,0v.028l0,0v.032h0l0,0h0l0,0v0l0,0v.016l0,0v0l0,0v0l0,0h0l0,0v.017h0v0h0v.02h0l0,.005h0l0,0h0l0,0h0l0,0h0l0,.005h0l0,0h0l-.016.041h0c-.015.04-.031.081-.045.122h0l-.013.037h0l0,.005h0l0,.005h0l0,0h0l0,0h0l0,.005h0l0,.005h0v0h0v.005h0v0h0l0,0h0l0,.005h0l0,.005h0l0,.005h0l0,.01h0v.005h0v0h0v.01h0l0,0h0l0,0h0l0,.005h0v0h0v.005h0v0h0l0,0v0l0,0h0l0,0h0v0h0v0h0v0h0l0,.005h0l0,0v.011h0v.01h0l0,0h0l0,0h0v.005h0v.01h0l0,0v.011h0v0h0l0,.005h0v.01h0v.011l0,0h0v0h0V610h0l0,0h0v.005h0v0h0l0,.005h0l0,0h0v.005h0v.005h0l0,0h0l0,.005h0v.01h0l0,0v.006h0v0h0l0,.005h0v0h0v.005h0l0,0h0v.01h0v0h0v0h0v0h0l0,.005h0v0h0v.005h0l0,0v.006h0v.006l0,0h0v0h0v.005h0l0,0v.006h0v0h0v.005h0v0h0l0,.005h0v0h0v0h0v0h0v.005h0l0,0v.006h0v.01h0v0h0l0,0h0v.01h0v.005h0v0h0v.005h0v0h0l0,.005h0v.006l0,0h0v.01h0v.01h0v.01h0v.005h0v0h0v.005h0v.01h0v.005h0v0h0v.005h0v0h0v.005h0v.01h0v.01h0v.005h0v0h0v.005h0v.01h0l0,.005h0v.01h0v.01h0v.005h0v0h0l0,.005h0v.01h0v.005h0v.01h0v.006l0,0h0v.005h0v0h0v.005h0v.005h0v0h0v.005h0v.005h0v0h0v.005h0v.027h0v.005h0v0h0v.005h0v.005h0v.01h0v.01h0v.005h0v0h0v.005h0v.005h0v.01h0v.005h0v0h0v.005h0l0,.005h0v.005h0v.005h0v.005h0v.005h0v0h0v.005h0v.005h0v0h0v.005h0v.005h0v.01h0v.005h0v0h0v.005h0v.005h0v.005h0v0h0v.005h0l0,0h0v.005h0v.006h0v.005h0v.005h0v.005h0v.005h0v.005h0v.005h0v.005h0l0,.005h0v.005h0v.006h0v.005h0v.005h0v.005h0v.005h0v.005h0v.005h0v.006h0v.006h0v.005h0v.005h0v0h0v.005h0v.005h0v.005h0v.005h0v.005h0V611h0V611h0v.005h0v.005h0v.005h0v.005h0v.006h0v.006h0v.005h0v.005h0v.005h0v.006h0v.005h0v.006h0v.005h0v.006h0v.006h0l0,.011h0l-.006.034h0l0,.011h0v.005h0v0h0v.005h0v.006h0v.006h0v.006h0v.005h0v.005h0l-.007.047h0l-.015.093h0q-.064.422-.088.857h0v.024h0v.024h0l0,.036h0v.012h0v.012h0v.012h0v.012h0v.012h0v.012h0v.012h0v.012h0v.006h0v.005h0v.006h0v.006h0v.012h0v.006h0v.006h0v.005h0v.006h0v.005h0v.018h0v.006h0v.006h0v.006h0v.006h0v.005h0v0h0v.006h0v.005h0v.006h0v.006h0v.006h0v.006h0v.005h0v.006h0v.005h0v.005h0v.006h0v.006h0v.006h0v.006h0v.005h0v.005h0v.005h0v.005h0v.006h0v.006h0v.006h0v.006h0v.005h0v.005h0v0l1,0c.013-3.653,2.44-6.589,5.525-6.684l.239-.01H753.41v-1Zm-12.7,0h0Zm-4.9,11.112-.9.444a7.779,7.779,0,0,0,.543.931h0l.012.017h0l.009.013h0l0,0h0l.009.013h0l0,0h0l.008.012h0l0,0h0l.008.012h0l0,0v0l.008.011v0l0,0h0l.008.012h0l0,0h0l.008.011v0l0,0v0l.008.01v0l0,0h0l.008.011v0l0,0,0,0,0,0v0l0,.005,0,0,0,0v0l0,0,0,0,0,0v0l0,0,0,0,0,0,0,.005,0,0,0,0,0,0,0,0,0,0,0,.005,0,0,0,0,0,0,0,0,0,0,0,0,0,0,0,0,0,0,0,0,0,0,0,0,0,0,0,0v0l0,0v0l0,.005v0l0,0v0l0,0v0l0,.005v0l0,0v0l0,0h0l0,.005v0l0,0v0l0,0h0l0,0v0l0,0h0l0,0h0l0,.006h0l0,.005h0l0,.005h0l0,.006h0l0,0h0l0,.005h0l0,.006h0l0,.005h0l0,.005h0l.005.006h0l0,.005h0l0,.005h0l0,.005h0l0,.005h0l0,0h0l0,.005h0l0,0h0l0,.005h0l.005.005h0l0,.005h0l.009.011h0l0,.005h0l.013.016h0l.009.011h0l0,.006h0l.012.016h0l.009.01h0l0,.006h0l.014.016h0l.014.016h0l.013.016h0a6.642,6.642,0,0,0,2.662,1.95h0l.019.007h0l.019.008h0l.012,0h0l.007,0h0l.012.005h0l.006,0h0l.013.005h0l.006,0h0l.013.005h0l.006,0h0l.013.005h0l.006,0h0l.012.005h0l.006,0h0l.013.005h0l.006,0h0l.013,0h0l.006,0h0l.012.005h0l.005,0h0l.012,0h.008l.012,0h0l.005,0h0l.012,0h0l.005,0h0l.013,0h0l.005,0h0l.012,0h.007l.013,0h0l.005,0h0l.012,0h0l.005,0h0l.013,0h.007l.012,0h0l.005,0h0l.012,0h0l.005,0h0l.012,0h0l0,0h0l.006,0h0l.006,0h0l.005,0h0l.012,0h.008l.012,0h.008l.012,0h.014l.006,0h0l.005,0h0l.006,0h0l.005,0h.008l.006,0h.014l.006,0h0l.006,0h.008l.006,0h.013l.007,0h0l.005,0h.022l.005,0h0l.006,0h.014l.006,0h.014l.006,0h.014l.006,0h.014l.006,0h.014l.006,0h.014l.006,0h.014l.006,0h.2l.005,0h.015l.005,0h.947v.011h16.818v-1H740.882l-.325-.01a5.582,5.582,0,0,1-4.75-3.325Zm4.719,4.324v.011h0v-.011Zm43.929-2.047a5.035,5.035,0,0,1-2.942,1.051l-.245.007H761.344v1h20.19V620.4h1.113l.006,0h.031l.005,0h.059l.006,0h.045l.006,0h.029l.006,0h.043l.008,0h.008l.007,0h.007l.009,0h.006l.013,0h.007l.008,0h0l0,0h0l.008,0h.007l.013,0H783l.007,0h0l0,0h0l.007,0h.008l.012,0h0l0,0h0l.008,0h.007l.008,0h.007l.013,0h.006l.009,0h0l0,0h0l.009,0h.006l.013-.005h0l.013,0h.006l.009,0h.006l.013,0h0l.013,0h0l.005,0h0l.009,0h.006l.014,0h0l.013-.005h0l.014-.005h.006l.014,0h0l.014,0h0l.014,0h0l.005,0h0l.008,0h0l0,0h0l.014-.005h0l.013-.005h0l.005,0h0l.014-.005h0l.013-.005h0l.014-.005h0l.014-.005h0l.005,0h0l.014-.005h0l.013-.005h0l.014-.005h0l.005,0h0l.014-.005h0l.014-.006h0l.014-.005h0l.019-.008h0l.014-.005h0l.014-.006h0l.019-.007h0l.014-.005h0l.033-.014h0l.014-.006h0l.014-.006h0l.019-.007h0l.015-.005h0l.014-.005h0l.047-.02h0c.11-.048.219-.1.326-.153h0a6.463,6.463,0,0,0,.971-.608l-.6-.8Zm-2.921-13.389H757.41v1h23.776l.327.007c3.072.065,5.571,3.078,5.571,6.716a7.68,7.68,0,0,1-.567,2.93l.924.38h0l0-.005h0l0-.005h0l.005-.011h0l0-.005h0l0-.005h0l0-.005h0v-.006l0,0h0l0-.006h0l0-.012h0l0-.005h0l0-.005h0l0-.005h0V615.9l0-.005h0l0-.006h0l.007-.018h0l0-.005v0l0,0v0l0,0h0l0-.005h0l0-.006h0l.007-.017h0l0-.005h0l0-.005h0V615.8h0l0-.005h0l0-.005h0l.007-.018h0l0-.006h0l0-.005h0v-.006l0-.005h0l.009-.024h0l0-.006h0l0,0V615.7l0-.005h0l0-.006h0l.007-.018h0l0-.006h0l0-.005h0l0-.005h0l0-.005h0l.009-.024h0l0-.006h0l0-.005h0v-.005h0v0h0l0-.005h0l.006-.018h0l0-.005v0l0,0v-.018h0l.006-.018h0l0-.005h0l0-.005h0l0-.005h0v-.005h0l0-.005h0l.008-.024h0v-.005h0v-.011h0v-.005h0l0-.005h0l0-.012h0l0-.006h0l0,0v0l0,0V615.4l0-.005h0l0-.012h0l0-.005h0l0,0v-.025h0l0-.012h0v-.023h0V615.3h0l0-.005h0l0-.006h0l0-.006v0l0,0v0l0,0v-.031h0l0-.006V615.2l0,0v0l0-.005v-.009l0,0v-.02l0,0v-.008l0-.006v-.044l0-.006v0l0,0v-.038l0-.006v-.045l0-.006v-.095h0l0-.008v-.038l0-.014h0v-.092l0-.008v-.044l0-.006v-.045l0-.014h0v-.036l0-.014v-.036h0l0-.016h0v-.005h0v0h0v-.011h0v-.005h0v-.005h0l0-.016h0v-.005h0v-.023h0v-.005h0l0-.017h0v-.005h0V614.4h0v-.023h0l0-.016h0v-.005h0v-.029h0l0-.016h0V614.3h0V614.3h0v-.017h0v-.005h0l0-.016h0v-.036l0-.015h0v-.035h0l0-.016h0v-.036l0-.021h0v-.005h0v-.029h0l0-.016h0v-.029h0l0-.022h0v-.005h0v-.005h0v-.017h0v-.005h0v-.012h0v-.005h0V613.9h0l0-.017h0v-.038l0-.014v-.037h0l0-.017h0v-.053h0v-.053h0v-.053h0v-.038l0-.015h0v-.042h0V613.4h0v-.054h0V613.3h0v-.011h0v-.054h0v-.156h0v-.109h0v-.173h0v-.054h0v-.055c0-4.217-2.922-7.639-6.55-7.716v-.007Zm-.125,0h0v.006h0v-.006Z" transform="translate(-734.032 -604.957)"/>
</svg>
