<svg xmlns="http://www.w3.org/2000/svg" width="50" height="50" viewBox="0 0 50 50">
  <g id="_7002" data-name="7002" transform="translate(-2509.883 -930.075)">
    <path id="路径_145" data-name="路径 145" d="M2534.883,930.075a25,25,0,1,0,25,25A25.028,25.028,0,0,0,2534.883,930.075Zm0,48a23,23,0,1,1,23-23A23.026,23.026,0,0,1,2534.883,978.075Z" fill="red"/>
    <path id="路径_146" data-name="路径 146" d="M2549.885,954.8c-.035.6-.973,14.3-13.113,15.022V953.187h7v-2h-7V939.3h-2v11.891h-7v2h7v16.634c-12.328-.673-14.8-13.685-14.905-14.253l-1.968.349c.027.159,2.983,15.937,17.873,15.937,14.994,0,16.1-16.775,16.109-16.944Z" fill="red"/>
  </g>
</svg>
