<svg xmlns="http://www.w3.org/2000/svg" width="64" height="34.72" viewBox="0 0 64 34.72">
  <g id="_7018" data-name="7018" transform="translate(-9088.955 -468.37)">
    <path id="路径_65" data-name="路径 65" d="M9115.89,481.811l-9.235,9.566h-2.2V473.831h4.488l-1.43,1.632,1.336,1.169,6.206-7.094-1.335-1.168-3.226,3.688h-11.386l2.2-2.52-1.335-1.168-6.207,7.093,1.337,1.169,2.449-2.8h5.125V493.15h3.61l9.2,9.94h37.463V481.811Zm35.292,19.506h-34.916l-8.2-8.854,8.573-8.879h34.538Z" fill="red"/>
    <rect id="矩形_49" data-name="矩形 49" width="9.425" height="1.774" transform="matrix(0.659, -0.753, 0.753, 0.659, 9111.502, 475.463)" fill="red"/>
    <rect id="矩形_50" data-name="矩形 50" width="9.425" height="1.774" transform="matrix(0.659, -0.753, 0.753, 0.659, 9088.955, 475.463)" fill="red"/>
  </g>
</svg>
