<svg xmlns="http://www.w3.org/2000/svg" width="64.248" height="26.771" viewBox="0 0 64.248 26.771">
  <g id="_7020" data-name="7020" transform="translate(-9088.831 -645.592)">
    <path id="路径_66" data-name="路径 66" d="M9116.371,659.026l9.065,3.626-1.36-2.72h10.881l3.451,3.286,1.25-1.313-3.019-2.873,3.179-2.97-1.237-1.324-3.619,3.382h-10.886l1.36-2.719Z" fill="red"/>
    <path id="路径_67" data-name="路径 67" d="M9150.623,655.282h2.456v-1.813h-2.812l-.155.059a6.09,6.09,0,0,0-3.6,4.543h-1.563V645.592l-56.119,13.386,56.119,13.385V659.884h1.692c.34,1.458,1.223,3.81,3.459,4.556l.141.047h2.837v-1.813h-2.53c-1.828-.729-2.232-3.556-2.291-4.055A4.254,4.254,0,0,1,9150.623,655.282Zm-7.486,14.785-46.49-11.089,46.49-11.089Z" fill="red"/>
  </g>
</svg>
