<svg xmlns="http://www.w3.org/2000/svg" width="49.434" height="21" viewBox="0 0 49.434 21">
  <path id="_7025" data-name="7025" d="M9416.272,139.048c-.4-.421-9.817-10.313-16.176-10.313h-16.551c-6.341,0-16.287,9.873-16.707,10.293l.207.207-.207.207c.42.421,10.366,10.293,16.707,10.293H9400.1c6.358,0,15.778-9.892,16.176-10.313l-.2-.187Zm-20.176,8.687h-12.551c-4,0-10.621-5.348-14.032-8.5,3.411-3.152,10.032-8.5,14.032-8.5H9400.1c4,0,10.324,5.358,13.548,8.5-3.223,3.143-9.549,8.5-13.548,8.5Z" transform="translate(-9366.839 -128.735)" fill="red"/>
</svg>
