<svg xmlns="http://www.w3.org/2000/svg" width="49.434" height="21" viewBox="0 0 49.434 21">
  <path id="_7027" data-name="7027" d="M9416.272,312.829c-.4-.421-9.817-10.313-16.176-10.313h-16.551c-6.341,0-16.287,9.873-16.707,10.293l.207.207-.207.207c.42.421,10.366,10.293,16.707,10.293H9400.1c6.358,0,15.778-9.892,16.176-10.313l-.2-.187Zm-42.545-3.374c.634-.488,1.283-.968,1.947-1.43Zm22.369,12.061h-3.849v-17h7.849c4,0,10.324,5.358,13.548,8.5-3.223,3.143-9.549,8.5-13.548,8.5Z" transform="translate(-9366.839 -302.516)" fill="red"/>
</svg>
