<svg xmlns="http://www.w3.org/2000/svg" width="33.292" height="49.157" viewBox="0 0 33.292 49.157">
  <path id="_3003" data-name="3003" d="M6033.674,327.379a13.2,13.2,0,0,0-10.142-10.489h-.252v-.031h-5.2v-9.637l6.242,1.574-7.283-20.286-7.282,20.286,6.242-1.574v9.637h-5.2l-.252.031a13.2,13.2,0,0,0-10.141,10.489l-.011,9.247h2.081V327.6a11.259,11.259,0,0,1,8.453-8.664H6016v18.727h2.081V318.94h5.071a11.144,11.144,0,0,1,8.453,8.662v9.024h2.081v-9.1Z" transform="translate(-6000.392 -288.51)" fill="red"/>
</svg>
