<svg xmlns="http://www.w3.org/2000/svg" width="50.978" height="27.049" viewBox="0 0 50.978 27.049">
  <g id="_3010" data-name="3010" transform="translate(-5991.549 -904.05)">
    <rect id="矩形_58" data-name="矩形 58" width="13.525" height="2.081" transform="translate(6012.356 912.372)" fill="red"/>
    <rect id="矩形_59" data-name="矩形 59" width="13.525" height="2.081" transform="translate(6012.356 921.736)" fill="red"/>
    <path id="路径_76" data-name="路径 76" d="M6040.446,909.251v7.8h-7.711v-2.418a6.382,6.382,0,0,0-1.884-4.547l-4.155-4.155a6.384,6.384,0,0,0-4.547-1.884h-5.877a6.385,6.385,0,0,0-4.547,1.884l-4.156,4.155a6.385,6.385,0,0,0-1.883,4.547v2.418h-14.137v2.081h14.137v1.377a6.387,6.387,0,0,0,1.883,4.548l4.156,4.155a6.385,6.385,0,0,0,4.547,1.884h5.877a6.385,6.385,0,0,0,4.547-1.884l4.155-4.155a6.384,6.384,0,0,0,1.884-4.548v-1.377h7.711v7.8h2.081V909.251Zm-32.68,5.385a4.382,4.382,0,0,1,1.274-3.076l4.156-4.155a4.322,4.322,0,0,1,3.076-1.275h5.877a4.322,4.322,0,0,1,3.076,1.275l4.155,4.155a4.378,4.378,0,0,1,1.274,3.076v2.418h-22.888Zm22.888,5.876a4.38,4.38,0,0,1-1.274,3.077l-4.155,4.155a4.321,4.321,0,0,1-3.076,1.274h-5.877a4.321,4.321,0,0,1-3.076-1.274l-4.156-4.155a4.384,4.384,0,0,1-1.274-3.077v-1.377h22.888Z" fill="red"/>
  </g>
</svg>
