<svg xmlns="http://www.w3.org/2000/svg" width="35.166" height="26.696" viewBox="0 0 35.166 26.696">
  <path id="_3015" data-name="3015" d="M6461.9,409.315a8.265,8.265,0,0,0,1.307-2.744l9.19-19.292-1.877-.895-7.409,15.553a8.321,8.321,0,0,0-15.869-.021l-8.162-15.854-1.849.952,9.77,18.98a8.311,8.311,0,0,0,14.676,3.619m-6.5,1.064a6.214,6.214,0,0,1-4.321-1.748,12.516,12.516,0,0,1-.881-1.373,12.734,12.734,0,0,1-.967-2.217c-.022-.138-.04-.287-.053-.447s-.021-.3-.021-.457a6.242,6.242,0,1,1,12.317,1.415l-1.141,2.4A6.232,6.232,0,0,1,6455.176,410.677Z" transform="translate(-6437.234 -386.062)" fill="red"/>
</svg>
