<svg xmlns="http://www.w3.org/2000/svg" width="35.181" height="28.703" viewBox="0 0 35.181 28.703">
  <path id="_3016" data-name="3016" d="M6461.748,495.008l0,0,.011-.023a8.282,8.282,0,0,0,1.651-3.613l8.993-19.681-1.892-.865-7.428,16.258a8.312,8.312,0,0,0-15.741.127l-8.255-16.719-1.865.922,9.833,19.915a8.346,8.346,0,0,0,4.16,5.786h-8.593v2.08h25.228v-2.08h-8.594A8.364,8.364,0,0,0,6461.748,495.008ZM6449,489.834a6.242,6.242,0,1,1,12.484,0,6.314,6.314,0,0,1-.077.933l-1.425,3.118a6.226,6.226,0,0,1-9.172.339l-1.744-3.533A6.2,6.2,0,0,1,6449,489.834Z" transform="translate(-6437.227 -470.494)" fill="red"/>
</svg>
