<svg xmlns="http://www.w3.org/2000/svg" width="32.217" height="59.681" viewBox="0 0 32.217 59.681">
  <path id="_6003" data-name="6003" d="M7959.217,317.507v-1.895h-8.545a6.314,6.314,0,0,0,2.86-4.738v-5.065h-1.9v5.055c0,.186-.2,4.376-7.581,4.715v-14.9l5.686,1.662-6.633-19.7-6.633,19.7,5.685-1.589v14.829c-7.334-.271-7.575-3.607-7.58-3.739v-5.808h-1.9v5.808a4.9,4.9,0,0,0,2.352,3.765H7927v1.895h15.161v4.738H7927v1.9h15.161v18.183h1.9V324.14h15.161v-1.9h-15.161v-4.738Z" transform="translate(-7927 -282.642)" fill="red"/>
</svg>
