<svg xmlns="http://www.w3.org/2000/svg" width="26.532" height="58.127" viewBox="0 0 26.532 58.127">
  <path id="_6007" data-name="6007" d="M7956.375,647.918v-1.9h-3.761v-5.807l3.123.841-4.071-11.143-4.069,11.143,3.122-.8v5.77h-15.161v-5.807l3.122.841-4.07-11.143-4.07,11.143,3.123-.8v5.77h-3.82v1.9h3.82v2.843h-3.82v1.9h3.82V655.5h-3.82v1.9h3.82v2.843h1.9v-2.843h6.681v18h-1.671l-3.7,3.7v5.237l3.7,3.7h5.237l3.7-3.7V679.1l-3.7-3.7h-1.671v-18h6.585v2.843h1.895v-2.843h3.761v-1.9h-3.761v-2.842h3.761v-1.9h-3.761v-2.843Zm-11.355,29.374,2.593,2.594v3.667l-2.593,2.593h-3.668l-2.593-2.593v-3.667l2.593-2.594Zm5.7-21.794h-15.161v-2.842h15.161Zm0-4.737h-15.161v-2.843h15.161Z" transform="translate(-7929.843 -629.914)" fill="red"/>
</svg>
