<svg xmlns="http://www.w3.org/2000/svg" width="29.375" height="56.854" viewBox="0 0 29.375 56.854">
  <g id="_6009" data-name="6009" transform="translate(-7928.421 -803.798)">
    <path id="路径_48" data-name="路径 48" d="M7928.421,829.383h13.74v29.375h-10.9v1.9h23.689v-1.9h-10.9V829.383h13.74v-1.9h-29.375Z" fill="red"/>
    <path id="路径_49" data-name="路径 49" d="M7945.917,819.907c1.987-1.417,3.351-4.28,3.351-7.581,0-4.7-2.763-8.528-6.159-8.528s-6.16,3.826-6.16,8.528c0,3.3,1.365,6.164,3.351,7.581h-11.879v1.9H7957.8v-1.9Zm-7.072-7.581c0-3.595,1.952-6.633,4.264-6.633s4.264,3.038,4.264,6.633-1.953,6.633-4.264,6.633S7938.845,815.922,7938.845,812.326Z" fill="red"/>
  </g>
</svg>
