<svg xmlns="http://www.w3.org/2000/svg" width="42" height="42" viewBox="0 0 42 42">
  <g id="_6019" data-name="6019" transform="translate(-8279.125 -986)">
    <path id="路径_71" data-name="路径 71" d="M8300.125,990a17,17,0,1,0,17,17A17.019,17.019,0,0,0,8300.125,990Zm0,32a15,15,0,1,1,15-15A15.017,15.017,0,0,1,8300.125,1022Z" fill="red"/>
    <path id="路径_72" data-name="路径 72" d="M8300.125,986a21,21,0,1,0,21,21A21.024,21.024,0,0,0,8300.125,986Zm0,40a19,19,0,1,1,19-19A19.021,19.021,0,0,1,8300.125,1026Z" fill="red"/>
    <path id="路径_73" data-name="路径 73" d="M8300.125,995a12,12,0,1,0,12,12A12,12,0,0,0,8300.125,995Zm2.5,22h-5V997h5Z" fill="red"/>
  </g>
</svg>
