<svg xmlns="http://www.w3.org/2000/svg" width="29.444" height="55.661" viewBox="0 0 29.444 55.661">
  <g id="_100007" data-name="100007" transform="translate(-562.445 -707.097)">
    <path id="路径_30" data-name="路径 30" d="M4457.273,1925.758l-14.584-19.19-.04-.243c-.8-4.813.915-6.531,2.432-8.047,1.78-1.78,4.336-2.449,7.6-1.987a7.268,7.268,0,0,1,4.611,2.833,9.507,9.507,0,0,1,3.162-2.491l.256-.072c5.216-.745,7.013-.01,9.458,2.435,2.509,2.508,1.543,7.176,1.5,7.374l-.046.214Zm-12.69-20,12.678,16.682,12.494-16.691c.208-1.2.359-3.98-1-5.336-1.909-1.91-3-2.533-7.608-1.891a7.9,7.9,0,0,0-3.027,2.882l-.944,1.585-.813-1.656c-.012-.024-1.373-2.692-3.962-3.059-2.647-.375-4.578.091-5.908,1.421S4444.038,1902.148,4444.583,1905.755Z" transform="translate(-3880 -1163)" fill="red"/>
    <path id="路径_31" data-name="路径 31" d="M4461.149,1913.583h-8.47v-2.236l5.916-7.056h-4.916v-2h7.458v2.082l-6.046,7.211h6.058Z" transform="translate(-3880 -1163)" fill="red"/>
    <rect id="矩形_14" data-name="矩形 14" width="2" height="20.582" transform="translate(576.167 716.627)" fill="red"/>
    <path id="路径_32" data-name="路径 32" d="M4457.42,1870.1l1.585,4.754,1.584,4.754h-6.339l1.584-4.754Z" transform="translate(-3880 -1163)" fill="red"/>
  </g>
</svg>
