<svg xmlns="http://www.w3.org/2000/svg" width="52.728" height="33.324" viewBox="0 0 52.728 33.324">
  <g id="_100008" data-name="100008" transform="translate(-554.963 -800.773)">
    <path id="路径_33" data-name="路径 33" d="M4461.99,1987.1h-6.673v-17.168h11.962v12.347Zm-5.673-1h5.286l4.676-4.262v-10.906h-9.962Z" transform="translate(-3880 -1163)" fill="red"/>
    <path id="路径_34" data-name="路径 34" d="M4462.3,1986.6h-1v-5.373h5.483v1H4462.3Z" transform="translate(-3880 -1163)" fill="red"/>
    <path id="路径_35" data-name="路径 35" d="M4458.563,1981.02v-7.969l3.932,2.246v3.664Zm1-6.247v4.594l1.932-1.012v-2.478Z" transform="translate(-3880 -1163)" fill="red"/>
    <path id="路径_36" data-name="路径 36" d="M4464.03,1979.158H4461.5v-4.071h2.535Zm-1.535-1h.535v-2.071h-.535Z" transform="translate(-3880 -1163)" fill="red"/>
    <path id="路径_37" data-name="路径 37" d="M4480,1997.1a7.532,7.532,0,0,1-3.9-1.1l-11.1-5.408a7.676,7.676,0,0,0-8.143.094l-10.181,5.17a7.338,7.338,0,0,1-9.091-.9,8.958,8.958,0,0,1-2.615-6.367,24.613,24.613,0,0,1,24.346-24.815h4.035a24.613,24.613,0,0,1,24.347,24.815,9.005,9.005,0,0,1-3.077,6.8A7,7,0,0,1,4480,1997.1Zm-19-9.594a9.657,9.657,0,0,1,5,1.4l11.1,5.408a5.279,5.279,0,0,0,6.229-.41,7.044,7.044,0,0,0,2.4-5.318,22.653,22.653,0,0,0-22.394-22.855h-4.035a22.653,22.653,0,0,0-22.393,22.855,7.006,7.006,0,0,0,2.043,4.981,5.377,5.377,0,0,0,6.665.627l10.181-5.171A9.66,9.66,0,0,1,4461,1987.5Z" transform="translate(-3880 -1163)" fill="red"/>
  </g>
</svg>
