<svg xmlns="http://www.w3.org/2000/svg" width="55.637" height="30.095" viewBox="0 0 55.637 30.095">
  <g id="_100001" data-name="100001" transform="translate(-553.081 -186.097)">
    <path id="路径_16" data-name="路径 16" d="M4488.718,1379.192h-55.637V1349.1h55.637Zm-53.637-2h51.637V1351.1h-51.637Z" transform="translate(-3880 -1163)" fill="red"/>
    <path id="路径_17" data-name="路径 17" d="M4461.722,1375.57l-10.573-13.913-.041-.243c-.59-3.546.734-4.871,1.8-5.935,1.325-1.327,3.21-1.827,5.615-1.487a5.307,5.307,0,0,1,3.219,1.841,6.945,6.945,0,0,1,2.109-1.578l.256-.072c3.862-.553,5.2.08,6.926,1.8,1.851,1.85,1.217,5.108,1.138,5.474l-.046.214Zm-8.678-14.725,8.666,11.4,8.541-11.412c.132-.827.212-2.593-.633-3.438-1.216-1.215-1.85-1.7-5.072-1.259a5.315,5.315,0,0,0-1.974,1.9l-.945,1.584-.812-1.655a3.92,3.92,0,0,0-2.573-2c-1.769-.251-3.052.05-3.921.92C4453.422,1357.791,4452.707,1358.507,4453.044,1360.845Z" transform="translate(-3880 -1163)" fill="red"/>
    <path id="路径_18" data-name="路径 18" d="M4464.456,1366.782h-6.272v-1.98l3.839-4.579h-2.839v-2h5.558v1.87l-3.931,4.688h3.645Z" transform="translate(-3880 -1163)" fill="red"/>
  </g>
</svg>
