<svg xmlns="http://www.w3.org/2000/svg" width="55.397" height="38" viewBox="0 0 55.397 38">
  <g id="_100002" data-name="100002" transform="translate(-553.081 -272.097)">
    <path id="路径_11" data-name="路径 11" d="M4460.278,1461.481v-21.744l10.573,6.041v10.165Zm2-18.3v14.993l6.573-3.443v-7.794Z" transform="translate(-3880 -1163)" fill="red"/>
    <path id="路径_12" data-name="路径 12" d="M4475.34,1456.338h-6.489v-10.98h6.489Zm-4.489-2h2.489v-6.98h-2.489Z" transform="translate(-3880 -1163)" fill="red"/>
    <path id="路径_13" data-name="路径 13" d="M4447.71,1473.1a4.939,4.939,0,1,1,4.94-4.939A4.945,4.945,0,0,1,4447.71,1473.1Zm0-7.878a2.939,2.939,0,1,0,2.94,2.939A2.943,2.943,0,0,0,4447.71,1465.219Z" transform="translate(-3880 -1163)" fill="red"/>
    <path id="路径_14" data-name="路径 14" d="M4472.22,1473.1a4.939,4.939,0,1,1,4.94-4.939A4.945,4.945,0,0,1,4472.22,1473.1Zm0-7.878a2.939,2.939,0,1,0,2.94,2.939A2.943,2.943,0,0,0,4472.22,1465.219Z" transform="translate(-3880 -1163)" fill="red"/>
    <path id="路径_15" data-name="路径 15" d="M4488.478,1465.108h-55.4V1435.1h55.4Zm-53.4-2h51.4V1437.1h-51.4Z" transform="translate(-3880 -1163)" fill="red"/>
  </g>
</svg>
