<svg xmlns="http://www.w3.org/2000/svg" width="53.862" height="34.04" viewBox="0 0 53.862 34.04">
  <g id="_100010" data-name="100010" transform="translate(-554.219 -979.773)">
    <path id="路径_38" data-name="路径 38" d="M4480.222,2176.813a7.7,7.7,0,0,1-3.985-1.126l-11.341-5.524a7.842,7.842,0,0,0-8.319.1l-10.4,5.282a7.5,7.5,0,0,1-9.286-.916,9.151,9.151,0,0,1-2.672-6.5,25.142,25.142,0,0,1,24.87-25.348h4.121a25.142,25.142,0,0,1,24.871,25.348,9.2,9.2,0,0,1-3.143,6.945A7.154,7.154,0,0,1,4480.222,2176.813Zm-19.409-9.8a9.87,9.87,0,0,1,5.112,1.436l11.342,5.525a5.394,5.394,0,0,0,6.364-.42,7.2,7.2,0,0,0,2.455-5.432,23.14,23.14,0,0,0-22.876-23.346h-4.121a23.141,23.141,0,0,0-22.875,23.346,7.159,7.159,0,0,0,2.088,5.088,5.491,5.491,0,0,0,6.807.641l10.4-5.282A9.867,9.867,0,0,1,4460.813,2167.012Z" transform="translate(-3880 -1163)" fill="red"/>
    <path id="路径_41" data-name="路径 41" d="M4461.15,2165.875a8.3,8.3,0,1,1,8.3-8.3A8.306,8.306,0,0,1,4461.15,2165.875Zm0-14.591a6.3,6.3,0,1,0,6.3,6.3A6.3,6.3,0,0,0,4461.15,2151.284Z" transform="translate(-3880 -1163)" fill="red"/>
  </g>
</svg>
