<svg xmlns="http://www.w3.org/2000/svg" width="53.811" height="36.286" viewBox="0 0 53.811 36.286">
  <g id="_100009" data-name="100009" transform="translate(-555.081 -887.098)">
    <path id="路径_39" data-name="路径 39" d="M4461.986,2086.384c-14.835,0-26.9-8.14-26.9-18.144s12.07-18.142,26.9-18.142,26.906,8.138,26.906,18.142S4476.822,2086.384,4461.986,2086.384Zm0-34.286c-13.733,0-24.9,7.241-24.9,16.142s11.172,16.144,24.9,16.144,24.906-7.242,24.906-16.144S4475.719,2052.1,4461.986,2052.1Z" transform="translate(-3880 -1163)" fill="red"/>
    <path id="路径_40" data-name="路径 40" d="M4447.773,2074.688a1.463,1.463,0,1,1,2.919,0,1.461,1.461,0,1,1-2.919,0Zm.509-13.023-.067-2.3h2.056l-.065,2.3-.266,9.374h-1.393Z" transform="translate(-3880 -1163)" fill="red"/>
  </g>
</svg>
