<svg xmlns="http://www.w3.org/2000/svg" width="50" height="50" viewBox="0 0 50 50">
  <g id="_100006" data-name="100006" transform="translate(-556.081 -621)">
    <path id="路径_27" data-name="路径 27" d="M4486.081,1834.1h-50v-50h50Zm-48-2h46v-46h-46Z" transform="translate(-3880 -1163.097)" fill="red"/>
    <g id="组_1597" data-name="组 1597" transform="translate(0 2.491)">
      <path id="路径_28" data-name="路径 28" d="M4459.081,1822.1a7,7,0,1,1,7-7A7.008,7.008,0,0,1,4459.081,1822.1Zm0-12a5,5,0,1,0,5,5A5.006,5.006,0,0,0,4459.081,1810.1Z" transform="translate(-3880 -1163)" fill="red"/>
      <path id="路径_29" data-name="路径 29" d="M4460.081,1809.11h-2v-17.6l15.87,12.588h-13.87Zm0-7.013h8.13l-8.13-6.449Z" transform="translate(-3880 -1163)" fill="red"/>
    </g>
  </g>
</svg>
