<svg xmlns="http://www.w3.org/2000/svg" width="55.992" height="54.702" viewBox="0 0 55.992 54.702">
  <path id="_1001" data-name="1001" d="M4092.956,199.623l-.606-.09c-1.209-.927-7.164-5.469-9.892-7.048-2.366-1.368-5.62-3.406-6.563-5.292-1.227-2.452-5.622-4.919-10.224-5.737-2.328-.415-5.775-3.643-8.816-6.492-2.37-2.221-4.609-4.319-6.408-5.218-4.051-2.026-11.874-3.993-12.205-4.076l-1.242-.31v54.7h2V199.64l.114.994a73.633,73.633,0,0,1,15.59,0,28.41,28.41,0,0,0,9.267-.159,17.3,17.3,0,0,1,4.65-.282,22,22,0,0,1,4.171,1.021,26.74,26.74,0,0,0,12.332,1.422c7.855-.982,7.856-1.111,7.868-2.11Zm-8.08,1.025a24.716,24.716,0,0,1-11.49-1.347,23.721,23.721,0,0,0-4.558-1.1,13.818,13.818,0,0,0-1.436-.074,23.966,23.966,0,0,0-3.723.368,26.708,26.708,0,0,1-8.688.155,74,74,0,0,0-15.981-.016v-30.7a68.676,68.676,0,0,1,10.553,3.6c1.538.769,3.674,2.77,5.935,4.889,3.4,3.187,6.92,6.482,9.833,7,4.237.753,7.963,3.019,8.784,4.663,1.17,2.34,4.543,4.505,7.351,6.129,1.988,1.15,5.94,4.077,8.2,5.779C4088.66,200.151,4087.155,200.363,4084.876,200.648Z" transform="translate(-4037 -165.36)" fill="red"/>
</svg>
