<svg xmlns="http://www.w3.org/2000/svg" width="43.523" height="54.915" viewBox="0 0 43.523 54.915">
  <g id="_1012" data-name="1012" transform="translate(-4479.661 -254.7)">
    <path id="路径_90" data-name="路径 90" d="M4507.161,298.615h1.089v6.976h1v-6.976h2v6.976h1v-6.976h.911v-1h-6Z" fill="red"/>
    <path id="路径_91" data-name="路径 91" d="M4489.782,291.692V278.823l33.4-11.71-35.4-12.413v36.959a9.027,9.027,0,1,0,2,.033Zm0-34.171,27.357,9.592-27.357,9.591V257.521Zm-1.121,50.094a7,7,0,1,1,7-7A7.009,7.009,0,0,1,4488.661,307.615Z" fill="red"/>
    <path id="路径_92" data-name="路径 92" d="M4504.568,300.491l1.522-2.31.909-.154v-.4h-2.247v.4l.839.154-2.553,4.049v-.782c0-1.111,0-2.222.018-3.311l.839-.11v-.4h-2.876v.4l.83.1c.017,1.111.017,2.222.017,3.322v.54c0,1.122,0,2.233-.017,3.322l-.83.1v.385h2.806v-.385l-.769-.1c-.018-.88-.018-1.727-.018-2.475l.77-1.178,1.556,3.664-.7.088v.385h2.676v-.385l-.655-.077Z" fill="red"/>
  </g>
</svg>
