<svg xmlns="http://www.w3.org/2000/svg" width="37.225" height="18" viewBox="0 0 37.225 18">
  <g id="_1013" data-name="1013" transform="translate(-4481.299 -358.197)">
    <path id="路径_93" data-name="路径 93" d="M4490.3,358.2a9,9,0,1,0,9,9A9.01,9.01,0,0,0,4490.3,358.2Zm0,16a7,7,0,1,1,7-7A7.008,7.008,0,0,1,4490.3,374.2Z" fill="red"/>
    <path id="路径_94" data-name="路径 94" d="M4507.037,363.515h.945v6.3h1v-6.3h1.728v6.3h1v-6.3h.782v-1h-5.455Z" fill="red"/>
    <path id="路径_95" data-name="路径 95" d="M4518.523,362.515h-5.454v1h.944v6.3h1v-6.3h1.728v6.3h1v-6.3h.782Z" fill="red"/>
    <path id="路径_96" data-name="路径 96" d="M4504.348,365.179l1.383-2.1.828-.14v-.36h-2.044v.36l.763.14-2.321,3.678v-.71c0-1.009,0-2.019.016-3.008l.763-.1v-.36h-2.616v.36l.756.09c.016,1.009.016,2.019.016,3.018v.49c0,1.019,0,2.029-.016,3.018l-.756.09V370h2.552v-.35l-.7-.09c-.016-.8-.016-1.569-.016-2.249l.7-1.069,1.415,3.328-.635.08V370h2.432v-.35l-.6-.07Z" fill="red"/>
  </g>
</svg>
