<svg xmlns="http://www.w3.org/2000/svg" width="61.6" height="46.821" viewBox="0 0 61.6 46.821">
  <g id="_1014" data-name="1014" transform="translate(-4468.595 -426.794)">
    <path id="路径_97" data-name="路径 97" d="M4496.021,440.727h3.023l4.021-6.966-4.021-6.967H4491l-4.022,6.967,4.022,6.966h3.021V462.56c-2.76-.619-5.61-1.307-8.512-2.059l-.5,1.937c4.044,1.047,7.992,1.976,11.735,2.761l.41-1.958c-.372-.078-.755-.163-1.131-.244Zm-6.735-6.966,2.868-4.967h5.736l2.867,4.967-2.867,4.966h-5.736Z" fill="red"/>
    <path id="路径_98" data-name="路径 98" d="M4518.747,467.757l-.541,1.926a82.372,82.372,0,0,1,11.175,3.932l.814-1.827A84.6,84.6,0,0,0,4518.747,467.757Z" fill="red"/>
    <path id="路径_99" data-name="路径 99" d="M4502.036,464.206l-.363,1.967c1.022.189,2.049.369,3.074.54,2.962.494,5.875,1.076,8.657,1.732l.459-1.947c-2.826-.665-5.782-1.257-8.788-1.757C4504.062,464.572,4503.047,464.393,4502.036,464.206Z" fill="red"/>
    <path id="路径_100" data-name="路径 100" d="M4468.6,457.676c.047.015,4.72,1.569,11.562,3.462l.533-1.927c-6.787-1.879-11.417-3.418-11.462-3.433Z" fill="red"/>
    <path id="路径_101" data-name="路径 101" d="M4501.794,455.021l-.936-.11c-.026-.968-.026-1.914-.026-2.772h.411c2.02,0,2.754-1.111,2.754-2.475,0-1.5-.778-2.421-2.623-2.421h-2.6v.4l.83.1c.017,1.11.017,2.222.017,3.322v.539c0,1.122,0,2.233-.017,3.323l-.83.1v.386h3.025Zm-.962-3.96c0-1.144,0-2.278.026-3.388h.463c1.024,0,1.513.693,1.513,1.991,0,1.21-.472,2.046-1.573,2.046h-.429Z" fill="red"/>
  </g>
</svg>
